<?xml version="1.0" encoding="UTF-8" standalone="no"?><svg xmlns="http://www.w3.org/2000/svg" xmlns:xlink="http://www.w3.org/1999/xlink" clip-rule="evenodd" stroke-miterlimit="10" viewBox="0 0 544 163"><desc>SVG generated by Keynote</desc><defs></defs><g transform="matrix(1.00, 0.00, -0.00, -1.00, 0.0, 163.0)"><text xml:space="preserve" font-family="HelveticaNeue,Helvetica Neue" font-size="45.8" fill="#FEFFFF" transform="matrix(1.00, 0.00, -0.00, -1.00, 0.5, 119.2)">•</text><text xml:space="preserve" font-family="HelveticaNeue,Helvetica Neue" font-size="61.0" fill="#FEFFFF" transform="matrix(1.00, 0.00, -0.00, -1.00, 59.2, 113.7)">C</text><text xml:space="preserve" font-family="HelveticaNeue,Helvetica Neue" font-size="61.0" fill="#FEFFFF" transform="matrix(1.00, 0.00, -0.00, -1.00, 103.2, 113.7)">h</text><text xml:space="preserve" font-family="HelveticaNeue,Helvetica Neue" font-size="61.0" fill="#FEFFFF" transform="matrix(1.00, 0.00, -0.00, -1.00, 137.1, 113.7)">r</text><text xml:space="preserve" font-family="HelveticaNeue,Helvetica Neue" font-size="61.0" fill="#FEFFFF" transform="matrix(1.00, 0.00, -0.00, -1.00, 156.4, 113.7)">o</text><text xml:space="preserve" font-family="HelveticaNeue,Helvetica Neue" font-size="61.0" fill="#FEFFFF" transform="matrix(1.00, 0.00, -0.00, -1.00, 191.4, 113.7)">m</text><text xml:space="preserve" font-family="HelveticaNeue,Helvetica Neue" font-size="61.0" fill="#FEFFFF" transform="matrix(1.00, 0.00, -0.00, -1.00, 243.4, 113.7)">e</text><text xml:space="preserve" font-family="HelveticaNeue,Helvetica Neue" font-size="61.0" fill="#FEFFFF" transform="matrix(1.00, 0.00, -0.00, -1.00, 276.2, 113.7)"> </text><text xml:space="preserve" font-family="HelveticaNeue,Helvetica Neue" font-size="61.0" fill="#FEFFFF" transform="matrix(1.00, 0.00, -0.00, -1.00, 293.1, 113.7)">d</text><text xml:space="preserve" font-family="HelveticaNeue,Helvetica Neue" font-size="61.0" fill="#FEFFFF" transform="matrix(1.00, 0.00, -0.00, -1.00, 329.3, 113.7)">e</text><text xml:space="preserve" font-family="HelveticaNeue,Helvetica Neue" font-size="61.0" fill="#FEFFFF" transform="matrix(1.00, 0.00, -0.00, -1.00, 362.0, 113.7)">v</text><text xml:space="preserve" font-family="HelveticaNeue,Helvetica Neue" font-size="61.0" fill="#FEFFFF" transform="matrix(1.00, 0.00, -0.00, -1.00, 392.5, 113.7)"> </text><text xml:space="preserve" font-family="HelveticaNeue,Helvetica Neue" font-size="61.0" fill="#FEFFFF" transform="matrix(1.00, 0.00, -0.00, -1.00, 409.5, 113.7)">t</text><text xml:space="preserve" font-family="HelveticaNeue,Helvetica Neue" font-size="61.0" fill="#FEFFFF" transform="matrix(1.00, 0.00, -0.00, -1.00, 428.7, 113.7)">o</text><text xml:space="preserve" font-family="HelveticaNeue,Helvetica Neue" font-size="61.0" fill="#FEFFFF" transform="matrix(1.00, 0.00, -0.00, -1.00, 463.7, 113.7)">o</text><text xml:space="preserve" font-family="HelveticaNeue,Helvetica Neue" font-size="61.0" fill="#FEFFFF" transform="matrix(1.00, 0.00, -0.00, -1.00, 498.7, 113.7)">l</text><text xml:space="preserve" font-family="HelveticaNeue,Helvetica Neue" font-size="61.0" fill="#FEFFFF" transform="matrix(1.00, 0.00, -0.00, -1.00, 512.3, 113.7)">s</text><text xml:space="preserve" font-family="HelveticaNeue,Helvetica Neue" font-size="61.0" fill="#FEFFFF" transform="matrix(1.00, 0.00, -0.00, -1.00, 542.8, 113.7)">
</text><text xml:space="preserve" font-family="HelveticaNeue,Helvetica Neue" font-size="45.8" fill="#FEFFFF" transform="matrix(1.00, 0.00, -0.00, -1.00, 0.5, 10.6)">•</text><text xml:space="preserve" font-family="HelveticaNeue,Helvetica Neue" font-size="61.0" fill="#FEFFFF" transform="matrix(1.00, 0.00, -0.00, -1.00, 59.2, 5.0)">I</text><text xml:space="preserve" font-family="HelveticaNeue,Helvetica Neue" font-size="61.0" fill="#FEFFFF" transform="matrix(1.00, 0.00, -0.00, -1.00, 75.0, 5.0)">n</text><text xml:space="preserve" font-family="HelveticaNeue,Helvetica Neue" font-size="61.0" fill="#FEFFFF" transform="matrix(1.00, 0.00, -0.00, -1.00, 108.9, 5.0)">s</text><text xml:space="preserve" font-family="HelveticaNeue,Helvetica Neue" font-size="61.0" fill="#FEFFFF" transform="matrix(1.00, 0.00, -0.00, -1.00, 139.4, 5.0)">t</text><text xml:space="preserve" font-family="HelveticaNeue,Helvetica Neue" font-size="61.0" fill="#FEFFFF" transform="matrix(1.00, 0.00, -0.00, -1.00, 158.6, 5.0)">r</text><text xml:space="preserve" font-family="HelveticaNeue,Helvetica Neue" font-size="61.0" fill="#FEFFFF" transform="matrix(1.00, 0.00, -0.00, -1.00, 178.9, 5.0)">u</text><text xml:space="preserve" font-family="HelveticaNeue,Helvetica Neue" font-size="61.0" fill="#FEFFFF" transform="matrix(1.00, 0.00, -0.00, -1.00, 212.8, 5.0)">m</text><text xml:space="preserve" font-family="HelveticaNeue,Helvetica Neue" font-size="61.0" fill="#FEFFFF" transform="matrix(1.00, 0.00, -0.00, -1.00, 264.9, 5.0)">e</text><text xml:space="preserve" font-family="HelveticaNeue,Helvetica Neue" font-size="61.0" fill="#FEFFFF" transform="matrix(1.00, 0.00, -0.00, -1.00, 297.6, 5.0)">n</text><text xml:space="preserve" font-family="HelveticaNeue,Helvetica Neue" font-size="61.0" fill="#FEFFFF" transform="matrix(1.00, 0.00, -0.00, -1.00, 331.5, 5.0)">t</text><text xml:space="preserve" font-family="HelveticaNeue,Helvetica Neue" font-size="61.0" fill="#FEFFFF" transform="matrix(1.00, 0.00, -0.00, -1.00, 350.8, 5.0)">a</text><text xml:space="preserve" font-family="HelveticaNeue,Helvetica Neue" font-size="61.0" fill="#FEFFFF" transform="matrix(1.00, 0.00, -0.00, -1.00, 383.5, 5.0)">t</text><text xml:space="preserve" font-family="HelveticaNeue,Helvetica Neue" font-size="61.0" fill="#FEFFFF" transform="matrix(1.00, 0.00, -0.00, -1.00, 402.7, 5.0)">i</text><text xml:space="preserve" font-family="HelveticaNeue,Helvetica Neue" font-size="61.0" fill="#FEFFFF" transform="matrix(1.00, 0.00, -0.00, -1.00, 416.3, 5.0)">o</text><text xml:space="preserve" font-family="HelveticaNeue,Helvetica Neue" font-size="61.0" fill="#FEFFFF" transform="matrix(1.00, 0.00, -0.00, -1.00, 451.3, 5.0)">n</text></g></svg>