<?xml version="1.0" encoding="UTF-8" standalone="no"?><svg xmlns="http://www.w3.org/2000/svg" xmlns:xlink="http://www.w3.org/1999/xlink" clip-rule="evenodd" stroke-miterlimit="10" viewBox="0 0 1092 390"><desc>SVG generated by Keynote</desc><defs></defs><g transform="matrix(1.00, 0.00, -0.00, -1.00, 0.0, 390.0)"><text xml:space="preserve" font-family="HelveticaNeue,Helvetica Neue" font-size="45.8" fill="#FEFFFF" transform="matrix(1.00, 0.00, -0.00, -1.00, 0.5, 345.9)">•</text><text xml:space="preserve" font-family="HelveticaNeue,Helvetica Neue" font-size="61.0" fill="#FEFFFF" transform="matrix(1.00, 0.00, -0.00, -1.00, 59.2, 340.3)">S</text><text xml:space="preserve" font-family="HelveticaNeue,Helvetica Neue" font-size="61.0" fill="#FEFFFF" transform="matrix(1.00, 0.00, -0.00, -1.00, 98.7, 340.3)">i</text><text xml:space="preserve" font-family="HelveticaNeue,Helvetica Neue" font-size="61.0" fill="#FEFFFF" transform="matrix(1.00, 0.00, -0.00, -1.00, 112.3, 340.3)">n</text><text xml:space="preserve" font-family="HelveticaNeue,Helvetica Neue" font-size="61.0" fill="#FEFFFF" transform="matrix(1.00, 0.00, -0.00, -1.00, 146.2, 340.3)">g</text><text xml:space="preserve" font-family="HelveticaNeue,Helvetica Neue" font-size="61.0" fill="#FEFFFF" transform="matrix(1.00, 0.00, -0.00, -1.00, 181.2, 340.3)">l</text><text xml:space="preserve" font-family="HelveticaNeue,Helvetica Neue" font-size="61.0" fill="#FEFFFF" transform="matrix(1.00, 0.00, -0.00, -1.00, 194.7, 340.3)">e</text><text xml:space="preserve" font-family="HelveticaNeue,Helvetica Neue" font-size="61.0" fill="#FEFFFF" transform="matrix(1.00, 0.00, -0.00, -1.00, 227.5, 340.3)">-</text><text xml:space="preserve" font-family="HelveticaNeue,Helvetica Neue" font-size="61.0" fill="#FEFFFF" transform="matrix(1.00, 0.00, -0.00, -1.00, 251.2, 340.3)">t</text><text xml:space="preserve" font-family="HelveticaNeue,Helvetica Neue" font-size="61.0" fill="#FEFFFF" transform="matrix(1.00, 0.00, -0.00, -1.00, 270.4, 340.3)">h</text><text xml:space="preserve" font-family="HelveticaNeue,Helvetica Neue" font-size="61.0" fill="#FEFFFF" transform="matrix(1.00, 0.00, -0.00, -1.00, 304.3, 340.3)">r</text><text xml:space="preserve" font-family="HelveticaNeue,Helvetica Neue" font-size="61.0" fill="#FEFFFF" transform="matrix(1.00, 0.00, -0.00, -1.00, 323.6, 340.3)">e</text><text xml:space="preserve" font-family="HelveticaNeue,Helvetica Neue" font-size="61.0" fill="#FEFFFF" transform="matrix(1.00, 0.00, -0.00, -1.00, 356.3, 340.3)">a</text><text xml:space="preserve" font-family="HelveticaNeue,Helvetica Neue" font-size="61.0" fill="#FEFFFF" transform="matrix(1.00, 0.00, -0.00, -1.00, 389.1, 340.3)">d</text><text xml:space="preserve" font-family="HelveticaNeue,Helvetica Neue" font-size="61.0" fill="#FEFFFF" transform="matrix(1.00, 0.00, -0.00, -1.00, 425.2, 340.3)">e</text><text xml:space="preserve" font-family="HelveticaNeue,Helvetica Neue" font-size="61.0" fill="#FEFFFF" transform="matrix(1.00, 0.00, -0.00, -1.00, 458.0, 340.3)">d</text><text xml:space="preserve" font-family="HelveticaNeue,Helvetica Neue" font-size="61.0" fill="#FEFFFF" transform="matrix(1.00, 0.00, -0.00, -1.00, 494.2, 340.3)">
</text><text xml:space="preserve" font-family="HelveticaNeue,Helvetica Neue" font-size="45.8" fill="#FEFFFF" transform="matrix(1.00, 0.00, -0.00, -1.00, 0.5, 237.2)">•</text><text xml:space="preserve" font-family="HelveticaNeue,Helvetica Neue" font-size="61.0" fill="#FEFFFF" transform="matrix(1.00, 0.00, -0.00, -1.00, 59.2, 231.7)">R</text><text xml:space="preserve" font-family="HelveticaNeue,Helvetica Neue" font-size="61.0" fill="#FEFFFF" transform="matrix(1.00, 0.00, -0.00, -1.00, 101.0, 231.7)">u</text><text xml:space="preserve" font-family="HelveticaNeue,Helvetica Neue" font-size="61.0" fill="#FEFFFF" transform="matrix(1.00, 0.00, -0.00, -1.00, 134.9, 231.7)">n</text><text xml:space="preserve" font-family="HelveticaNeue,Helvetica Neue" font-size="61.0" fill="#FEFFFF" transform="matrix(1.00, 0.00, -0.00, -1.00, 168.8, 231.7)"> </text><text xml:space="preserve" font-family="HelveticaNeue,Helvetica Neue" font-size="61.0" fill="#FEFFFF" transform="matrix(1.00, 0.00, -0.00, -1.00, 185.8, 231.7)">t</text><text xml:space="preserve" font-family="HelveticaNeue,Helvetica Neue" font-size="61.0" fill="#FEFFFF" transform="matrix(1.00, 0.00, -0.00, -1.00, 205.0, 231.7)">o</text><text xml:space="preserve" font-family="HelveticaNeue,Helvetica Neue" font-size="61.0" fill="#FEFFFF" transform="matrix(1.00, 0.00, -0.00, -1.00, 240.0, 231.7)"> </text><text xml:space="preserve" font-family="HelveticaNeue,Helvetica Neue" font-size="61.0" fill="#FEFFFF" transform="matrix(1.00, 0.00, -0.00, -1.00, 256.9, 231.7)">c</text><text xml:space="preserve" font-family="HelveticaNeue,Helvetica Neue" font-size="61.0" fill="#FEFFFF" transform="matrix(1.00, 0.00, -0.00, -1.00, 289.7, 231.7)">o</text><text xml:space="preserve" font-family="HelveticaNeue,Helvetica Neue" font-size="61.0" fill="#FEFFFF" transform="matrix(1.00, 0.00, -0.00, -1.00, 324.7, 231.7)">m</text><text xml:space="preserve" font-family="HelveticaNeue,Helvetica Neue" font-size="61.0" fill="#FEFFFF" transform="matrix(1.00, 0.00, -0.00, -1.00, 376.7, 231.7)">p</text><text xml:space="preserve" font-family="HelveticaNeue,Helvetica Neue" font-size="61.0" fill="#FEFFFF" transform="matrix(1.00, 0.00, -0.00, -1.00, 412.9, 231.7)">l</text><text xml:space="preserve" font-family="HelveticaNeue,Helvetica Neue" font-size="61.0" fill="#FEFFFF" transform="matrix(1.00, 0.00, -0.00, -1.00, 426.5, 231.7)">e</text><text xml:space="preserve" font-family="HelveticaNeue,Helvetica Neue" font-size="61.0" fill="#FEFFFF" transform="matrix(1.00, 0.00, -0.00, -1.00, 459.2, 231.7)">t</text><text xml:space="preserve" font-family="HelveticaNeue,Helvetica Neue" font-size="61.0" fill="#FEFFFF" transform="matrix(1.00, 0.00, -0.00, -1.00, 478.4, 231.7)">i</text><text xml:space="preserve" font-family="HelveticaNeue,Helvetica Neue" font-size="61.0" fill="#FEFFFF" transform="matrix(1.00, 0.00, -0.00, -1.00, 492.0, 231.7)">o</text><text xml:space="preserve" font-family="HelveticaNeue,Helvetica Neue" font-size="61.0" fill="#FEFFFF" transform="matrix(1.00, 0.00, -0.00, -1.00, 527.0, 231.7)">n</text><text xml:space="preserve" font-family="HelveticaNeue,Helvetica Neue" font-size="61.0" fill="#FEFFFF" transform="matrix(1.00, 0.00, -0.00, -1.00, 560.9, 231.7)"> </text><text xml:space="preserve" font-family="HelveticaNeue,Helvetica Neue" font-size="61.0" fill="#FEFFFF" transform="matrix(1.00, 0.00, -0.00, -1.00, 577.9, 231.7)">s</text><text xml:space="preserve" font-family="HelveticaNeue,Helvetica Neue" font-size="61.0" fill="#FEFFFF" transform="matrix(1.00, 0.00, -0.00, -1.00, 608.4, 231.7)">e</text><text xml:space="preserve" font-family="HelveticaNeue,Helvetica Neue" font-size="61.0" fill="#FEFFFF" transform="matrix(1.00, 0.00, -0.00, -1.00, 641.1, 231.7)">m</text><text xml:space="preserve" font-family="HelveticaNeue,Helvetica Neue" font-size="61.0" fill="#FEFFFF" transform="matrix(1.00, 0.00, -0.00, -1.00, 693.2, 231.7)">a</text><text xml:space="preserve" font-family="HelveticaNeue,Helvetica Neue" font-size="61.0" fill="#FEFFFF" transform="matrix(1.00, 0.00, -0.00, -1.00, 725.9, 231.7)">n</text><text xml:space="preserve" font-family="HelveticaNeue,Helvetica Neue" font-size="61.0" fill="#FEFFFF" transform="matrix(1.00, 0.00, -0.00, -1.00, 759.8, 231.7)">t</text><text xml:space="preserve" font-family="HelveticaNeue,Helvetica Neue" font-size="61.0" fill="#FEFFFF" transform="matrix(1.00, 0.00, -0.00, -1.00, 779.0, 231.7)">i</text><text xml:space="preserve" font-family="HelveticaNeue,Helvetica Neue" font-size="61.0" fill="#FEFFFF" transform="matrix(1.00, 0.00, -0.00, -1.00, 792.6, 231.7)">c</text><text xml:space="preserve" font-family="HelveticaNeue,Helvetica Neue" font-size="61.0" fill="#FEFFFF" transform="matrix(1.00, 0.00, -0.00, -1.00, 825.3, 231.7)">
</text><text xml:space="preserve" font-family="HelveticaNeue,Helvetica Neue" font-size="45.8" fill="#FEFFFF" transform="matrix(1.00, 0.00, -0.00, -1.00, 0.5, 128.6)">•</text><text xml:space="preserve" font-family="HelveticaNeue,Helvetica Neue" font-size="61.0" fill="#FEFFFF" transform="matrix(1.00, 0.00, -0.00, -1.00, 59.2, 123.0)">C</text><text xml:space="preserve" font-family="HelveticaNeue,Helvetica Neue" font-size="61.0" fill="#FEFFFF" transform="matrix(1.00, 0.00, -0.00, -1.00, 103.2, 123.0)">o</text><text xml:space="preserve" font-family="HelveticaNeue,Helvetica Neue" font-size="61.0" fill="#FEFFFF" transform="matrix(1.00, 0.00, -0.00, -1.00, 138.2, 123.0)">o</text><text xml:space="preserve" font-family="HelveticaNeue,Helvetica Neue" font-size="61.0" fill="#FEFFFF" transform="matrix(1.00, 0.00, -0.00, -1.00, 173.3, 123.0)">p</text><text xml:space="preserve" font-family="HelveticaNeue,Helvetica Neue" font-size="61.0" fill="#FEFFFF" transform="matrix(1.00, 0.00, -0.00, -1.00, 209.4, 123.0)">e</text><text xml:space="preserve" font-family="HelveticaNeue,Helvetica Neue" font-size="61.0" fill="#FEFFFF" transform="matrix(1.00, 0.00, -0.00, -1.00, 242.2, 123.0)">r</text><text xml:space="preserve" font-family="HelveticaNeue,Helvetica Neue" font-size="61.0" fill="#FEFFFF" transform="matrix(1.00, 0.00, -0.00, -1.00, 262.5, 123.0)">a</text><text xml:space="preserve" font-family="HelveticaNeue,Helvetica Neue" font-size="61.0" fill="#FEFFFF" transform="matrix(1.00, 0.00, -0.00, -1.00, 295.3, 123.0)">t</text><text xml:space="preserve" font-family="HelveticaNeue,Helvetica Neue" font-size="61.0" fill="#FEFFFF" transform="matrix(1.00, 0.00, -0.00, -1.00, 314.5, 123.0)">i</text><text xml:space="preserve" font-family="HelveticaNeue,Helvetica Neue" font-size="61.0" fill="#FEFFFF" transform="matrix(1.00, 0.00, -0.00, -1.00, 328.0, 123.0)">v</text><text xml:space="preserve" font-family="HelveticaNeue,Helvetica Neue" font-size="61.0" fill="#FEFFFF" transform="matrix(1.00, 0.00, -0.00, -1.00, 358.5, 123.0)">e</text><text xml:space="preserve" font-family="HelveticaNeue,Helvetica Neue" font-size="61.0" fill="#FEFFFF" transform="matrix(1.00, 0.00, -0.00, -1.00, 391.3, 123.0)"> </text><text xml:space="preserve" font-family="HelveticaNeue,Helvetica Neue" font-size="61.0" fill="#FEFFFF" transform="matrix(1.00, 0.00, -0.00, -1.00, 408.2, 123.0)">m</text><text xml:space="preserve" font-family="HelveticaNeue,Helvetica Neue" font-size="61.0" fill="#FEFFFF" transform="matrix(1.00, 0.00, -0.00, -1.00, 460.3, 123.0)">u</text><text xml:space="preserve" font-family="HelveticaNeue,Helvetica Neue" font-size="61.0" fill="#FEFFFF" transform="matrix(1.00, 0.00, -0.00, -1.00, 494.2, 123.0)">l</text><text xml:space="preserve" font-family="HelveticaNeue,Helvetica Neue" font-size="61.0" fill="#FEFFFF" transform="matrix(1.00, 0.00, -0.00, -1.00, 507.7, 123.0)">t</text><text xml:space="preserve" font-family="HelveticaNeue,Helvetica Neue" font-size="61.0" fill="#FEFFFF" transform="matrix(1.00, 0.00, -0.00, -1.00, 526.9, 123.0)">i</text><text xml:space="preserve" font-family="HelveticaNeue,Helvetica Neue" font-size="61.0" fill="#FEFFFF" transform="matrix(1.00, 0.00, -0.00, -1.00, 540.5, 123.0)">-</text><text xml:space="preserve" font-family="HelveticaNeue,Helvetica Neue" font-size="61.0" fill="#FEFFFF" transform="matrix(1.00, 0.00, -0.00, -1.00, 564.2, 123.0)">t</text><text xml:space="preserve" font-family="HelveticaNeue,Helvetica Neue" font-size="61.0" fill="#FEFFFF" transform="matrix(1.00, 0.00, -0.00, -1.00, 583.4, 123.0)">a</text><text xml:space="preserve" font-family="HelveticaNeue,Helvetica Neue" font-size="61.0" fill="#FEFFFF" transform="matrix(1.00, 0.00, -0.00, -1.00, 616.2, 123.0)">s</text><text xml:space="preserve" font-family="HelveticaNeue,Helvetica Neue" font-size="61.0" fill="#FEFFFF" transform="matrix(1.00, 0.00, -0.00, -1.00, 646.7, 123.0)">k</text><text xml:space="preserve" font-family="HelveticaNeue,Helvetica Neue" font-size="61.0" fill="#FEFFFF" transform="matrix(1.00, 0.00, -0.00, -1.00, 678.3, 123.0)">i</text><text xml:space="preserve" font-family="HelveticaNeue,Helvetica Neue" font-size="61.0" fill="#FEFFFF" transform="matrix(1.00, 0.00, -0.00, -1.00, 691.9, 123.0)">n</text><text xml:space="preserve" font-family="HelveticaNeue,Helvetica Neue" font-size="61.0" fill="#FEFFFF" transform="matrix(1.00, 0.00, -0.00, -1.00, 725.8, 123.0)">g</text><text xml:space="preserve" font-family="HelveticaNeue,Helvetica Neue" font-size="61.0" fill="#FEFFFF" transform="matrix(1.00, 0.00, -0.00, -1.00, 760.8, 123.0)">
</text><text xml:space="preserve" font-family="HelveticaNeue,Helvetica Neue" font-size="45.8" fill="#FEFFFF" transform="matrix(1.00, 0.00, -0.00, -1.00, 0.5, 19.9)">•</text><text xml:space="preserve" font-family="HelveticaNeue,Helvetica Neue" font-size="61.0" fill="#FEFFFF" transform="matrix(1.00, 0.00, -0.00, -1.00, 59.2, 14.4)">S</text><text xml:space="preserve" font-family="HelveticaNeue,Helvetica Neue" font-size="61.0" fill="#FEFFFF" transform="matrix(1.00, 0.00, -0.00, -1.00, 98.7, 14.4)">c</text><text xml:space="preserve" font-family="HelveticaNeue,Helvetica Neue" font-size="61.0" fill="#FEFFFF" transform="matrix(1.00, 0.00, -0.00, -1.00, 131.5, 14.4)">r</text><text xml:space="preserve" font-family="HelveticaNeue,Helvetica Neue" font-size="61.0" fill="#FEFFFF" transform="matrix(1.00, 0.00, -0.00, -1.00, 151.8, 14.4)">i</text><text xml:space="preserve" font-family="HelveticaNeue,Helvetica Neue" font-size="61.0" fill="#FEFFFF" transform="matrix(1.00, 0.00, -0.00, -1.00, 165.3, 14.4)">p</text><text xml:space="preserve" font-family="HelveticaNeue,Helvetica Neue" font-size="61.0" fill="#FEFFFF" transform="matrix(1.00, 0.00, -0.00, -1.00, 201.5, 14.4)">t</text><text xml:space="preserve" font-family="HelveticaNeue,Helvetica Neue" font-size="61.0" fill="#FEFFFF" transform="matrix(1.00, 0.00, -0.00, -1.00, 220.7, 14.4)"> </text><text xml:space="preserve" font-family="HelveticaNeue,Helvetica Neue" font-size="61.0" fill="#FEFFFF" transform="matrix(1.00, 0.00, -0.00, -1.00, 237.7, 14.4)">e</text><text xml:space="preserve" font-family="HelveticaNeue,Helvetica Neue" font-size="61.0" fill="#FEFFFF" transform="matrix(1.00, 0.00, -0.00, -1.00, 270.4, 14.4)">x</text><text xml:space="preserve" font-family="HelveticaNeue,Helvetica Neue" font-size="61.0" fill="#FEFFFF" transform="matrix(1.00, 0.00, -0.00, -1.00, 302.0, 14.4)">e</text><text xml:space="preserve" font-family="HelveticaNeue,Helvetica Neue" font-size="61.0" fill="#FEFFFF" transform="matrix(1.00, 0.00, -0.00, -1.00, 334.8, 14.4)">c</text><text xml:space="preserve" font-family="HelveticaNeue,Helvetica Neue" font-size="61.0" fill="#FEFFFF" transform="matrix(1.00, 0.00, -0.00, -1.00, 367.5, 14.4)">u</text><text xml:space="preserve" font-family="HelveticaNeue,Helvetica Neue" font-size="61.0" fill="#FEFFFF" transform="matrix(1.00, 0.00, -0.00, -1.00, 401.5, 14.4)">t</text><text xml:space="preserve" font-family="HelveticaNeue,Helvetica Neue" font-size="61.0" fill="#FEFFFF" transform="matrix(1.00, 0.00, -0.00, -1.00, 420.7, 14.4)">i</text><text xml:space="preserve" font-family="HelveticaNeue,Helvetica Neue" font-size="61.0" fill="#FEFFFF" transform="matrix(1.00, 0.00, -0.00, -1.00, 434.2, 14.4)">o</text><text xml:space="preserve" font-family="HelveticaNeue,Helvetica Neue" font-size="61.0" fill="#FEFFFF" transform="matrix(1.00, 0.00, -0.00, -1.00, 469.2, 14.4)">n</text><text xml:space="preserve" font-family="HelveticaNeue,Helvetica Neue" font-size="61.0" fill="#FEFFFF" transform="matrix(1.00, 0.00, -0.00, -1.00, 503.1, 14.4)"> </text><text xml:space="preserve" font-family="HelveticaNeue,Helvetica Neue" font-size="61.0" fill="#FEFFFF" transform="matrix(1.00, 0.00, -0.00, -1.00, 520.1, 14.4)">*</text><text xml:space="preserve" font-family="HelveticaNeue,Helvetica Neue" font-size="61.0" fill="#FEFFFF" transform="matrix(1.00, 0.00, -0.00, -1.00, 541.6, 14.4)">b</text><text xml:space="preserve" font-family="HelveticaNeue,Helvetica Neue" font-size="61.0" fill="#FEFFFF" transform="matrix(1.00, 0.00, -0.00, -1.00, 577.7, 14.4)">l</text><text xml:space="preserve" font-family="HelveticaNeue,Helvetica Neue" font-size="61.0" fill="#FEFFFF" transform="matrix(1.00, 0.00, -0.00, -1.00, 591.3, 14.4)">o</text><text xml:space="preserve" font-family="HelveticaNeue,Helvetica Neue" font-size="61.0" fill="#FEFFFF" transform="matrix(1.00, 0.00, -0.00, -1.00, 626.3, 14.4)">c</text><text xml:space="preserve" font-family="HelveticaNeue,Helvetica Neue" font-size="61.0" fill="#FEFFFF" transform="matrix(1.00, 0.00, -0.00, -1.00, 659.1, 14.4)">k</text><text xml:space="preserve" font-family="HelveticaNeue,Helvetica Neue" font-size="61.0" fill="#FEFFFF" transform="matrix(1.00, 0.00, -0.00, -1.00, 690.7, 14.4)">s</text><text xml:space="preserve" font-family="HelveticaNeue,Helvetica Neue" font-size="61.0" fill="#FEFFFF" transform="matrix(1.00, 0.00, -0.00, -1.00, 721.2, 14.4)">*</text><text xml:space="preserve" font-family="HelveticaNeue,Helvetica Neue" font-size="61.0" fill="#FEFFFF" transform="matrix(1.00, 0.00, -0.00, -1.00, 742.7, 14.4)"> </text><text xml:space="preserve" font-family="HelveticaNeue,Helvetica Neue" font-size="61.0" fill="#FEFFFF" transform="matrix(1.00, 0.00, -0.00, -1.00, 759.6, 14.4)">U</text><text xml:space="preserve" font-family="HelveticaNeue,Helvetica Neue" font-size="61.0" fill="#FEFFFF" transform="matrix(1.00, 0.00, -0.00, -1.00, 803.7, 14.4)">I</text><text xml:space="preserve" font-family="HelveticaNeue,Helvetica Neue" font-size="61.0" fill="#FEFFFF" transform="matrix(1.00, 0.00, -0.00, -1.00, 819.5, 14.4)"> </text><text xml:space="preserve" font-family="HelveticaNeue,Helvetica Neue" font-size="61.0" fill="#FEFFFF" transform="matrix(1.00, 0.00, -0.00, -1.00, 836.4, 14.4)">r</text><text xml:space="preserve" font-family="HelveticaNeue,Helvetica Neue" font-size="61.0" fill="#FEFFFF" transform="matrix(1.00, 0.00, -0.00, -1.00, 855.7, 14.4)">e</text><text xml:space="preserve" font-family="HelveticaNeue,Helvetica Neue" font-size="61.0" fill="#FEFFFF" transform="matrix(1.00, 0.00, -0.00, -1.00, 888.4, 14.4)">n</text><text xml:space="preserve" font-family="HelveticaNeue,Helvetica Neue" font-size="61.0" fill="#FEFFFF" transform="matrix(1.00, 0.00, -0.00, -1.00, 922.3, 14.4)">d</text><text xml:space="preserve" font-family="HelveticaNeue,Helvetica Neue" font-size="61.0" fill="#FEFFFF" transform="matrix(1.00, 0.00, -0.00, -1.00, 958.5, 14.4)">e</text><text xml:space="preserve" font-family="HelveticaNeue,Helvetica Neue" font-size="61.0" fill="#FEFFFF" transform="matrix(1.00, 0.00, -0.00, -1.00, 991.3, 14.4)">r</text><text xml:space="preserve" font-family="HelveticaNeue,Helvetica Neue" font-size="61.0" fill="#FEFFFF" transform="matrix(1.00, 0.00, -0.00, -1.00, 1011.6, 14.4)">i</text><text xml:space="preserve" font-family="HelveticaNeue,Helvetica Neue" font-size="61.0" fill="#FEFFFF" transform="matrix(1.00, 0.00, -0.00, -1.00, 1025.1, 14.4)">n</text><text xml:space="preserve" font-family="HelveticaNeue,Helvetica Neue" font-size="61.0" fill="#FEFFFF" transform="matrix(1.00, 0.00, -0.00, -1.00, 1059.0, 14.4)">g</text></g></svg>