<?xml version="1.0" encoding="UTF-8" standalone="no"?><svg xmlns="http://www.w3.org/2000/svg" xmlns:xlink="http://www.w3.org/1999/xlink" clip-rule="evenodd" stroke-miterlimit="10" viewBox="0 0 1920 1080"><desc>SVG generated by Keynote</desc><defs></defs><g transform="matrix(1.00, 0.00, -0.00, -1.00, 0.0, 1080.0)"><path d="M 0.0 1080.0 L 1920.0 1080.0 L 1920.0 0.0 L 0.0 0.0 Z M 0.0 1080.0 " fill="#000000"></path><g opacity="0.65"><g><clipPath id="clip0x608000ca6f00"><path d="M 822.0 494.0 L 1098.0 494.0 L 1098.0 586.0 L 822.0 586.0 Z M 822.0 494.0 "></path></clipPath><g clip-path="url(#clip0x608000ca6f00)"><text xml:space="preserve" font-family="HelveticaNeue-Bold,Helvetica Neue" font-weight="bold" font-size="70.0" fill="#FEFFFF" transform="matrix(1.00, 0.00, -0.00, -1.00, 826.6, 513.7)">C</text><text xml:space="preserve" font-family="HelveticaNeue-Bold,Helvetica Neue" font-weight="bold" font-size="70.0" fill="#FEFFFF" transform="matrix(1.00, 0.00, -0.00, -1.00, 878.5, 513.7)">h</text><text xml:space="preserve" font-family="HelveticaNeue-Bold,Helvetica Neue" font-weight="bold" font-size="70.0" fill="#FEFFFF" transform="matrix(1.00, 0.00, -0.00, -1.00, 920.0, 513.7)">r</text><text xml:space="preserve" font-family="HelveticaNeue-Bold,Helvetica Neue" font-weight="bold" font-size="70.0" fill="#FEFFFF" transform="matrix(1.00, 0.00, -0.00, -1.00, 946.0, 513.7)">o</text><text xml:space="preserve" font-family="HelveticaNeue-Bold,Helvetica Neue" font-weight="bold" font-size="70.0" fill="#FEFFFF" transform="matrix(1.00, 0.00, -0.00, -1.00, 988.8, 513.7)">m</text><text xml:space="preserve" font-family="HelveticaNeue-Bold,Helvetica Neue" font-weight="bold" font-size="70.0" fill="#FEFFFF" transform="matrix(1.00, 0.00, -0.00, -1.00, 1052.2, 513.7)">e</text></g></g></g></g></svg>