<?xml version="1.0" encoding="UTF-8" standalone="no"?><svg xmlns="http://www.w3.org/2000/svg" xmlns:xlink="http://www.w3.org/1999/xlink" clip-rule="evenodd" stroke-miterlimit="10" viewBox="0 0 1432 277"><desc>SVG generated by Keynote</desc><defs></defs><g transform="matrix(1.00, 0.00, -0.00, -1.00, 0.0, 277.0)"><text xml:space="preserve" font-family="HelveticaNeue-Italic,Helvetica Neue" font-style="italic" font-size="61.0" fill="#FEFFFF" transform="matrix(1.00, 0.00, -0.00, -1.00, 6.5, 232.0)">"</text><text xml:space="preserve" font-family="HelveticaNeue-Italic,Helvetica Neue" font-style="italic" font-size="61.0" fill="#FEFFFF" transform="matrix(1.00, 0.00, -0.00, -1.00, 32.5, 232.0)">A</text><text xml:space="preserve" font-family="HelveticaNeue-Italic,Helvetica Neue" font-style="italic" font-size="61.0" fill="#FEFFFF" transform="matrix(1.00, 0.00, -0.00, -1.00, 73.2, 232.0)"> </text><text xml:space="preserve" font-family="HelveticaNeue-Italic,Helvetica Neue" font-style="italic" font-size="61.0" fill="#FEFFFF" transform="matrix(1.00, 0.00, -0.00, -1.00, 90.2, 232.0)">s</text><text xml:space="preserve" font-family="HelveticaNeue-Italic,Helvetica Neue" font-style="italic" font-size="61.0" fill="#FEFFFF" transform="matrix(1.00, 0.00, -0.00, -1.00, 119.5, 232.0)">c</text><text xml:space="preserve" font-family="HelveticaNeue-Italic,Helvetica Neue" font-style="italic" font-size="61.0" fill="#FEFFFF" transform="matrix(1.00, 0.00, -0.00, -1.00, 152.3, 232.0)">r</text><text xml:space="preserve" font-family="HelveticaNeue-Italic,Helvetica Neue" font-style="italic" font-size="61.0" fill="#FEFFFF" transform="matrix(1.00, 0.00, -0.00, -1.00, 172.6, 232.0)">i</text><text xml:space="preserve" font-family="HelveticaNeue-Italic,Helvetica Neue" font-style="italic" font-size="61.0" fill="#FEFFFF" transform="matrix(1.00, 0.00, -0.00, -1.00, 186.1, 232.0)">p</text><text xml:space="preserve" font-family="HelveticaNeue-Italic,Helvetica Neue" font-style="italic" font-size="61.0" fill="#FEFFFF" transform="matrix(1.00, 0.00, -0.00, -1.00, 222.3, 232.0)">t</text><text xml:space="preserve" font-family="HelveticaNeue-Italic,Helvetica Neue" font-style="italic" font-size="61.0" fill="#FEFFFF" transform="matrix(1.00, 0.00, -0.00, -1.00, 241.5, 232.0)"> </text><text xml:space="preserve" font-family="HelveticaNeue-Italic,Helvetica Neue" font-style="italic" font-size="61.0" fill="#FEFFFF" transform="matrix(1.00, 0.00, -0.00, -1.00, 258.5, 232.0)">o</text><text xml:space="preserve" font-family="HelveticaNeue-Italic,Helvetica Neue" font-style="italic" font-size="61.0" fill="#FEFFFF" transform="matrix(1.00, 0.00, -0.00, -1.00, 293.5, 232.0)">n</text><text xml:space="preserve" font-family="HelveticaNeue-Italic,Helvetica Neue" font-style="italic" font-size="61.0" fill="#FEFFFF" transform="matrix(1.00, 0.00, -0.00, -1.00, 327.4, 232.0)"> </text><text xml:space="preserve" font-family="HelveticaNeue-Italic,Helvetica Neue" font-style="italic" font-size="61.0" fill="#FEFFFF" transform="matrix(1.00, 0.00, -0.00, -1.00, 344.3, 232.0)">t</text><text xml:space="preserve" font-family="HelveticaNeue-Italic,Helvetica Neue" font-style="italic" font-size="61.0" fill="#FEFFFF" transform="matrix(1.00, 0.00, -0.00, -1.00, 363.6, 232.0)">h</text><text xml:space="preserve" font-family="HelveticaNeue-Italic,Helvetica Neue" font-style="italic" font-size="61.0" fill="#FEFFFF" transform="matrix(1.00, 0.00, -0.00, -1.00, 397.5, 232.0)">i</text><text xml:space="preserve" font-family="HelveticaNeue-Italic,Helvetica Neue" font-style="italic" font-size="61.0" fill="#FEFFFF" transform="matrix(1.00, 0.00, -0.00, -1.00, 411.0, 232.0)">s</text><text xml:space="preserve" font-family="HelveticaNeue-Italic,Helvetica Neue" font-style="italic" font-size="61.0" fill="#FEFFFF" transform="matrix(1.00, 0.00, -0.00, -1.00, 440.4, 232.0)"> </text><text xml:space="preserve" font-family="HelveticaNeue-Italic,Helvetica Neue" font-style="italic" font-size="61.0" fill="#FEFFFF" transform="matrix(1.00, 0.00, -0.00, -1.00, 457.3, 232.0)">p</text><text xml:space="preserve" font-family="HelveticaNeue-Italic,Helvetica Neue" font-style="italic" font-size="61.0" fill="#FEFFFF" transform="matrix(1.00, 0.00, -0.00, -1.00, 493.5, 232.0)">a</text><text xml:space="preserve" font-family="HelveticaNeue-Italic,Helvetica Neue" font-style="italic" font-size="61.0" fill="#FEFFFF" transform="matrix(1.00, 0.00, -0.00, -1.00, 525.1, 232.0)">g</text><text xml:space="preserve" font-family="HelveticaNeue-Italic,Helvetica Neue" font-style="italic" font-size="61.0" fill="#FEFFFF" transform="matrix(1.00, 0.00, -0.00, -1.00, 560.2, 232.0)">e</text><text xml:space="preserve" font-family="HelveticaNeue-Italic,Helvetica Neue" font-style="italic" font-size="61.0" fill="#FEFFFF" transform="matrix(1.00, 0.00, -0.00, -1.00, 592.9, 232.0)"> </text><text xml:space="preserve" font-family="HelveticaNeue-Italic,Helvetica Neue" font-style="italic" font-size="61.0" fill="#FEFFFF" transform="matrix(1.00, 0.00, -0.00, -1.00, 609.9, 232.0)">m</text><text xml:space="preserve" font-family="HelveticaNeue-Italic,Helvetica Neue" font-style="italic" font-size="61.0" fill="#FEFFFF" transform="matrix(1.00, 0.00, -0.00, -1.00, 661.9, 232.0)">a</text><text xml:space="preserve" font-family="HelveticaNeue-Italic,Helvetica Neue" font-style="italic" font-size="61.0" fill="#FEFFFF" transform="matrix(1.00, 0.00, -0.00, -1.00, 693.5, 232.0)">y</text><text xml:space="preserve" font-family="HelveticaNeue-Italic,Helvetica Neue" font-style="italic" font-size="61.0" fill="#FEFFFF" transform="matrix(1.00, 0.00, -0.00, -1.00, 722.9, 232.0)"> </text><text xml:space="preserve" font-family="HelveticaNeue-Italic,Helvetica Neue" font-style="italic" font-size="61.0" fill="#FEFFFF" transform="matrix(1.00, 0.00, -0.00, -1.00, 739.8, 232.0)">b</text><text xml:space="preserve" font-family="HelveticaNeue-Italic,Helvetica Neue" font-style="italic" font-size="61.0" fill="#FEFFFF" transform="matrix(1.00, 0.00, -0.00, -1.00, 776.0, 232.0)">e</text><text xml:space="preserve" font-family="HelveticaNeue-Italic,Helvetica Neue" font-style="italic" font-size="61.0" fill="#FEFFFF" transform="matrix(1.00, 0.00, -0.00, -1.00, 808.7, 232.0)"> </text><text xml:space="preserve" font-family="HelveticaNeue-Italic,Helvetica Neue" font-style="italic" font-size="61.0" fill="#FEFFFF" transform="matrix(1.00, 0.00, -0.00, -1.00, 825.7, 232.0)">b</text><text xml:space="preserve" font-family="HelveticaNeue-Italic,Helvetica Neue" font-style="italic" font-size="61.0" fill="#FEFFFF" transform="matrix(1.00, 0.00, -0.00, -1.00, 861.9, 232.0)">u</text><text xml:space="preserve" font-family="HelveticaNeue-Italic,Helvetica Neue" font-style="italic" font-size="61.0" fill="#FEFFFF" transform="matrix(1.00, 0.00, -0.00, -1.00, 895.8, 232.0)">s</text><text xml:space="preserve" font-family="HelveticaNeue-Italic,Helvetica Neue" font-style="italic" font-size="61.0" fill="#FEFFFF" transform="matrix(1.00, 0.00, -0.00, -1.00, 925.1, 232.0)">y</text><text xml:space="preserve" font-family="HelveticaNeue-Italic,Helvetica Neue" font-style="italic" font-size="61.0" fill="#FEFFFF" transform="matrix(1.00, 0.00, -0.00, -1.00, 950.0, 232.0)">,</text><text xml:space="preserve" font-family="HelveticaNeue-Italic,Helvetica Neue" font-style="italic" font-size="61.0" fill="#FEFFFF" transform="matrix(1.00, 0.00, -0.00, -1.00, 966.9, 232.0)"> </text><text xml:space="preserve" font-family="HelveticaNeue-Italic,Helvetica Neue" font-style="italic" font-size="61.0" fill="#FEFFFF" transform="matrix(1.00, 0.00, -0.00, -1.00, 983.9, 232.0)">o</text><text xml:space="preserve" font-family="HelveticaNeue-Italic,Helvetica Neue" font-style="italic" font-size="61.0" fill="#FEFFFF" transform="matrix(1.00, 0.00, -0.00, -1.00, 1018.9, 232.0)">r</text><text xml:space="preserve" font-family="HelveticaNeue-Italic,Helvetica Neue" font-style="italic" font-size="61.0" fill="#FEFFFF" transform="matrix(1.00, 0.00, -0.00, -1.00, 1039.2, 232.0)"> </text><text xml:space="preserve" font-family="HelveticaNeue-Italic,Helvetica Neue" font-style="italic" font-size="61.0" fill="#FEFFFF" transform="matrix(1.00, 0.00, -0.00, -1.00, 1056.2, 232.0)">i</text><text xml:space="preserve" font-family="HelveticaNeue-Italic,Helvetica Neue" font-style="italic" font-size="61.0" fill="#FEFFFF" transform="matrix(1.00, 0.00, -0.00, -1.00, 1069.7, 232.0)">t</text><text xml:space="preserve" font-family="HelveticaNeue-Italic,Helvetica Neue" font-style="italic" font-size="61.0" fill="#FEFFFF" transform="matrix(1.00, 0.00, -0.00, -1.00, 1088.9, 232.0)"> </text><text xml:space="preserve" font-family="HelveticaNeue-Italic,Helvetica Neue" font-style="italic" font-size="61.0" fill="#FEFFFF" transform="matrix(1.00, 0.00, -0.00, -1.00, 1105.9, 232.0)">m</text><text xml:space="preserve" font-family="HelveticaNeue-Italic,Helvetica Neue" font-style="italic" font-size="61.0" fill="#FEFFFF" transform="matrix(1.00, 0.00, -0.00, -1.00, 1157.8, 232.0)">a</text><text xml:space="preserve" font-family="HelveticaNeue-Italic,Helvetica Neue" font-style="italic" font-size="61.0" fill="#FEFFFF" transform="matrix(1.00, 0.00, -0.00, -1.00, 1189.5, 232.0)">y</text><text xml:space="preserve" font-family="HelveticaNeue-Italic,Helvetica Neue" font-style="italic" font-size="61.0" fill="#FEFFFF" transform="matrix(1.00, 0.00, -0.00, -1.00, 1218.8, 232.0)"> </text><text xml:space="preserve" font-family="HelveticaNeue-Italic,Helvetica Neue" font-style="italic" font-size="61.0" fill="#FEFFFF" transform="matrix(1.00, 0.00, -0.00, -1.00, 1235.8, 232.0)">h</text><text xml:space="preserve" font-family="HelveticaNeue-Italic,Helvetica Neue" font-style="italic" font-size="61.0" fill="#FEFFFF" transform="matrix(1.00, 0.00, -0.00, -1.00, 1269.7, 232.0)">a</text><text xml:space="preserve" font-family="HelveticaNeue-Italic,Helvetica Neue" font-style="italic" font-size="61.0" fill="#FEFFFF" transform="matrix(1.00, 0.00, -0.00, -1.00, 1301.4, 232.0)">v</text><text xml:space="preserve" font-family="HelveticaNeue-Italic,Helvetica Neue" font-style="italic" font-size="61.0" fill="#FEFFFF" transform="matrix(1.00, 0.00, -0.00, -1.00, 1330.7, 232.0)">e</text><text xml:space="preserve" font-family="HelveticaNeue-Italic,Helvetica Neue" font-style="italic" font-size="61.0" fill="#FEFFFF" transform="matrix(1.00, 0.00, -0.00, -1.00, 1363.5, 232.0)"> </text><text xml:space="preserve" font-family="HelveticaNeue-Italic,Helvetica Neue" font-style="italic" font-size="61.0" fill="#FEFFFF" transform="matrix(1.00, 0.00, -0.00, -1.00, 6.5, 123.3)">s</text><text xml:space="preserve" font-family="HelveticaNeue-Italic,Helvetica Neue" font-style="italic" font-size="61.0" fill="#FEFFFF" transform="matrix(1.00, 0.00, -0.00, -1.00, 35.9, 123.3)">t</text><text xml:space="preserve" font-family="HelveticaNeue-Italic,Helvetica Neue" font-style="italic" font-size="61.0" fill="#FEFFFF" transform="matrix(1.00, 0.00, -0.00, -1.00, 55.1, 123.3)">o</text><text xml:space="preserve" font-family="HelveticaNeue-Italic,Helvetica Neue" font-style="italic" font-size="61.0" fill="#FEFFFF" transform="matrix(1.00, 0.00, -0.00, -1.00, 90.1, 123.3)">p</text><text xml:space="preserve" font-family="HelveticaNeue-Italic,Helvetica Neue" font-style="italic" font-size="61.0" fill="#FEFFFF" transform="matrix(1.00, 0.00, -0.00, -1.00, 126.3, 123.3)">p</text><text xml:space="preserve" font-family="HelveticaNeue-Italic,Helvetica Neue" font-style="italic" font-size="61.0" fill="#FEFFFF" transform="matrix(1.00, 0.00, -0.00, -1.00, 162.4, 123.3)">e</text><text xml:space="preserve" font-family="HelveticaNeue-Italic,Helvetica Neue" font-style="italic" font-size="61.0" fill="#FEFFFF" transform="matrix(1.00, 0.00, -0.00, -1.00, 195.2, 123.3)">d</text><text xml:space="preserve" font-family="HelveticaNeue-Italic,Helvetica Neue" font-style="italic" font-size="61.0" fill="#FEFFFF" transform="matrix(1.00, 0.00, -0.00, -1.00, 231.4, 123.3)"> </text><text xml:space="preserve" font-family="HelveticaNeue-Italic,Helvetica Neue" font-style="italic" font-size="61.0" fill="#FEFFFF" transform="matrix(1.00, 0.00, -0.00, -1.00, 248.3, 123.3)">r</text><text xml:space="preserve" font-family="HelveticaNeue-Italic,Helvetica Neue" font-style="italic" font-size="61.0" fill="#FEFFFF" transform="matrix(1.00, 0.00, -0.00, -1.00, 267.5, 123.3)">e</text><text xml:space="preserve" font-family="HelveticaNeue-Italic,Helvetica Neue" font-style="italic" font-size="61.0" fill="#FEFFFF" transform="matrix(1.00, 0.00, -0.00, -1.00, 300.3, 123.3)">s</text><text xml:space="preserve" font-family="HelveticaNeue-Italic,Helvetica Neue" font-style="italic" font-size="61.0" fill="#FEFFFF" transform="matrix(1.00, 0.00, -0.00, -1.00, 329.6, 123.3)">p</text><text xml:space="preserve" font-family="HelveticaNeue-Italic,Helvetica Neue" font-style="italic" font-size="61.0" fill="#FEFFFF" transform="matrix(1.00, 0.00, -0.00, -1.00, 365.8, 123.3)">o</text><text xml:space="preserve" font-family="HelveticaNeue-Italic,Helvetica Neue" font-style="italic" font-size="61.0" fill="#FEFFFF" transform="matrix(1.00, 0.00, -0.00, -1.00, 400.8, 123.3)">n</text><text xml:space="preserve" font-family="HelveticaNeue-Italic,Helvetica Neue" font-style="italic" font-size="61.0" fill="#FEFFFF" transform="matrix(1.00, 0.00, -0.00, -1.00, 434.7, 123.3)">d</text><text xml:space="preserve" font-family="HelveticaNeue-Italic,Helvetica Neue" font-style="italic" font-size="61.0" fill="#FEFFFF" transform="matrix(1.00, 0.00, -0.00, -1.00, 470.9, 123.3)">i</text><text xml:space="preserve" font-family="HelveticaNeue-Italic,Helvetica Neue" font-style="italic" font-size="61.0" fill="#FEFFFF" transform="matrix(1.00, 0.00, -0.00, -1.00, 484.5, 123.3)">n</text><text xml:space="preserve" font-family="HelveticaNeue-Italic,Helvetica Neue" font-style="italic" font-size="61.0" fill="#FEFFFF" transform="matrix(1.00, 0.00, -0.00, -1.00, 518.4, 123.3)">g</text><text xml:space="preserve" font-family="HelveticaNeue-Italic,Helvetica Neue" font-style="italic" font-size="61.0" fill="#FEFFFF" transform="matrix(1.00, 0.00, -0.00, -1.00, 553.4, 123.3)">.</text><text xml:space="preserve" font-family="HelveticaNeue-Italic,Helvetica Neue" font-style="italic" font-size="61.0" fill="#FEFFFF" transform="matrix(1.00, 0.00, -0.00, -1.00, 570.4, 123.3)"> </text><text xml:space="preserve" font-family="HelveticaNeue-Italic,Helvetica Neue" font-style="italic" font-size="61.0" fill="#FEFFFF" transform="matrix(1.00, 0.00, -0.00, -1.00, 587.3, 123.3)">Y</text><text xml:space="preserve" font-family="HelveticaNeue-Italic,Helvetica Neue" font-style="italic" font-size="61.0" fill="#FEFFFF" transform="matrix(1.00, 0.00, -0.00, -1.00, 617.8, 123.3)">o</text><text xml:space="preserve" font-family="HelveticaNeue-Italic,Helvetica Neue" font-style="italic" font-size="61.0" fill="#FEFFFF" transform="matrix(1.00, 0.00, -0.00, -1.00, 652.8, 123.3)">u</text><text xml:space="preserve" font-family="HelveticaNeue-Italic,Helvetica Neue" font-style="italic" font-size="61.0" fill="#FEFFFF" transform="matrix(1.00, 0.00, -0.00, -1.00, 686.7, 123.3)"> </text><text xml:space="preserve" font-family="HelveticaNeue-Italic,Helvetica Neue" font-style="italic" font-size="61.0" fill="#FEFFFF" transform="matrix(1.00, 0.00, -0.00, -1.00, 703.7, 123.3)">c</text><text xml:space="preserve" font-family="HelveticaNeue-Italic,Helvetica Neue" font-style="italic" font-size="61.0" fill="#FEFFFF" transform="matrix(1.00, 0.00, -0.00, -1.00, 736.5, 123.3)">a</text><text xml:space="preserve" font-family="HelveticaNeue-Italic,Helvetica Neue" font-style="italic" font-size="61.0" fill="#FEFFFF" transform="matrix(1.00, 0.00, -0.00, -1.00, 768.1, 123.3)">n</text><text xml:space="preserve" font-family="HelveticaNeue-Italic,Helvetica Neue" font-style="italic" font-size="61.0" fill="#FEFFFF" transform="matrix(1.00, 0.00, -0.00, -1.00, 802.0, 123.3)"> </text><text xml:space="preserve" font-family="HelveticaNeue-Italic,Helvetica Neue" font-style="italic" font-size="61.0" fill="#FEFFFF" transform="matrix(1.00, 0.00, -0.00, -1.00, 819.0, 123.3)">s</text><text xml:space="preserve" font-family="HelveticaNeue-Italic,Helvetica Neue" font-style="italic" font-size="61.0" fill="#FEFFFF" transform="matrix(1.00, 0.00, -0.00, -1.00, 848.3, 123.3)">t</text><text xml:space="preserve" font-family="HelveticaNeue-Italic,Helvetica Neue" font-style="italic" font-size="61.0" fill="#FEFFFF" transform="matrix(1.00, 0.00, -0.00, -1.00, 867.5, 123.3)">o</text><text xml:space="preserve" font-family="HelveticaNeue-Italic,Helvetica Neue" font-style="italic" font-size="61.0" fill="#FEFFFF" transform="matrix(1.00, 0.00, -0.00, -1.00, 902.6, 123.3)">p</text><text xml:space="preserve" font-family="HelveticaNeue-Italic,Helvetica Neue" font-style="italic" font-size="61.0" fill="#FEFFFF" transform="matrix(1.00, 0.00, -0.00, -1.00, 938.7, 123.3)"> </text><text xml:space="preserve" font-family="HelveticaNeue-Italic,Helvetica Neue" font-style="italic" font-size="61.0" fill="#FEFFFF" transform="matrix(1.00, 0.00, -0.00, -1.00, 955.7, 123.3)">t</text><text xml:space="preserve" font-family="HelveticaNeue-Italic,Helvetica Neue" font-style="italic" font-size="61.0" fill="#FEFFFF" transform="matrix(1.00, 0.00, -0.00, -1.00, 974.9, 123.3)">h</text><text xml:space="preserve" font-family="HelveticaNeue-Italic,Helvetica Neue" font-style="italic" font-size="61.0" fill="#FEFFFF" transform="matrix(1.00, 0.00, -0.00, -1.00, 1008.8, 123.3)">e</text><text xml:space="preserve" font-family="HelveticaNeue-Italic,Helvetica Neue" font-style="italic" font-size="61.0" fill="#FEFFFF" transform="matrix(1.00, 0.00, -0.00, -1.00, 1041.6, 123.3)"> </text><text xml:space="preserve" font-family="HelveticaNeue-Italic,Helvetica Neue" font-style="italic" font-size="61.0" fill="#FEFFFF" transform="matrix(1.00, 0.00, -0.00, -1.00, 1058.5, 123.3)">s</text><text xml:space="preserve" font-family="HelveticaNeue-Italic,Helvetica Neue" font-style="italic" font-size="61.0" fill="#FEFFFF" transform="matrix(1.00, 0.00, -0.00, -1.00, 1087.9, 123.3)">c</text><text xml:space="preserve" font-family="HelveticaNeue-Italic,Helvetica Neue" font-style="italic" font-size="61.0" fill="#FEFFFF" transform="matrix(1.00, 0.00, -0.00, -1.00, 1120.6, 123.3)">r</text><text xml:space="preserve" font-family="HelveticaNeue-Italic,Helvetica Neue" font-style="italic" font-size="61.0" fill="#FEFFFF" transform="matrix(1.00, 0.00, -0.00, -1.00, 1140.9, 123.3)">i</text><text xml:space="preserve" font-family="HelveticaNeue-Italic,Helvetica Neue" font-style="italic" font-size="61.0" fill="#FEFFFF" transform="matrix(1.00, 0.00, -0.00, -1.00, 1154.5, 123.3)">p</text><text xml:space="preserve" font-family="HelveticaNeue-Italic,Helvetica Neue" font-style="italic" font-size="61.0" fill="#FEFFFF" transform="matrix(1.00, 0.00, -0.00, -1.00, 1190.7, 123.3)">t</text><text xml:space="preserve" font-family="HelveticaNeue-Italic,Helvetica Neue" font-style="italic" font-size="61.0" fill="#FEFFFF" transform="matrix(1.00, 0.00, -0.00, -1.00, 1209.9, 123.3)"> </text><text xml:space="preserve" font-family="HelveticaNeue-Italic,Helvetica Neue" font-style="italic" font-size="61.0" fill="#FEFFFF" transform="matrix(1.00, 0.00, -0.00, -1.00, 1226.8, 123.3)">n</text><text xml:space="preserve" font-family="HelveticaNeue-Italic,Helvetica Neue" font-style="italic" font-size="61.0" fill="#FEFFFF" transform="matrix(1.00, 0.00, -0.00, -1.00, 1260.7, 123.3)">o</text><text xml:space="preserve" font-family="HelveticaNeue-Italic,Helvetica Neue" font-style="italic" font-size="61.0" fill="#FEFFFF" transform="matrix(1.00, 0.00, -0.00, -1.00, 1295.8, 123.3)">w</text><text xml:space="preserve" font-family="HelveticaNeue-Italic,Helvetica Neue" font-style="italic" font-size="61.0" fill="#FEFFFF" transform="matrix(1.00, 0.00, -0.00, -1.00, 1338.7, 123.3)">,</text><text xml:space="preserve" font-family="HelveticaNeue-Italic,Helvetica Neue" font-style="italic" font-size="61.0" fill="#FEFFFF" transform="matrix(1.00, 0.00, -0.00, -1.00, 1355.7, 123.3)"> </text><text xml:space="preserve" font-family="HelveticaNeue-Italic,Helvetica Neue" font-style="italic" font-size="61.0" fill="#FEFFFF" transform="matrix(1.00, 0.00, -0.00, -1.00, 1372.6, 123.3)">o</text><text xml:space="preserve" font-family="HelveticaNeue-Italic,Helvetica Neue" font-style="italic" font-size="61.0" fill="#FEFFFF" transform="matrix(1.00, 0.00, -0.00, -1.00, 1407.6, 123.3)">r</text><text xml:space="preserve" font-family="HelveticaNeue-Italic,Helvetica Neue" font-style="italic" font-size="61.0" fill="#FEFFFF" transform="matrix(1.00, 0.00, -0.00, -1.00, 1427.9, 123.3)"> </text><text xml:space="preserve" font-family="HelveticaNeue-Italic,Helvetica Neue" font-style="italic" font-size="61.0" fill="#FEFFFF" transform="matrix(1.00, 0.00, -0.00, -1.00, 6.5, 14.7)">y</text><text xml:space="preserve" font-family="HelveticaNeue-Italic,Helvetica Neue" font-style="italic" font-size="61.0" fill="#FEFFFF" transform="matrix(1.00, 0.00, -0.00, -1.00, 35.9, 14.7)">o</text><text xml:space="preserve" font-family="HelveticaNeue-Italic,Helvetica Neue" font-style="italic" font-size="61.0" fill="#FEFFFF" transform="matrix(1.00, 0.00, -0.00, -1.00, 70.9, 14.7)">u</text><text xml:space="preserve" font-family="HelveticaNeue-Italic,Helvetica Neue" font-style="italic" font-size="61.0" fill="#FEFFFF" transform="matrix(1.00, 0.00, -0.00, -1.00, 104.8, 14.7)"> </text><text xml:space="preserve" font-family="HelveticaNeue-Italic,Helvetica Neue" font-style="italic" font-size="61.0" fill="#FEFFFF" transform="matrix(1.00, 0.00, -0.00, -1.00, 121.8, 14.7)">c</text><text xml:space="preserve" font-family="HelveticaNeue-Italic,Helvetica Neue" font-style="italic" font-size="61.0" fill="#FEFFFF" transform="matrix(1.00, 0.00, -0.00, -1.00, 154.5, 14.7)">a</text><text xml:space="preserve" font-family="HelveticaNeue-Italic,Helvetica Neue" font-style="italic" font-size="61.0" fill="#FEFFFF" transform="matrix(1.00, 0.00, -0.00, -1.00, 186.2, 14.7)">n</text><text xml:space="preserve" font-family="HelveticaNeue-Italic,Helvetica Neue" font-style="italic" font-size="61.0" fill="#FEFFFF" transform="matrix(1.00, 0.00, -0.00, -1.00, 220.1, 14.7)"> </text><text xml:space="preserve" font-family="HelveticaNeue-Italic,Helvetica Neue" font-style="italic" font-size="61.0" fill="#FEFFFF" transform="matrix(1.00, 0.00, -0.00, -1.00, 237.0, 14.7)">c</text><text xml:space="preserve" font-family="HelveticaNeue-Italic,Helvetica Neue" font-style="italic" font-size="61.0" fill="#FEFFFF" transform="matrix(1.00, 0.00, -0.00, -1.00, 269.8, 14.7)">o</text><text xml:space="preserve" font-family="HelveticaNeue-Italic,Helvetica Neue" font-style="italic" font-size="61.0" fill="#FEFFFF" transform="matrix(1.00, 0.00, -0.00, -1.00, 304.8, 14.7)">n</text><text xml:space="preserve" font-family="HelveticaNeue-Italic,Helvetica Neue" font-style="italic" font-size="61.0" fill="#FEFFFF" transform="matrix(1.00, 0.00, -0.00, -1.00, 338.7, 14.7)">t</text><text xml:space="preserve" font-family="HelveticaNeue-Italic,Helvetica Neue" font-style="italic" font-size="61.0" fill="#FEFFFF" transform="matrix(1.00, 0.00, -0.00, -1.00, 357.9, 14.7)">i</text><text xml:space="preserve" font-family="HelveticaNeue-Italic,Helvetica Neue" font-style="italic" font-size="61.0" fill="#FEFFFF" transform="matrix(1.00, 0.00, -0.00, -1.00, 371.5, 14.7)">n</text><text xml:space="preserve" font-family="HelveticaNeue-Italic,Helvetica Neue" font-style="italic" font-size="61.0" fill="#FEFFFF" transform="matrix(1.00, 0.00, -0.00, -1.00, 405.4, 14.7)">u</text><text xml:space="preserve" font-family="HelveticaNeue-Italic,Helvetica Neue" font-style="italic" font-size="61.0" fill="#FEFFFF" transform="matrix(1.00, 0.00, -0.00, -1.00, 439.3, 14.7)">e</text><text xml:space="preserve" font-family="HelveticaNeue-Italic,Helvetica Neue" font-style="italic" font-size="61.0" fill="#FEFFFF" transform="matrix(1.00, 0.00, -0.00, -1.00, 472.1, 14.7)"> </text><text xml:space="preserve" font-family="HelveticaNeue-Italic,Helvetica Neue" font-style="italic" font-size="61.0" fill="#FEFFFF" transform="matrix(1.00, 0.00, -0.00, -1.00, 489.0, 14.7)">t</text><text xml:space="preserve" font-family="HelveticaNeue-Italic,Helvetica Neue" font-style="italic" font-size="61.0" fill="#FEFFFF" transform="matrix(1.00, 0.00, -0.00, -1.00, 508.3, 14.7)">o</text><text xml:space="preserve" font-family="HelveticaNeue-Italic,Helvetica Neue" font-style="italic" font-size="61.0" fill="#FEFFFF" transform="matrix(1.00, 0.00, -0.00, -1.00, 543.3, 14.7)"> </text><text xml:space="preserve" font-family="HelveticaNeue-Italic,Helvetica Neue" font-style="italic" font-size="61.0" fill="#FEFFFF" transform="matrix(1.00, 0.00, -0.00, -1.00, 560.2, 14.7)">s</text><text xml:space="preserve" font-family="HelveticaNeue-Italic,Helvetica Neue" font-style="italic" font-size="61.0" fill="#FEFFFF" transform="matrix(1.00, 0.00, -0.00, -1.00, 589.6, 14.7)">e</text><text xml:space="preserve" font-family="HelveticaNeue-Italic,Helvetica Neue" font-style="italic" font-size="61.0" fill="#FEFFFF" transform="matrix(1.00, 0.00, -0.00, -1.00, 622.3, 14.7)">e</text><text xml:space="preserve" font-family="HelveticaNeue-Italic,Helvetica Neue" font-style="italic" font-size="61.0" fill="#FEFFFF" transform="matrix(1.00, 0.00, -0.00, -1.00, 655.1, 14.7)"> </text><text xml:space="preserve" font-family="HelveticaNeue-Italic,Helvetica Neue" font-style="italic" font-size="61.0" fill="#FEFFFF" transform="matrix(1.00, 0.00, -0.00, -1.00, 672.0, 14.7)">i</text><text xml:space="preserve" font-family="HelveticaNeue-Italic,Helvetica Neue" font-style="italic" font-size="61.0" fill="#FEFFFF" transform="matrix(1.00, 0.00, -0.00, -1.00, 685.6, 14.7)">f</text><text xml:space="preserve" font-family="HelveticaNeue-Italic,Helvetica Neue" font-style="italic" font-size="61.0" fill="#FEFFFF" transform="matrix(1.00, 0.00, -0.00, -1.00, 703.6, 14.7)"> </text><text xml:space="preserve" font-family="HelveticaNeue-Italic,Helvetica Neue" font-style="italic" font-size="61.0" fill="#FEFFFF" transform="matrix(1.00, 0.00, -0.00, -1.00, 720.6, 14.7)">t</text><text xml:space="preserve" font-family="HelveticaNeue-Italic,Helvetica Neue" font-style="italic" font-size="61.0" fill="#FEFFFF" transform="matrix(1.00, 0.00, -0.00, -1.00, 739.8, 14.7)">h</text><text xml:space="preserve" font-family="HelveticaNeue-Italic,Helvetica Neue" font-style="italic" font-size="61.0" fill="#FEFFFF" transform="matrix(1.00, 0.00, -0.00, -1.00, 773.7, 14.7)">e</text><text xml:space="preserve" font-family="HelveticaNeue-Italic,Helvetica Neue" font-style="italic" font-size="61.0" fill="#FEFFFF" transform="matrix(1.00, 0.00, -0.00, -1.00, 806.5, 14.7)"> </text><text xml:space="preserve" font-family="HelveticaNeue-Italic,Helvetica Neue" font-style="italic" font-size="61.0" fill="#FEFFFF" transform="matrix(1.00, 0.00, -0.00, -1.00, 823.4, 14.7)">s</text><text xml:space="preserve" font-family="HelveticaNeue-Italic,Helvetica Neue" font-style="italic" font-size="61.0" fill="#FEFFFF" transform="matrix(1.00, 0.00, -0.00, -1.00, 852.8, 14.7)">c</text><text xml:space="preserve" font-family="HelveticaNeue-Italic,Helvetica Neue" font-style="italic" font-size="61.0" fill="#FEFFFF" transform="matrix(1.00, 0.00, -0.00, -1.00, 885.5, 14.7)">r</text><text xml:space="preserve" font-family="HelveticaNeue-Italic,Helvetica Neue" font-style="italic" font-size="61.0" fill="#FEFFFF" transform="matrix(1.00, 0.00, -0.00, -1.00, 905.9, 14.7)">i</text><text xml:space="preserve" font-family="HelveticaNeue-Italic,Helvetica Neue" font-style="italic" font-size="61.0" fill="#FEFFFF" transform="matrix(1.00, 0.00, -0.00, -1.00, 919.4, 14.7)">p</text><text xml:space="preserve" font-family="HelveticaNeue-Italic,Helvetica Neue" font-style="italic" font-size="61.0" fill="#FEFFFF" transform="matrix(1.00, 0.00, -0.00, -1.00, 955.6, 14.7)">t</text><text xml:space="preserve" font-family="HelveticaNeue-Italic,Helvetica Neue" font-style="italic" font-size="61.0" fill="#FEFFFF" transform="matrix(1.00, 0.00, -0.00, -1.00, 974.8, 14.7)"> </text><text xml:space="preserve" font-family="HelveticaNeue-Italic,Helvetica Neue" font-style="italic" font-size="61.0" fill="#FEFFFF" transform="matrix(1.00, 0.00, -0.00, -1.00, 991.7, 14.7)">w</text><text xml:space="preserve" font-family="HelveticaNeue-Italic,Helvetica Neue" font-style="italic" font-size="61.0" fill="#FEFFFF" transform="matrix(1.00, 0.00, -0.00, -1.00, 1038.0, 14.7)">i</text><text xml:space="preserve" font-family="HelveticaNeue-Italic,Helvetica Neue" font-style="italic" font-size="61.0" fill="#FEFFFF" transform="matrix(1.00, 0.00, -0.00, -1.00, 1051.6, 14.7)">l</text><text xml:space="preserve" font-family="HelveticaNeue-Italic,Helvetica Neue" font-style="italic" font-size="61.0" fill="#FEFFFF" transform="matrix(1.00, 0.00, -0.00, -1.00, 1065.1, 14.7)">l</text><text xml:space="preserve" font-family="HelveticaNeue-Italic,Helvetica Neue" font-style="italic" font-size="61.0" fill="#FEFFFF" transform="matrix(1.00, 0.00, -0.00, -1.00, 1078.7, 14.7)"> </text><text xml:space="preserve" font-family="HelveticaNeue-Italic,Helvetica Neue" font-style="italic" font-size="61.0" fill="#FEFFFF" transform="matrix(1.00, 0.00, -0.00, -1.00, 1095.6, 14.7)">c</text><text xml:space="preserve" font-family="HelveticaNeue-Italic,Helvetica Neue" font-style="italic" font-size="61.0" fill="#FEFFFF" transform="matrix(1.00, 0.00, -0.00, -1.00, 1128.4, 14.7)">o</text><text xml:space="preserve" font-family="HelveticaNeue-Italic,Helvetica Neue" font-style="italic" font-size="61.0" fill="#FEFFFF" transform="matrix(1.00, 0.00, -0.00, -1.00, 1163.4, 14.7)">m</text><text xml:space="preserve" font-family="HelveticaNeue-Italic,Helvetica Neue" font-style="italic" font-size="61.0" fill="#FEFFFF" transform="matrix(1.00, 0.00, -0.00, -1.00, 1215.4, 14.7)">p</text><text xml:space="preserve" font-family="HelveticaNeue-Italic,Helvetica Neue" font-style="italic" font-size="61.0" fill="#FEFFFF" transform="matrix(1.00, 0.00, -0.00, -1.00, 1251.5, 14.7)">l</text><text xml:space="preserve" font-family="HelveticaNeue-Italic,Helvetica Neue" font-style="italic" font-size="61.0" fill="#FEFFFF" transform="matrix(1.00, 0.00, -0.00, -1.00, 1265.1, 14.7)">e</text><text xml:space="preserve" font-family="HelveticaNeue-Italic,Helvetica Neue" font-style="italic" font-size="61.0" fill="#FEFFFF" transform="matrix(1.00, 0.00, -0.00, -1.00, 1297.8, 14.7)">t</text><text xml:space="preserve" font-family="HelveticaNeue-Italic,Helvetica Neue" font-style="italic" font-size="61.0" fill="#FEFFFF" transform="matrix(1.00, 0.00, -0.00, -1.00, 1317.1, 14.7)">e</text><text xml:space="preserve" font-family="HelveticaNeue-Italic,Helvetica Neue" font-style="italic" font-size="61.0" fill="#FEFFFF" transform="matrix(1.00, 0.00, -0.00, -1.00, 1349.8, 14.7)">.</text><text xml:space="preserve" font-family="HelveticaNeue-Italic,Helvetica Neue" font-style="italic" font-size="61.0" fill="#FEFFFF" transform="matrix(1.00, 0.00, -0.00, -1.00, 1366.8, 14.7)">"</text><text xml:space="preserve" font-family="HelveticaNeue-Italic,Helvetica Neue" font-style="italic" font-size="61.0" fill="#FEFFFF" transform="matrix(1.00, 0.00, -0.00, -1.00, 1392.8, 14.7)"> </text></g></svg>