<?xml version="1.0" encoding="UTF-8" standalone="no"?><svg xmlns="http://www.w3.org/2000/svg" xmlns:xlink="http://www.w3.org/1999/xlink" clip-rule="evenodd" stroke-miterlimit="10" viewBox="0 0 1920 1080"><desc>SVG generated by Keynote</desc><defs></defs><g transform="matrix(1.00, 0.00, -0.00, -1.00, 0.0, 1080.0)"><path d="M 0.0 1080.0 L 1920.0 1080.0 L 1920.0 0.0 L 0.0 0.0 Z M 0.0 1080.0 " fill="#000000"></path><g opacity="0.22"><g><clipPath id="clip0x6180012ad1a0"><path d="M 64.0 0.0 L 630.0 0.0 L 630.0 1080.0 L 64.0 1080.0 Z M 64.0 0.0 "></path></clipPath><g clip-path="url(#clip0x6180012ad1a0)"><text xml:space="preserve" font-family="HelveticaNeue-Bold,Helvetica Neue" font-weight="bold" font-size="1000.0" fill="#FEFFFF" transform="matrix(1.00, 0.00, -0.00, -1.00, 68.8, 161.0)">2</text></g></g></g><text xml:space="preserve" font-family="HelveticaNeue-Bold,Helvetica Neue" font-weight="bold" font-size="100.0" fill="#FEFFFF" transform="matrix(1.00, 0.00, -0.00, -1.00, 469.5, 501.6)">I</text><text xml:space="preserve" font-family="HelveticaNeue-Bold,Helvetica Neue" font-weight="bold" font-size="100.0" fill="#FEFFFF" transform="matrix(1.00, 0.00, -0.00, -1.00, 499.0, 501.6)">d</text><text xml:space="preserve" font-family="HelveticaNeue-Bold,Helvetica Neue" font-weight="bold" font-size="100.0" fill="#FEFFFF" transform="matrix(1.00, 0.00, -0.00, -1.00, 560.1, 501.6)">e</text><text xml:space="preserve" font-family="HelveticaNeue-Bold,Helvetica Neue" font-weight="bold" font-size="100.0" fill="#FEFFFF" transform="matrix(1.00, 0.00, -0.00, -1.00, 617.5, 501.6)">n</text><text xml:space="preserve" font-family="HelveticaNeue-Bold,Helvetica Neue" font-weight="bold" font-size="100.0" fill="#FEFFFF" transform="matrix(1.00, 0.00, -0.00, -1.00, 676.8, 501.6)">t</text><text xml:space="preserve" font-family="HelveticaNeue-Bold,Helvetica Neue" font-weight="bold" font-size="100.0" fill="#FEFFFF" transform="matrix(1.00, 0.00, -0.00, -1.00, 712.0, 501.6)">i</text><text xml:space="preserve" font-family="HelveticaNeue-Bold,Helvetica Neue" font-weight="bold" font-size="100.0" fill="#FEFFFF" transform="matrix(1.00, 0.00, -0.00, -1.00, 737.8, 501.6)">f</text><text xml:space="preserve" font-family="HelveticaNeue-Bold,Helvetica Neue" font-weight="bold" font-size="100.0" fill="#FEFFFF" transform="matrix(1.00, 0.00, -0.00, -1.00, 771.1, 501.6)">y</text><text xml:space="preserve" font-family="HelveticaNeue-Bold,Helvetica Neue" font-weight="bold" font-size="100.0" fill="#FEFFFF" transform="matrix(1.00, 0.00, -0.00, -1.00, 823.0, 501.6)">i</text><text xml:space="preserve" font-family="HelveticaNeue-Bold,Helvetica Neue" font-weight="bold" font-size="100.0" fill="#FEFFFF" transform="matrix(1.00, 0.00, -0.00, -1.00, 848.8, 501.6)">n</text><text xml:space="preserve" font-family="HelveticaNeue-Bold,Helvetica Neue" font-weight="bold" font-size="100.0" fill="#FEFFFF" transform="matrix(1.00, 0.00, -0.00, -1.00, 908.1, 501.6)">g</text><text xml:space="preserve" font-family="HelveticaNeue-Bold,Helvetica Neue" font-weight="bold" font-size="100.0" fill="#FEFFFF" transform="matrix(1.00, 0.00, -0.00, -1.00, 969.2, 501.6)"> </text><text xml:space="preserve" font-family="HelveticaNeue-Bold,Helvetica Neue" font-weight="bold" font-size="100.0" fill="#FEFFFF" transform="matrix(1.00, 0.00, -0.00, -1.00, 997.0, 501.6)">P</text><text xml:space="preserve" font-family="HelveticaNeue-Bold,Helvetica Neue" font-weight="bold" font-size="100.0" fill="#FEFFFF" transform="matrix(1.00, 0.00, -0.00, -1.00, 1063.7, 501.6)">r</text><text xml:space="preserve" font-family="HelveticaNeue-Bold,Helvetica Neue" font-weight="bold" font-size="100.0" fill="#FEFFFF" transform="matrix(1.00, 0.00, -0.00, -1.00, 1100.8, 501.6)">o</text><text xml:space="preserve" font-family="HelveticaNeue-Bold,Helvetica Neue" font-weight="bold" font-size="100.0" fill="#FEFFFF" transform="matrix(1.00, 0.00, -0.00, -1.00, 1161.9, 501.6)">b</text><text xml:space="preserve" font-family="HelveticaNeue-Bold,Helvetica Neue" font-weight="bold" font-size="100.0" fill="#FEFFFF" transform="matrix(1.00, 0.00, -0.00, -1.00, 1223.0, 501.6)">l</text><text xml:space="preserve" font-family="HelveticaNeue-Bold,Helvetica Neue" font-weight="bold" font-size="100.0" fill="#FEFFFF" transform="matrix(1.00, 0.00, -0.00, -1.00, 1248.8, 501.6)">e</text><text xml:space="preserve" font-family="HelveticaNeue-Bold,Helvetica Neue" font-weight="bold" font-size="100.0" fill="#FEFFFF" transform="matrix(1.00, 0.00, -0.00, -1.00, 1306.2, 501.6)">m</text><text xml:space="preserve" font-family="HelveticaNeue-Bold,Helvetica Neue" font-weight="bold" font-size="100.0" fill="#FEFFFF" transform="matrix(1.00, 0.00, -0.00, -1.00, 1396.8, 501.6)">s</text></g></svg>