<?xml version="1.0" encoding="UTF-8" standalone="no"?><svg xmlns="http://www.w3.org/2000/svg" xmlns:xlink="http://www.w3.org/1999/xlink" clip-rule="evenodd" stroke-miterlimit="10" viewBox="0 0 1023 68"><desc>SVG generated by Keynote</desc><defs></defs><g transform="matrix(1.00, 0.00, -0.00, -1.00, 0.0, 68.0)"><text xml:space="preserve" font-family="HelveticaNeue-Bold,Helvetica Neue" font-weight="bold" font-size="70.0" fill="#FEFFFF" transform="matrix(1.00, 0.00, -0.00, -1.00, 1.5, 16.1)">T</text><text xml:space="preserve" font-family="HelveticaNeue-Bold,Helvetica Neue" font-weight="bold" font-size="70.0" fill="#FEFFFF" transform="matrix(1.00, 0.00, -0.00, -1.00, 36.5, 16.1)">e</text><text xml:space="preserve" font-family="HelveticaNeue-Bold,Helvetica Neue" font-weight="bold" font-size="70.0" fill="#FEFFFF" transform="matrix(1.00, 0.00, -0.00, -1.00, 76.7, 16.1)">c</text><text xml:space="preserve" font-family="HelveticaNeue-Bold,Helvetica Neue" font-weight="bold" font-size="70.0" fill="#FEFFFF" transform="matrix(1.00, 0.00, -0.00, -1.00, 116.9, 16.1)">h</text><text xml:space="preserve" font-family="HelveticaNeue-Bold,Helvetica Neue" font-weight="bold" font-size="70.0" fill="#FEFFFF" transform="matrix(1.00, 0.00, -0.00, -1.00, 158.4, 16.1)">n</text><text xml:space="preserve" font-family="HelveticaNeue-Bold,Helvetica Neue" font-weight="bold" font-size="70.0" fill="#FEFFFF" transform="matrix(1.00, 0.00, -0.00, -1.00, 199.9, 16.1)">i</text><text xml:space="preserve" font-family="HelveticaNeue-Bold,Helvetica Neue" font-weight="bold" font-size="70.0" fill="#FEFFFF" transform="matrix(1.00, 0.00, -0.00, -1.00, 218.0, 16.1)">q</text><text xml:space="preserve" font-family="HelveticaNeue-Bold,Helvetica Neue" font-weight="bold" font-size="70.0" fill="#FEFFFF" transform="matrix(1.00, 0.00, -0.00, -1.00, 260.7, 16.1)">u</text><text xml:space="preserve" font-family="HelveticaNeue-Bold,Helvetica Neue" font-weight="bold" font-size="70.0" fill="#FEFFFF" transform="matrix(1.00, 0.00, -0.00, -1.00, 302.2, 16.1)">e</text><text xml:space="preserve" font-family="HelveticaNeue-Bold,Helvetica Neue" font-weight="bold" font-size="70.0" fill="#FEFFFF" transform="matrix(1.00, 0.00, -0.00, -1.00, 342.4, 16.1)">s</text><text xml:space="preserve" font-family="HelveticaNeue-Bold,Helvetica Neue" font-weight="bold" font-size="70.0" fill="#FEFFFF" transform="matrix(1.00, 0.00, -0.00, -1.00, 380.0, 16.1)"> </text><text xml:space="preserve" font-family="HelveticaNeue-Bold,Helvetica Neue" font-weight="bold" font-size="70.0" fill="#FEFFFF" transform="matrix(1.00, 0.00, -0.00, -1.00, 399.5, 16.1)">:</text><text xml:space="preserve" font-family="HelveticaNeue-Bold,Helvetica Neue" font-weight="bold" font-size="70.0" fill="#FEFFFF" transform="matrix(1.00, 0.00, -0.00, -1.00, 418.9, 16.1)"> </text><text xml:space="preserve" font-family="HelveticaNeue-Bold,Helvetica Neue" font-weight="bold" font-size="70.0" fill="#FEFFFF" transform="matrix(1.00, 0.00, -0.00, -1.00, 438.4, 16.1)">D</text><text xml:space="preserve" font-family="HelveticaNeue-Bold,Helvetica Neue" font-weight="bold" font-size="70.0" fill="#FEFFFF" transform="matrix(1.00, 0.00, -0.00, -1.00, 490.3, 16.1)">i</text><text xml:space="preserve" font-family="HelveticaNeue-Bold,Helvetica Neue" font-weight="bold" font-size="70.0" fill="#FEFFFF" transform="matrix(1.00, 0.00, -0.00, -1.00, 508.3, 16.1)">g</text><text xml:space="preserve" font-family="HelveticaNeue-Bold,Helvetica Neue" font-weight="bold" font-size="70.0" fill="#FEFFFF" transform="matrix(1.00, 0.00, -0.00, -1.00, 551.1, 16.1)">e</text><text xml:space="preserve" font-family="HelveticaNeue-Bold,Helvetica Neue" font-weight="bold" font-size="70.0" fill="#FEFFFF" transform="matrix(1.00, 0.00, -0.00, -1.00, 591.3, 16.1)">s</text><text xml:space="preserve" font-family="HelveticaNeue-Bold,Helvetica Neue" font-weight="bold" font-size="70.0" fill="#FEFFFF" transform="matrix(1.00, 0.00, -0.00, -1.00, 628.9, 16.1)">t</text><text xml:space="preserve" font-family="HelveticaNeue-Bold,Helvetica Neue" font-weight="bold" font-size="70.0" fill="#FEFFFF" transform="matrix(1.00, 0.00, -0.00, -1.00, 653.5, 16.1)">s</text><text xml:space="preserve" font-family="HelveticaNeue-Bold,Helvetica Neue" font-weight="bold" font-size="70.0" fill="#FEFFFF" transform="matrix(1.00, 0.00, -0.00, -1.00, 691.1, 16.1)"> </text><text xml:space="preserve" font-family="HelveticaNeue-Bold,Helvetica Neue" font-weight="bold" font-size="70.0" fill="#FEFFFF" transform="matrix(1.00, 0.00, -0.00, -1.00, 710.5, 16.1)">:</text><text xml:space="preserve" font-family="HelveticaNeue-Bold,Helvetica Neue" font-weight="bold" font-size="70.0" fill="#FEFFFF" transform="matrix(1.00, 0.00, -0.00, -1.00, 730.0, 16.1)"> </text><text xml:space="preserve" font-family="HelveticaNeue-Bold,Helvetica Neue" font-weight="bold" font-size="70.0" fill="#FEFFFF" transform="matrix(1.00, 0.00, -0.00, -1.00, 749.5, 16.1)">T</text><text xml:space="preserve" font-family="HelveticaNeue-Bold,Helvetica Neue" font-weight="bold" font-size="70.0" fill="#FEFFFF" transform="matrix(1.00, 0.00, -0.00, -1.00, 785.8, 16.1)">r</text><text xml:space="preserve" font-family="HelveticaNeue-Bold,Helvetica Neue" font-weight="bold" font-size="70.0" fill="#FEFFFF" transform="matrix(1.00, 0.00, -0.00, -1.00, 813.0, 16.1)">i</text><text xml:space="preserve" font-family="HelveticaNeue-Bold,Helvetica Neue" font-weight="bold" font-size="70.0" fill="#FEFFFF" transform="matrix(1.00, 0.00, -0.00, -1.00, 831.1, 16.1)">g</text><text xml:space="preserve" font-family="HelveticaNeue-Bold,Helvetica Neue" font-weight="bold" font-size="70.0" fill="#FEFFFF" transform="matrix(1.00, 0.00, -0.00, -1.00, 873.9, 16.1)">g</text><text xml:space="preserve" font-family="HelveticaNeue-Bold,Helvetica Neue" font-weight="bold" font-size="70.0" fill="#FEFFFF" transform="matrix(1.00, 0.00, -0.00, -1.00, 916.6, 16.1)">e</text><text xml:space="preserve" font-family="HelveticaNeue-Bold,Helvetica Neue" font-weight="bold" font-size="70.0" fill="#FEFFFF" transform="matrix(1.00, 0.00, -0.00, -1.00, 956.8, 16.1)">r</text><text xml:space="preserve" font-family="HelveticaNeue-Bold,Helvetica Neue" font-weight="bold" font-size="70.0" fill="#FEFFFF" transform="matrix(1.00, 0.00, -0.00, -1.00, 984.0, 16.1)">s</text></g></svg>