<?xml version="1.0" encoding="UTF-8" standalone="no"?><svg xmlns="http://www.w3.org/2000/svg" xmlns:xlink="http://www.w3.org/1999/xlink" clip-rule="evenodd" stroke-miterlimit="10" viewBox="0 0 1513 825"><desc>SVG generated by Keynote</desc><defs></defs><g transform="matrix(1.00, 0.00, -0.00, -1.00, 0.0, 825.0)"><text xml:space="preserve" font-family="HelveticaNeue,Helvetica Neue" font-size="45.8" fill="#FEFFFF" transform="matrix(1.00, 0.00, -0.00, -1.00, 0.5, 672.5)">•</text><text xml:space="preserve" font-family="HelveticaNeue,Helvetica Neue" font-size="61.0" fill="#FEFFFF" transform="matrix(1.00, 0.00, -0.00, -1.00, 59.2, 667.0)">U</text><text xml:space="preserve" font-family="HelveticaNeue,Helvetica Neue" font-size="61.0" fill="#FEFFFF" transform="matrix(1.00, 0.00, -0.00, -1.00, 103.2, 667.0)">s</text><text xml:space="preserve" font-family="HelveticaNeue,Helvetica Neue" font-size="61.0" fill="#FEFFFF" transform="matrix(1.00, 0.00, -0.00, -1.00, 133.7, 667.0)">e</text><text xml:space="preserve" font-family="HelveticaNeue,Helvetica Neue" font-size="61.0" fill="#FEFFFF" transform="matrix(1.00, 0.00, -0.00, -1.00, 166.5, 667.0)">r</text><text xml:space="preserve" font-family="HelveticaNeue,Helvetica Neue" font-size="61.0" fill="#FEFFFF" transform="matrix(1.00, 0.00, -0.00, -1.00, 186.8, 667.0)"> </text><text xml:space="preserve" font-family="HelveticaNeue,Helvetica Neue" font-size="61.0" fill="#FEFFFF" transform="matrix(1.00, 0.00, -0.00, -1.00, 203.8, 667.0)">e</text><text xml:space="preserve" font-family="HelveticaNeue,Helvetica Neue" font-size="61.0" fill="#FEFFFF" transform="matrix(1.00, 0.00, -0.00, -1.00, 236.5, 667.0)">v</text><text xml:space="preserve" font-family="HelveticaNeue,Helvetica Neue" font-size="61.0" fill="#FEFFFF" transform="matrix(1.00, 0.00, -0.00, -1.00, 267.0, 667.0)">e</text><text xml:space="preserve" font-family="HelveticaNeue,Helvetica Neue" font-size="61.0" fill="#FEFFFF" transform="matrix(1.00, 0.00, -0.00, -1.00, 299.8, 667.0)">n</text><text xml:space="preserve" font-family="HelveticaNeue,Helvetica Neue" font-size="61.0" fill="#FEFFFF" transform="matrix(1.00, 0.00, -0.00, -1.00, 333.7, 667.0)">t</text><text xml:space="preserve" font-family="HelveticaNeue,Helvetica Neue" font-size="61.0" fill="#FEFFFF" transform="matrix(1.00, 0.00, -0.00, -1.00, 352.9, 667.0)">s</text><text xml:space="preserve" font-family="HelveticaNeue,Helvetica Neue" font-size="61.0" fill="#FEFFFF" transform="matrix(1.00, 0.00, -0.00, -1.00, 383.4, 667.0)"> </text><text xml:space="preserve" font-family="HelveticaNeue,Helvetica Neue" font-size="61.0" fill="#FEFFFF" transform="matrix(1.00, 0.00, -0.00, -1.00, 400.4, 667.0)">(</text><text xml:space="preserve" font-family="HelveticaNeue,Helvetica Neue" font-size="61.0" fill="#FEFFFF" transform="matrix(1.00, 0.00, -0.00, -1.00, 416.2, 667.0)">n</text><text xml:space="preserve" font-family="HelveticaNeue,Helvetica Neue" font-size="61.0" fill="#FEFFFF" transform="matrix(1.00, 0.00, -0.00, -1.00, 450.1, 667.0)">g</text><text xml:space="preserve" font-family="HelveticaNeue,Helvetica Neue" font-size="61.0" fill="#FEFFFF" transform="matrix(1.00, 0.00, -0.00, -1.00, 485.1, 667.0)">-</text><text xml:space="preserve" font-family="HelveticaNeue,Helvetica Neue" font-size="61.0" fill="#FEFFFF" transform="matrix(1.00, 0.00, -0.00, -1.00, 508.8, 667.0)">k</text><text xml:space="preserve" font-family="HelveticaNeue,Helvetica Neue" font-size="61.0" fill="#FEFFFF" transform="matrix(1.00, 0.00, -0.00, -1.00, 540.5, 667.0)">e</text><text xml:space="preserve" font-family="HelveticaNeue,Helvetica Neue" font-size="61.0" fill="#FEFFFF" transform="matrix(1.00, 0.00, -0.00, -1.00, 573.2, 667.0)">y</text><text xml:space="preserve" font-family="HelveticaNeue,Helvetica Neue" font-size="61.0" fill="#FEFFFF" transform="matrix(1.00, 0.00, -0.00, -1.00, 603.7, 667.0)">p</text><text xml:space="preserve" font-family="HelveticaNeue,Helvetica Neue" font-size="61.0" fill="#FEFFFF" transform="matrix(1.00, 0.00, -0.00, -1.00, 639.9, 667.0)">r</text><text xml:space="preserve" font-family="HelveticaNeue,Helvetica Neue" font-size="61.0" fill="#FEFFFF" transform="matrix(1.00, 0.00, -0.00, -1.00, 659.1, 667.0)">e</text><text xml:space="preserve" font-family="HelveticaNeue,Helvetica Neue" font-size="61.0" fill="#FEFFFF" transform="matrix(1.00, 0.00, -0.00, -1.00, 691.9, 667.0)">s</text><text xml:space="preserve" font-family="HelveticaNeue,Helvetica Neue" font-size="61.0" fill="#FEFFFF" transform="matrix(1.00, 0.00, -0.00, -1.00, 722.4, 667.0)">s</text><text xml:space="preserve" font-family="HelveticaNeue,Helvetica Neue" font-size="61.0" fill="#FEFFFF" transform="matrix(1.00, 0.00, -0.00, -1.00, 752.9, 667.0)">,</text><text xml:space="preserve" font-family="HelveticaNeue,Helvetica Neue" font-size="61.0" fill="#FEFFFF" transform="matrix(1.00, 0.00, -0.00, -1.00, 769.8, 667.0)"> </text><text xml:space="preserve" font-family="HelveticaNeue,Helvetica Neue" font-size="61.0" fill="#FEFFFF" transform="matrix(1.00, 0.00, -0.00, -1.00, 786.8, 667.0)">n</text><text xml:space="preserve" font-family="HelveticaNeue,Helvetica Neue" font-size="61.0" fill="#FEFFFF" transform="matrix(1.00, 0.00, -0.00, -1.00, 820.7, 667.0)">g</text><text xml:space="preserve" font-family="HelveticaNeue,Helvetica Neue" font-size="61.0" fill="#FEFFFF" transform="matrix(1.00, 0.00, -0.00, -1.00, 855.7, 667.0)">-</text><text xml:space="preserve" font-family="HelveticaNeue,Helvetica Neue" font-size="61.0" fill="#FEFFFF" transform="matrix(1.00, 0.00, -0.00, -1.00, 879.5, 667.0)">k</text><text xml:space="preserve" font-family="HelveticaNeue,Helvetica Neue" font-size="61.0" fill="#FEFFFF" transform="matrix(1.00, 0.00, -0.00, -1.00, 911.1, 667.0)">e</text><text xml:space="preserve" font-family="HelveticaNeue,Helvetica Neue" font-size="61.0" fill="#FEFFFF" transform="matrix(1.00, 0.00, -0.00, -1.00, 943.9, 667.0)">y</text><text xml:space="preserve" font-family="HelveticaNeue,Helvetica Neue" font-size="61.0" fill="#FEFFFF" transform="matrix(1.00, 0.00, -0.00, -1.00, 974.4, 667.0)">d</text><text xml:space="preserve" font-family="HelveticaNeue,Helvetica Neue" font-size="61.0" fill="#FEFFFF" transform="matrix(1.00, 0.00, -0.00, -1.00, 1010.5, 667.0)">o</text><text xml:space="preserve" font-family="HelveticaNeue,Helvetica Neue" font-size="61.0" fill="#FEFFFF" transform="matrix(1.00, 0.00, -0.00, -1.00, 1045.6, 667.0)">w</text><text xml:space="preserve" font-family="HelveticaNeue,Helvetica Neue" font-size="61.0" fill="#FEFFFF" transform="matrix(1.00, 0.00, -0.00, -1.00, 1091.8, 667.0)">n</text><text xml:space="preserve" font-family="HelveticaNeue,Helvetica Neue" font-size="61.0" fill="#FEFFFF" transform="matrix(1.00, 0.00, -0.00, -1.00, 1125.7, 667.0)">,</text><text xml:space="preserve" font-family="HelveticaNeue,Helvetica Neue" font-size="61.0" fill="#FEFFFF" transform="matrix(1.00, 0.00, -0.00, -1.00, 1142.7, 667.0)"> </text><text xml:space="preserve" font-family="HelveticaNeue,Helvetica Neue" font-size="61.0" fill="#FEFFFF" transform="matrix(1.00, 0.00, -0.00, -1.00, 1159.6, 667.0)">n</text><text xml:space="preserve" font-family="HelveticaNeue,Helvetica Neue" font-size="61.0" fill="#FEFFFF" transform="matrix(1.00, 0.00, -0.00, -1.00, 1193.5, 667.0)">g</text><text xml:space="preserve" font-family="HelveticaNeue,Helvetica Neue" font-size="61.0" fill="#FEFFFF" transform="matrix(1.00, 0.00, -0.00, -1.00, 1228.6, 667.0)">-</text><text xml:space="preserve" font-family="HelveticaNeue,Helvetica Neue" font-size="61.0" fill="#FEFFFF" transform="matrix(1.00, 0.00, -0.00, -1.00, 1252.3, 667.0)">c</text><text xml:space="preserve" font-family="HelveticaNeue,Helvetica Neue" font-size="61.0" fill="#FEFFFF" transform="matrix(1.00, 0.00, -0.00, -1.00, 1285.0, 667.0)">l</text><text xml:space="preserve" font-family="HelveticaNeue,Helvetica Neue" font-size="61.0" fill="#FEFFFF" transform="matrix(1.00, 0.00, -0.00, -1.00, 1298.6, 667.0)">i</text><text xml:space="preserve" font-family="HelveticaNeue,Helvetica Neue" font-size="61.0" fill="#FEFFFF" transform="matrix(1.00, 0.00, -0.00, -1.00, 1312.1, 667.0)">c</text><text xml:space="preserve" font-family="HelveticaNeue,Helvetica Neue" font-size="61.0" fill="#FEFFFF" transform="matrix(1.00, 0.00, -0.00, -1.00, 1344.9, 667.0)">k</text><text xml:space="preserve" font-family="HelveticaNeue,Helvetica Neue" font-size="61.0" fill="#FEFFFF" transform="matrix(1.00, 0.00, -0.00, -1.00, 1376.5, 667.0)">,</text><text xml:space="preserve" font-family="HelveticaNeue,Helvetica Neue" font-size="61.0" fill="#FEFFFF" transform="matrix(1.00, 0.00, -0.00, -1.00, 1393.5, 667.0)"> </text><text xml:space="preserve" font-family="HelveticaNeue,Helvetica Neue" font-size="61.0" fill="#FEFFFF" transform="matrix(1.00, 0.00, -0.00, -1.00, 1410.5, 667.0)">e</text><text xml:space="preserve" font-family="HelveticaNeue,Helvetica Neue" font-size="61.0" fill="#FEFFFF" transform="matrix(1.00, 0.00, -0.00, -1.00, 1443.2, 667.0)">t</text><text xml:space="preserve" font-family="HelveticaNeue,Helvetica Neue" font-size="61.0" fill="#FEFFFF" transform="matrix(1.00, 0.00, -0.00, -1.00, 1462.4, 667.0)">c</text><text xml:space="preserve" font-family="HelveticaNeue,Helvetica Neue" font-size="61.0" fill="#FEFFFF" transform="matrix(1.00, 0.00, -0.00, -1.00, 1495.2, 667.0)">)</text><text xml:space="preserve" font-family="HelveticaNeue,Helvetica Neue" font-size="61.0" fill="#FEFFFF" transform="matrix(1.00, 0.00, -0.00, -1.00, 1511.0, 667.0)">
</text><text xml:space="preserve" font-family="HelveticaNeue,Helvetica Neue" font-size="45.8" fill="#FEFFFF" transform="matrix(1.00, 0.00, -0.00, -1.00, 0.5, 563.9)">•</text><text xml:space="preserve" font-family="HelveticaNeue,Helvetica Neue" font-size="61.0" fill="#FEFFFF" transform="matrix(1.00, 0.00, -0.00, -1.00, 59.2, 558.3)">$</text><text xml:space="preserve" font-family="HelveticaNeue,Helvetica Neue" font-size="61.0" fill="#FEFFFF" transform="matrix(1.00, 0.00, -0.00, -1.00, 93.1, 558.3)">q</text><text xml:space="preserve" font-family="HelveticaNeue,Helvetica Neue" font-size="61.0" fill="#FEFFFF" transform="matrix(1.00, 0.00, -0.00, -1.00, 129.3, 558.3)"> </text><text xml:space="preserve" font-family="HelveticaNeue,Helvetica Neue" font-size="61.0" fill="#FEFFFF" transform="matrix(1.00, 0.00, -0.00, -1.00, 146.2, 558.3)">s</text><text xml:space="preserve" font-family="HelveticaNeue,Helvetica Neue" font-size="61.0" fill="#FEFFFF" transform="matrix(1.00, 0.00, -0.00, -1.00, 176.7, 558.3)">e</text><text xml:space="preserve" font-family="HelveticaNeue,Helvetica Neue" font-size="61.0" fill="#FEFFFF" transform="matrix(1.00, 0.00, -0.00, -1.00, 209.5, 558.3)">r</text><text xml:space="preserve" font-family="HelveticaNeue,Helvetica Neue" font-size="61.0" fill="#FEFFFF" transform="matrix(1.00, 0.00, -0.00, -1.00, 229.8, 558.3)">v</text><text xml:space="preserve" font-family="HelveticaNeue,Helvetica Neue" font-size="61.0" fill="#FEFFFF" transform="matrix(1.00, 0.00, -0.00, -1.00, 260.3, 558.3)">i</text><text xml:space="preserve" font-family="HelveticaNeue,Helvetica Neue" font-size="61.0" fill="#FEFFFF" transform="matrix(1.00, 0.00, -0.00, -1.00, 273.9, 558.3)">c</text><text xml:space="preserve" font-family="HelveticaNeue,Helvetica Neue" font-size="61.0" fill="#FEFFFF" transform="matrix(1.00, 0.00, -0.00, -1.00, 306.6, 558.3)">e</text><text xml:space="preserve" font-family="HelveticaNeue,Helvetica Neue" font-size="61.0" fill="#FEFFFF" transform="matrix(1.00, 0.00, -0.00, -1.00, 339.4, 558.3)">
</text><text xml:space="preserve" font-family="HelveticaNeue,Helvetica Neue" font-size="45.8" fill="#FEFFFF" transform="matrix(1.00, 0.00, -0.00, -1.00, 0.5, 455.2)">•</text><text xml:space="preserve" font-family="HelveticaNeue,Helvetica Neue" font-size="61.0" fill="#FEFFFF" transform="matrix(1.00, 0.00, -0.00, -1.00, 59.2, 449.7)">$</text><text xml:space="preserve" font-family="HelveticaNeue,Helvetica Neue" font-size="61.0" fill="#FEFFFF" transform="matrix(1.00, 0.00, -0.00, -1.00, 93.1, 449.7)">h</text><text xml:space="preserve" font-family="HelveticaNeue,Helvetica Neue" font-size="61.0" fill="#FEFFFF" transform="matrix(1.00, 0.00, -0.00, -1.00, 127.0, 449.7)">t</text><text xml:space="preserve" font-family="HelveticaNeue,Helvetica Neue" font-size="61.0" fill="#FEFFFF" transform="matrix(1.00, 0.00, -0.00, -1.00, 146.2, 449.7)">t</text><text xml:space="preserve" font-family="HelveticaNeue,Helvetica Neue" font-size="61.0" fill="#FEFFFF" transform="matrix(1.00, 0.00, -0.00, -1.00, 165.5, 449.7)">p</text><text xml:space="preserve" font-family="HelveticaNeue,Helvetica Neue" font-size="61.0" fill="#FEFFFF" transform="matrix(1.00, 0.00, -0.00, -1.00, 201.6, 449.7)"> </text><text xml:space="preserve" font-family="HelveticaNeue,Helvetica Neue" font-size="61.0" fill="#FEFFFF" transform="matrix(1.00, 0.00, -0.00, -1.00, 218.6, 449.7)">s</text><text xml:space="preserve" font-family="HelveticaNeue,Helvetica Neue" font-size="61.0" fill="#FEFFFF" transform="matrix(1.00, 0.00, -0.00, -1.00, 249.1, 449.7)">e</text><text xml:space="preserve" font-family="HelveticaNeue,Helvetica Neue" font-size="61.0" fill="#FEFFFF" transform="matrix(1.00, 0.00, -0.00, -1.00, 281.8, 449.7)">r</text><text xml:space="preserve" font-family="HelveticaNeue,Helvetica Neue" font-size="61.0" fill="#FEFFFF" transform="matrix(1.00, 0.00, -0.00, -1.00, 302.2, 449.7)">v</text><text xml:space="preserve" font-family="HelveticaNeue,Helvetica Neue" font-size="61.0" fill="#FEFFFF" transform="matrix(1.00, 0.00, -0.00, -1.00, 332.7, 449.7)">i</text><text xml:space="preserve" font-family="HelveticaNeue,Helvetica Neue" font-size="61.0" fill="#FEFFFF" transform="matrix(1.00, 0.00, -0.00, -1.00, 346.2, 449.7)">c</text><text xml:space="preserve" font-family="HelveticaNeue,Helvetica Neue" font-size="61.0" fill="#FEFFFF" transform="matrix(1.00, 0.00, -0.00, -1.00, 379.0, 449.7)">e</text><text xml:space="preserve" font-family="HelveticaNeue,Helvetica Neue" font-size="61.0" fill="#FEFFFF" transform="matrix(1.00, 0.00, -0.00, -1.00, 411.7, 449.7)">
</text><text xml:space="preserve" font-family="HelveticaNeue,Helvetica Neue" font-size="45.8" fill="#FEFFFF" transform="matrix(1.00, 0.00, -0.00, -1.00, 0.5, 346.6)">•</text><text xml:space="preserve" font-family="HelveticaNeue,Helvetica Neue" font-size="61.0" fill="#FEFFFF" transform="matrix(1.00, 0.00, -0.00, -1.00, 59.2, 341.0)">$</text><text xml:space="preserve" font-family="HelveticaNeue,Helvetica Neue" font-size="61.0" fill="#FEFFFF" transform="matrix(1.00, 0.00, -0.00, -1.00, 93.1, 341.0)">t</text><text xml:space="preserve" font-family="HelveticaNeue,Helvetica Neue" font-size="61.0" fill="#FEFFFF" transform="matrix(1.00, 0.00, -0.00, -1.00, 112.3, 341.0)">i</text><text xml:space="preserve" font-family="HelveticaNeue,Helvetica Neue" font-size="61.0" fill="#FEFFFF" transform="matrix(1.00, 0.00, -0.00, -1.00, 125.9, 341.0)">m</text><text xml:space="preserve" font-family="HelveticaNeue,Helvetica Neue" font-size="61.0" fill="#FEFFFF" transform="matrix(1.00, 0.00, -0.00, -1.00, 177.9, 341.0)">e</text><text xml:space="preserve" font-family="HelveticaNeue,Helvetica Neue" font-size="61.0" fill="#FEFFFF" transform="matrix(1.00, 0.00, -0.00, -1.00, 210.7, 341.0)">o</text><text xml:space="preserve" font-family="HelveticaNeue,Helvetica Neue" font-size="61.0" fill="#FEFFFF" transform="matrix(1.00, 0.00, -0.00, -1.00, 245.7, 341.0)">u</text><text xml:space="preserve" font-family="HelveticaNeue,Helvetica Neue" font-size="61.0" fill="#FEFFFF" transform="matrix(1.00, 0.00, -0.00, -1.00, 279.6, 341.0)">t</text><text xml:space="preserve" font-family="HelveticaNeue,Helvetica Neue" font-size="61.0" fill="#FEFFFF" transform="matrix(1.00, 0.00, -0.00, -1.00, 298.8, 341.0)">
</text><text xml:space="preserve" font-family="HelveticaNeue,Helvetica Neue" font-size="45.8" fill="#FEFFFF" transform="matrix(1.00, 0.00, -0.00, -1.00, 0.5, 237.9)">•</text><text xml:space="preserve" font-family="HelveticaNeue,Helvetica Neue" font-size="61.0" fill="#FEFFFF" transform="matrix(1.00, 0.00, -0.00, -1.00, 59.2, 232.4)">$</text><text xml:space="preserve" font-family="HelveticaNeue,Helvetica Neue" font-size="61.0" fill="#FEFFFF" transform="matrix(1.00, 0.00, -0.00, -1.00, 93.1, 232.4)">e</text><text xml:space="preserve" font-family="HelveticaNeue,Helvetica Neue" font-size="61.0" fill="#FEFFFF" transform="matrix(1.00, 0.00, -0.00, -1.00, 125.9, 232.4)">v</text><text xml:space="preserve" font-family="HelveticaNeue,Helvetica Neue" font-size="61.0" fill="#FEFFFF" transform="matrix(1.00, 0.00, -0.00, -1.00, 156.4, 232.4)">a</text><text xml:space="preserve" font-family="HelveticaNeue,Helvetica Neue" font-size="61.0" fill="#FEFFFF" transform="matrix(1.00, 0.00, -0.00, -1.00, 189.1, 232.4)">l</text><text xml:space="preserve" font-family="HelveticaNeue,Helvetica Neue" font-size="61.0" fill="#FEFFFF" transform="matrix(1.00, 0.00, -0.00, -1.00, 202.7, 232.4)">A</text><text xml:space="preserve" font-family="HelveticaNeue,Helvetica Neue" font-size="61.0" fill="#FEFFFF" transform="matrix(1.00, 0.00, -0.00, -1.00, 242.2, 232.4)">s</text><text xml:space="preserve" font-family="HelveticaNeue,Helvetica Neue" font-size="61.0" fill="#FEFFFF" transform="matrix(1.00, 0.00, -0.00, -1.00, 272.7, 232.4)">y</text><text xml:space="preserve" font-family="HelveticaNeue,Helvetica Neue" font-size="61.0" fill="#FEFFFF" transform="matrix(1.00, 0.00, -0.00, -1.00, 303.2, 232.4)">n</text><text xml:space="preserve" font-family="HelveticaNeue,Helvetica Neue" font-size="61.0" fill="#FEFFFF" transform="matrix(1.00, 0.00, -0.00, -1.00, 337.1, 232.4)">c</text><text xml:space="preserve" font-family="HelveticaNeue,Helvetica Neue" font-size="61.0" fill="#FEFFFF" transform="matrix(1.00, 0.00, -0.00, -1.00, 369.9, 232.4)">
</text><text xml:space="preserve" font-family="HelveticaNeue,Helvetica Neue" font-size="45.8" fill="#FEFFFF" transform="matrix(1.00, 0.00, -0.00, -1.00, 0.5, 129.3)">•</text><text xml:space="preserve" font-family="HelveticaNeue,Helvetica Neue" font-size="61.0" fill="#FEFFFF" transform="matrix(1.00, 0.00, -0.00, -1.00, 59.2, 123.7)">d</text><text xml:space="preserve" font-family="HelveticaNeue,Helvetica Neue" font-size="61.0" fill="#FEFFFF" transform="matrix(1.00, 0.00, -0.00, -1.00, 95.4, 123.7)">u</text><text xml:space="preserve" font-family="HelveticaNeue,Helvetica Neue" font-size="61.0" fill="#FEFFFF" transform="matrix(1.00, 0.00, -0.00, -1.00, 129.3, 123.7)">r</text><text xml:space="preserve" font-family="HelveticaNeue,Helvetica Neue" font-size="61.0" fill="#FEFFFF" transform="matrix(1.00, 0.00, -0.00, -1.00, 149.6, 123.7)">i</text><text xml:space="preserve" font-family="HelveticaNeue,Helvetica Neue" font-size="61.0" fill="#FEFFFF" transform="matrix(1.00, 0.00, -0.00, -1.00, 163.1, 123.7)">n</text><text xml:space="preserve" font-family="HelveticaNeue,Helvetica Neue" font-size="61.0" fill="#FEFFFF" transform="matrix(1.00, 0.00, -0.00, -1.00, 197.1, 123.7)">g</text><text xml:space="preserve" font-family="HelveticaNeue,Helvetica Neue" font-size="61.0" fill="#FEFFFF" transform="matrix(1.00, 0.00, -0.00, -1.00, 232.1, 123.7)"> </text><text xml:space="preserve" font-family="HelveticaNeue,Helvetica Neue" font-size="61.0" fill="#FEFFFF" transform="matrix(1.00, 0.00, -0.00, -1.00, 249.0, 123.7)">a</text><text xml:space="preserve" font-family="HelveticaNeue,Helvetica Neue" font-size="61.0" fill="#FEFFFF" transform="matrix(1.00, 0.00, -0.00, -1.00, 281.8, 123.7)">n</text><text xml:space="preserve" font-family="HelveticaNeue,Helvetica Neue" font-size="61.0" fill="#FEFFFF" transform="matrix(1.00, 0.00, -0.00, -1.00, 315.7, 123.7)">i</text><text xml:space="preserve" font-family="HelveticaNeue,Helvetica Neue" font-size="61.0" fill="#FEFFFF" transform="matrix(1.00, 0.00, -0.00, -1.00, 329.2, 123.7)">m</text><text xml:space="preserve" font-family="HelveticaNeue,Helvetica Neue" font-size="61.0" fill="#FEFFFF" transform="matrix(1.00, 0.00, -0.00, -1.00, 381.3, 123.7)">a</text><text xml:space="preserve" font-family="HelveticaNeue,Helvetica Neue" font-size="61.0" fill="#FEFFFF" transform="matrix(1.00, 0.00, -0.00, -1.00, 414.0, 123.7)">t</text><text xml:space="preserve" font-family="HelveticaNeue,Helvetica Neue" font-size="61.0" fill="#FEFFFF" transform="matrix(1.00, 0.00, -0.00, -1.00, 433.2, 123.7)">i</text><text xml:space="preserve" font-family="HelveticaNeue,Helvetica Neue" font-size="61.0" fill="#FEFFFF" transform="matrix(1.00, 0.00, -0.00, -1.00, 446.8, 123.7)">o</text><text xml:space="preserve" font-family="HelveticaNeue,Helvetica Neue" font-size="61.0" fill="#FEFFFF" transform="matrix(1.00, 0.00, -0.00, -1.00, 481.8, 123.7)">n</text><text xml:space="preserve" font-family="HelveticaNeue,Helvetica Neue" font-size="61.0" fill="#FEFFFF" transform="matrix(1.00, 0.00, -0.00, -1.00, 515.7, 123.7)">s</text><text xml:space="preserve" font-family="HelveticaNeue,Helvetica Neue" font-size="61.0" fill="#FEFFFF" transform="matrix(1.00, 0.00, -0.00, -1.00, 546.2, 123.7)">
</text><text xml:space="preserve" font-family="HelveticaNeue,Helvetica Neue" font-size="45.8" fill="#FEFFFF" transform="matrix(1.00, 0.00, -0.00, -1.00, 0.5, 20.6)">•</text><text xml:space="preserve" font-family="HelveticaNeue,Helvetica Neue" font-size="61.0" fill="#FEFFFF" transform="matrix(1.00, 0.00, -0.00, -1.00, 59.2, 15.1)">a</text><text xml:space="preserve" font-family="HelveticaNeue,Helvetica Neue" font-size="61.0" fill="#FEFFFF" transform="matrix(1.00, 0.00, -0.00, -1.00, 91.9, 15.1)">n</text><text xml:space="preserve" font-family="HelveticaNeue,Helvetica Neue" font-size="61.0" fill="#FEFFFF" transform="matrix(1.00, 0.00, -0.00, -1.00, 125.9, 15.1)">d</text><text xml:space="preserve" font-family="HelveticaNeue,Helvetica Neue" font-size="61.0" fill="#FEFFFF" transform="matrix(1.00, 0.00, -0.00, -1.00, 162.0, 15.1)"> </text><text xml:space="preserve" font-family="HelveticaNeue,Helvetica Neue" font-size="61.0" fill="#FEFFFF" transform="matrix(1.00, 0.00, -0.00, -1.00, 179.0, 15.1)">m</text><text xml:space="preserve" font-family="HelveticaNeue,Helvetica Neue" font-size="61.0" fill="#FEFFFF" transform="matrix(1.00, 0.00, -0.00, -1.00, 231.0, 15.1)">a</text><text xml:space="preserve" font-family="HelveticaNeue,Helvetica Neue" font-size="61.0" fill="#FEFFFF" transform="matrix(1.00, 0.00, -0.00, -1.00, 263.8, 15.1)">n</text><text xml:space="preserve" font-family="HelveticaNeue,Helvetica Neue" font-size="61.0" fill="#FEFFFF" transform="matrix(1.00, 0.00, -0.00, -1.00, 297.7, 15.1)">u</text><text xml:space="preserve" font-family="HelveticaNeue,Helvetica Neue" font-size="61.0" fill="#FEFFFF" transform="matrix(1.00, 0.00, -0.00, -1.00, 331.6, 15.1)">a</text><text xml:space="preserve" font-family="HelveticaNeue,Helvetica Neue" font-size="61.0" fill="#FEFFFF" transform="matrix(1.00, 0.00, -0.00, -1.00, 364.4, 15.1)">l</text><text xml:space="preserve" font-family="HelveticaNeue,Helvetica Neue" font-size="61.0" fill="#FEFFFF" transform="matrix(1.00, 0.00, -0.00, -1.00, 377.9, 15.1)">l</text><text xml:space="preserve" font-family="HelveticaNeue,Helvetica Neue" font-size="61.0" fill="#FEFFFF" transform="matrix(1.00, 0.00, -0.00, -1.00, 391.5, 15.1)">y</text><text xml:space="preserve" font-family="HelveticaNeue,Helvetica Neue" font-size="61.0" fill="#FEFFFF" transform="matrix(1.00, 0.00, -0.00, -1.00, 422.0, 15.1)"> </text><text xml:space="preserve" font-family="HelveticaNeue,Helvetica Neue" font-size="61.0" fill="#FEFFFF" transform="matrix(1.00, 0.00, -0.00, -1.00, 438.9, 15.1)">t</text><text xml:space="preserve" font-family="HelveticaNeue,Helvetica Neue" font-size="61.0" fill="#FEFFFF" transform="matrix(1.00, 0.00, -0.00, -1.00, 458.1, 15.1)">r</text><text xml:space="preserve" font-family="HelveticaNeue,Helvetica Neue" font-size="61.0" fill="#FEFFFF" transform="matrix(1.00, 0.00, -0.00, -1.00, 478.4, 15.1)">i</text><text xml:space="preserve" font-family="HelveticaNeue,Helvetica Neue" font-size="61.0" fill="#FEFFFF" transform="matrix(1.00, 0.00, -0.00, -1.00, 492.0, 15.1)">g</text><text xml:space="preserve" font-family="HelveticaNeue,Helvetica Neue" font-size="61.0" fill="#FEFFFF" transform="matrix(1.00, 0.00, -0.00, -1.00, 527.0, 15.1)">g</text><text xml:space="preserve" font-family="HelveticaNeue,Helvetica Neue" font-size="61.0" fill="#FEFFFF" transform="matrix(1.00, 0.00, -0.00, -1.00, 562.0, 15.1)">e</text><text xml:space="preserve" font-family="HelveticaNeue,Helvetica Neue" font-size="61.0" fill="#FEFFFF" transform="matrix(1.00, 0.00, -0.00, -1.00, 594.8, 15.1)">r</text><text xml:space="preserve" font-family="HelveticaNeue,Helvetica Neue" font-size="61.0" fill="#FEFFFF" transform="matrix(1.00, 0.00, -0.00, -1.00, 614.0, 15.1)">e</text><text xml:space="preserve" font-family="HelveticaNeue,Helvetica Neue" font-size="61.0" fill="#FEFFFF" transform="matrix(1.00, 0.00, -0.00, -1.00, 646.7, 15.1)">d</text><text xml:space="preserve" font-family="HelveticaNeue,Helvetica Neue" font-size="61.0" fill="#FEFFFF" transform="matrix(1.00, 0.00, -0.00, -1.00, 682.9, 15.1)"> </text><text xml:space="preserve" font-family="HelveticaNeue,Helvetica Neue" font-size="61.0" fill="#FEFFFF" transform="matrix(1.00, 0.00, -0.00, -1.00, 699.9, 15.1)">(</text><text xml:space="preserve" font-family="HelveticaNeue,Helvetica Neue" font-size="61.0" fill="#FEFFFF" transform="matrix(1.00, 0.00, -0.00, -1.00, 715.7, 15.1)">$</text><text xml:space="preserve" font-family="HelveticaNeue,Helvetica Neue" font-size="61.0" fill="#FEFFFF" transform="matrix(1.00, 0.00, -0.00, -1.00, 749.6, 15.1)">a</text><text xml:space="preserve" font-family="HelveticaNeue,Helvetica Neue" font-size="61.0" fill="#FEFFFF" transform="matrix(1.00, 0.00, -0.00, -1.00, 782.3, 15.1)">p</text><text xml:space="preserve" font-family="HelveticaNeue,Helvetica Neue" font-size="61.0" fill="#FEFFFF" transform="matrix(1.00, 0.00, -0.00, -1.00, 818.5, 15.1)">p</text><text xml:space="preserve" font-family="HelveticaNeue,Helvetica Neue" font-size="61.0" fill="#FEFFFF" transform="matrix(1.00, 0.00, -0.00, -1.00, 854.7, 15.1)">l</text><text xml:space="preserve" font-family="HelveticaNeue,Helvetica Neue" font-size="61.0" fill="#FEFFFF" transform="matrix(1.00, 0.00, -0.00, -1.00, 868.2, 15.1)">y</text><text xml:space="preserve" font-family="HelveticaNeue,Helvetica Neue" font-size="61.0" fill="#FEFFFF" transform="matrix(1.00, 0.00, -0.00, -1.00, 894.2, 15.1)">,</text><text xml:space="preserve" font-family="HelveticaNeue,Helvetica Neue" font-size="61.0" fill="#FEFFFF" transform="matrix(1.00, 0.00, -0.00, -1.00, 911.2, 15.1)"> </text><text xml:space="preserve" font-family="HelveticaNeue,Helvetica Neue" font-size="61.0" fill="#FEFFFF" transform="matrix(1.00, 0.00, -0.00, -1.00, 928.1, 15.1)">$</text><text xml:space="preserve" font-family="HelveticaNeue,Helvetica Neue" font-size="61.0" fill="#FEFFFF" transform="matrix(1.00, 0.00, -0.00, -1.00, 962.1, 15.1)">d</text><text xml:space="preserve" font-family="HelveticaNeue,Helvetica Neue" font-size="61.0" fill="#FEFFFF" transform="matrix(1.00, 0.00, -0.00, -1.00, 998.2, 15.1)">i</text><text xml:space="preserve" font-family="HelveticaNeue,Helvetica Neue" font-size="61.0" fill="#FEFFFF" transform="matrix(1.00, 0.00, -0.00, -1.00, 1011.8, 15.1)">g</text><text xml:space="preserve" font-family="HelveticaNeue,Helvetica Neue" font-size="61.0" fill="#FEFFFF" transform="matrix(1.00, 0.00, -0.00, -1.00, 1046.8, 15.1)">e</text><text xml:space="preserve" font-family="HelveticaNeue,Helvetica Neue" font-size="61.0" fill="#FEFFFF" transform="matrix(1.00, 0.00, -0.00, -1.00, 1079.5, 15.1)">s</text><text xml:space="preserve" font-family="HelveticaNeue,Helvetica Neue" font-size="61.0" fill="#FEFFFF" transform="matrix(1.00, 0.00, -0.00, -1.00, 1110.0, 15.1)">t</text><text xml:space="preserve" font-family="HelveticaNeue,Helvetica Neue" font-size="61.0" fill="#FEFFFF" transform="matrix(1.00, 0.00, -0.00, -1.00, 1129.3, 15.1)">)</text></g></svg>