<?xml version="1.0" encoding="UTF-8" standalone="no"?><svg xmlns="http://www.w3.org/2000/svg" xmlns:xlink="http://www.w3.org/1999/xlink" clip-rule="evenodd" stroke-miterlimit="10" viewBox="0 0 1920 1080"><desc>SVG generated by Keynote</desc><defs></defs><g transform="matrix(1.00, 0.00, -0.00, -1.00, 0.0, 1080.0)"><path d="M 0.0 1080.0 L 1920.0 1080.0 L 1920.0 0.0 L 0.0 0.0 Z M 0.0 1080.0 " fill="#000000"></path><g opacity="0.65"><g><clipPath id="clip0x6000016a7080"><path d="M 48.0 951.0 L 1078.0 951.0 L 1078.0 1043.0 L 48.0 1043.0 Z M 48.0 951.0 "></path></clipPath><g clip-path="url(#clip0x6000016a7080)"><text xml:space="preserve" font-family="HelveticaNeue-Bold,Helvetica Neue" font-weight="bold" font-size="70.0" fill="#FEFFFF" transform="matrix(1.00, 0.00, -0.00, -1.00, 52.5, 971.1)">T</text><text xml:space="preserve" font-family="HelveticaNeue-Bold,Helvetica Neue" font-weight="bold" font-size="70.0" fill="#FEFFFF" transform="matrix(1.00, 0.00, -0.00, -1.00, 87.5, 971.1)">e</text><text xml:space="preserve" font-family="HelveticaNeue-Bold,Helvetica Neue" font-weight="bold" font-size="70.0" fill="#FEFFFF" transform="matrix(1.00, 0.00, -0.00, -1.00, 127.7, 971.1)">c</text><text xml:space="preserve" font-family="HelveticaNeue-Bold,Helvetica Neue" font-weight="bold" font-size="70.0" fill="#FEFFFF" transform="matrix(1.00, 0.00, -0.00, -1.00, 167.9, 971.1)">h</text><text xml:space="preserve" font-family="HelveticaNeue-Bold,Helvetica Neue" font-weight="bold" font-size="70.0" fill="#FEFFFF" transform="matrix(1.00, 0.00, -0.00, -1.00, 209.4, 971.1)">n</text><text xml:space="preserve" font-family="HelveticaNeue-Bold,Helvetica Neue" font-weight="bold" font-size="70.0" fill="#FEFFFF" transform="matrix(1.00, 0.00, -0.00, -1.00, 250.9, 971.1)">i</text><text xml:space="preserve" font-family="HelveticaNeue-Bold,Helvetica Neue" font-weight="bold" font-size="70.0" fill="#FEFFFF" transform="matrix(1.00, 0.00, -0.00, -1.00, 269.0, 971.1)">q</text><text xml:space="preserve" font-family="HelveticaNeue-Bold,Helvetica Neue" font-weight="bold" font-size="70.0" fill="#FEFFFF" transform="matrix(1.00, 0.00, -0.00, -1.00, 311.7, 971.1)">u</text><text xml:space="preserve" font-family="HelveticaNeue-Bold,Helvetica Neue" font-weight="bold" font-size="70.0" fill="#FEFFFF" transform="matrix(1.00, 0.00, -0.00, -1.00, 353.2, 971.1)">e</text><text xml:space="preserve" font-family="HelveticaNeue-Bold,Helvetica Neue" font-weight="bold" font-size="70.0" fill="#FEFFFF" transform="matrix(1.00, 0.00, -0.00, -1.00, 393.4, 971.1)">s</text><text xml:space="preserve" font-family="HelveticaNeue-Bold,Helvetica Neue" font-weight="bold" font-size="70.0" fill="#FEFFFF" transform="matrix(1.00, 0.00, -0.00, -1.00, 431.0, 971.1)"> </text><text xml:space="preserve" font-family="HelveticaNeue-Bold,Helvetica Neue" font-weight="bold" font-size="70.0" fill="#FEFFFF" transform="matrix(1.00, 0.00, -0.00, -1.00, 450.5, 971.1)">:</text><text xml:space="preserve" font-family="HelveticaNeue-Bold,Helvetica Neue" font-weight="bold" font-size="70.0" fill="#FEFFFF" transform="matrix(1.00, 0.00, -0.00, -1.00, 469.9, 971.1)"> </text></g></g></g><text xml:space="preserve" font-family="HelveticaNeue,Helvetica Neue" font-size="45.8" fill="#FEFFFF" transform="matrix(1.00, 0.00, -0.00, -1.00, 186.5, 794.5)">•</text><text xml:space="preserve" font-family="HelveticaNeue,Helvetica Neue" font-size="61.0" fill="#FEFFFF" transform="matrix(1.00, 0.00, -0.00, -1.00, 245.2, 789.0)">U</text><text xml:space="preserve" font-family="HelveticaNeue,Helvetica Neue" font-size="61.0" fill="#FEFFFF" transform="matrix(1.00, 0.00, -0.00, -1.00, 289.2, 789.0)">s</text><text xml:space="preserve" font-family="HelveticaNeue,Helvetica Neue" font-size="61.0" fill="#FEFFFF" transform="matrix(1.00, 0.00, -0.00, -1.00, 319.7, 789.0)">e</text><text xml:space="preserve" font-family="HelveticaNeue,Helvetica Neue" font-size="61.0" fill="#FEFFFF" transform="matrix(1.00, 0.00, -0.00, -1.00, 352.5, 789.0)">r</text><text xml:space="preserve" font-family="HelveticaNeue,Helvetica Neue" font-size="61.0" fill="#FEFFFF" transform="matrix(1.00, 0.00, -0.00, -1.00, 372.8, 789.0)"> </text><text xml:space="preserve" font-family="HelveticaNeue,Helvetica Neue" font-size="61.0" fill="#FEFFFF" transform="matrix(1.00, 0.00, -0.00, -1.00, 389.8, 789.0)">e</text><text xml:space="preserve" font-family="HelveticaNeue,Helvetica Neue" font-size="61.0" fill="#FEFFFF" transform="matrix(1.00, 0.00, -0.00, -1.00, 422.5, 789.0)">v</text><text xml:space="preserve" font-family="HelveticaNeue,Helvetica Neue" font-size="61.0" fill="#FEFFFF" transform="matrix(1.00, 0.00, -0.00, -1.00, 453.0, 789.0)">e</text><text xml:space="preserve" font-family="HelveticaNeue,Helvetica Neue" font-size="61.0" fill="#FEFFFF" transform="matrix(1.00, 0.00, -0.00, -1.00, 485.8, 789.0)">n</text><text xml:space="preserve" font-family="HelveticaNeue,Helvetica Neue" font-size="61.0" fill="#FEFFFF" transform="matrix(1.00, 0.00, -0.00, -1.00, 519.7, 789.0)">t</text><text xml:space="preserve" font-family="HelveticaNeue,Helvetica Neue" font-size="61.0" fill="#FEFFFF" transform="matrix(1.00, 0.00, -0.00, -1.00, 538.9, 789.0)">s</text><text xml:space="preserve" font-family="HelveticaNeue,Helvetica Neue" font-size="61.0" fill="#FEFFFF" transform="matrix(1.00, 0.00, -0.00, -1.00, 569.4, 789.0)"> </text><text xml:space="preserve" font-family="HelveticaNeue,Helvetica Neue" font-size="61.0" fill="#FEFFFF" transform="matrix(1.00, 0.00, -0.00, -1.00, 586.4, 789.0)">(</text><text xml:space="preserve" font-family="HelveticaNeue,Helvetica Neue" font-size="61.0" fill="#FEFFFF" transform="matrix(1.00, 0.00, -0.00, -1.00, 602.2, 789.0)">n</text><text xml:space="preserve" font-family="HelveticaNeue,Helvetica Neue" font-size="61.0" fill="#FEFFFF" transform="matrix(1.00, 0.00, -0.00, -1.00, 636.1, 789.0)">g</text><text xml:space="preserve" font-family="HelveticaNeue,Helvetica Neue" font-size="61.0" fill="#FEFFFF" transform="matrix(1.00, 0.00, -0.00, -1.00, 671.1, 789.0)">-</text><text xml:space="preserve" font-family="HelveticaNeue,Helvetica Neue" font-size="61.0" fill="#FEFFFF" transform="matrix(1.00, 0.00, -0.00, -1.00, 694.8, 789.0)">k</text><text xml:space="preserve" font-family="HelveticaNeue,Helvetica Neue" font-size="61.0" fill="#FEFFFF" transform="matrix(1.00, 0.00, -0.00, -1.00, 726.5, 789.0)">e</text><text xml:space="preserve" font-family="HelveticaNeue,Helvetica Neue" font-size="61.0" fill="#FEFFFF" transform="matrix(1.00, 0.00, -0.00, -1.00, 759.2, 789.0)">y</text><text xml:space="preserve" font-family="HelveticaNeue,Helvetica Neue" font-size="61.0" fill="#FEFFFF" transform="matrix(1.00, 0.00, -0.00, -1.00, 789.7, 789.0)">p</text><text xml:space="preserve" font-family="HelveticaNeue,Helvetica Neue" font-size="61.0" fill="#FEFFFF" transform="matrix(1.00, 0.00, -0.00, -1.00, 825.9, 789.0)">r</text><text xml:space="preserve" font-family="HelveticaNeue,Helvetica Neue" font-size="61.0" fill="#FEFFFF" transform="matrix(1.00, 0.00, -0.00, -1.00, 845.1, 789.0)">e</text><text xml:space="preserve" font-family="HelveticaNeue,Helvetica Neue" font-size="61.0" fill="#FEFFFF" transform="matrix(1.00, 0.00, -0.00, -1.00, 877.9, 789.0)">s</text><text xml:space="preserve" font-family="HelveticaNeue,Helvetica Neue" font-size="61.0" fill="#FEFFFF" transform="matrix(1.00, 0.00, -0.00, -1.00, 908.4, 789.0)">s</text><text xml:space="preserve" font-family="HelveticaNeue,Helvetica Neue" font-size="61.0" fill="#FEFFFF" transform="matrix(1.00, 0.00, -0.00, -1.00, 938.9, 789.0)">,</text><text xml:space="preserve" font-family="HelveticaNeue,Helvetica Neue" font-size="61.0" fill="#FEFFFF" transform="matrix(1.00, 0.00, -0.00, -1.00, 955.8, 789.0)"> </text><text xml:space="preserve" font-family="HelveticaNeue,Helvetica Neue" font-size="61.0" fill="#FEFFFF" transform="matrix(1.00, 0.00, -0.00, -1.00, 972.8, 789.0)">n</text><text xml:space="preserve" font-family="HelveticaNeue,Helvetica Neue" font-size="61.0" fill="#FEFFFF" transform="matrix(1.00, 0.00, -0.00, -1.00, 1006.7, 789.0)">g</text><text xml:space="preserve" font-family="HelveticaNeue,Helvetica Neue" font-size="61.0" fill="#FEFFFF" transform="matrix(1.00, 0.00, -0.00, -1.00, 1041.7, 789.0)">-</text><text xml:space="preserve" font-family="HelveticaNeue,Helvetica Neue" font-size="61.0" fill="#FEFFFF" transform="matrix(1.00, 0.00, -0.00, -1.00, 1065.5, 789.0)">k</text><text xml:space="preserve" font-family="HelveticaNeue,Helvetica Neue" font-size="61.0" fill="#FEFFFF" transform="matrix(1.00, 0.00, -0.00, -1.00, 1097.1, 789.0)">e</text><text xml:space="preserve" font-family="HelveticaNeue,Helvetica Neue" font-size="61.0" fill="#FEFFFF" transform="matrix(1.00, 0.00, -0.00, -1.00, 1129.9, 789.0)">y</text><text xml:space="preserve" font-family="HelveticaNeue,Helvetica Neue" font-size="61.0" fill="#FEFFFF" transform="matrix(1.00, 0.00, -0.00, -1.00, 1160.4, 789.0)">d</text><text xml:space="preserve" font-family="HelveticaNeue,Helvetica Neue" font-size="61.0" fill="#FEFFFF" transform="matrix(1.00, 0.00, -0.00, -1.00, 1196.5, 789.0)">o</text><text xml:space="preserve" font-family="HelveticaNeue,Helvetica Neue" font-size="61.0" fill="#FEFFFF" transform="matrix(1.00, 0.00, -0.00, -1.00, 1231.6, 789.0)">w</text><text xml:space="preserve" font-family="HelveticaNeue,Helvetica Neue" font-size="61.0" fill="#FEFFFF" transform="matrix(1.00, 0.00, -0.00, -1.00, 1277.8, 789.0)">n</text><text xml:space="preserve" font-family="HelveticaNeue,Helvetica Neue" font-size="61.0" fill="#FEFFFF" transform="matrix(1.00, 0.00, -0.00, -1.00, 1311.7, 789.0)">,</text><text xml:space="preserve" font-family="HelveticaNeue,Helvetica Neue" font-size="61.0" fill="#FEFFFF" transform="matrix(1.00, 0.00, -0.00, -1.00, 1328.7, 789.0)"> </text><text xml:space="preserve" font-family="HelveticaNeue,Helvetica Neue" font-size="61.0" fill="#FEFFFF" transform="matrix(1.00, 0.00, -0.00, -1.00, 1345.6, 789.0)">n</text><text xml:space="preserve" font-family="HelveticaNeue,Helvetica Neue" font-size="61.0" fill="#FEFFFF" transform="matrix(1.00, 0.00, -0.00, -1.00, 1379.5, 789.0)">g</text><text xml:space="preserve" font-family="HelveticaNeue,Helvetica Neue" font-size="61.0" fill="#FEFFFF" transform="matrix(1.00, 0.00, -0.00, -1.00, 1414.6, 789.0)">-</text><text xml:space="preserve" font-family="HelveticaNeue,Helvetica Neue" font-size="61.0" fill="#FEFFFF" transform="matrix(1.00, 0.00, -0.00, -1.00, 1438.3, 789.0)">c</text><text xml:space="preserve" font-family="HelveticaNeue,Helvetica Neue" font-size="61.0" fill="#FEFFFF" transform="matrix(1.00, 0.00, -0.00, -1.00, 1471.0, 789.0)">l</text><text xml:space="preserve" font-family="HelveticaNeue,Helvetica Neue" font-size="61.0" fill="#FEFFFF" transform="matrix(1.00, 0.00, -0.00, -1.00, 1484.6, 789.0)">i</text><text xml:space="preserve" font-family="HelveticaNeue,Helvetica Neue" font-size="61.0" fill="#FEFFFF" transform="matrix(1.00, 0.00, -0.00, -1.00, 1498.1, 789.0)">c</text><text xml:space="preserve" font-family="HelveticaNeue,Helvetica Neue" font-size="61.0" fill="#FEFFFF" transform="matrix(1.00, 0.00, -0.00, -1.00, 1530.9, 789.0)">k</text><text xml:space="preserve" font-family="HelveticaNeue,Helvetica Neue" font-size="61.0" fill="#FEFFFF" transform="matrix(1.00, 0.00, -0.00, -1.00, 1562.5, 789.0)">,</text><text xml:space="preserve" font-family="HelveticaNeue,Helvetica Neue" font-size="61.0" fill="#FEFFFF" transform="matrix(1.00, 0.00, -0.00, -1.00, 1579.5, 789.0)"> </text><text xml:space="preserve" font-family="HelveticaNeue,Helvetica Neue" font-size="61.0" fill="#FEFFFF" transform="matrix(1.00, 0.00, -0.00, -1.00, 1596.5, 789.0)">e</text><text xml:space="preserve" font-family="HelveticaNeue,Helvetica Neue" font-size="61.0" fill="#FEFFFF" transform="matrix(1.00, 0.00, -0.00, -1.00, 1629.2, 789.0)">t</text><text xml:space="preserve" font-family="HelveticaNeue,Helvetica Neue" font-size="61.0" fill="#FEFFFF" transform="matrix(1.00, 0.00, -0.00, -1.00, 1648.4, 789.0)">c</text><text xml:space="preserve" font-family="HelveticaNeue,Helvetica Neue" font-size="61.0" fill="#FEFFFF" transform="matrix(1.00, 0.00, -0.00, -1.00, 1681.2, 789.0)">)</text><text xml:space="preserve" font-family="HelveticaNeue,Helvetica Neue" font-size="61.0" fill="#FEFFFF" transform="matrix(1.00, 0.00, -0.00, -1.00, 1697.0, 789.0)">
</text><text xml:space="preserve" font-family="HelveticaNeue,Helvetica Neue" font-size="45.8" fill="#FEFFFF" transform="matrix(1.00, 0.00, -0.00, -1.00, 186.5, 685.9)">•</text><text xml:space="preserve" font-family="HelveticaNeue,Helvetica Neue" font-size="61.0" fill="#FEFFFF" transform="matrix(1.00, 0.00, -0.00, -1.00, 245.2, 680.3)">$</text><text xml:space="preserve" font-family="HelveticaNeue,Helvetica Neue" font-size="61.0" fill="#FEFFFF" transform="matrix(1.00, 0.00, -0.00, -1.00, 279.1, 680.3)">q</text><text xml:space="preserve" font-family="HelveticaNeue,Helvetica Neue" font-size="61.0" fill="#FEFFFF" transform="matrix(1.00, 0.00, -0.00, -1.00, 315.3, 680.3)"> </text><text xml:space="preserve" font-family="HelveticaNeue,Helvetica Neue" font-size="61.0" fill="#FEFFFF" transform="matrix(1.00, 0.00, -0.00, -1.00, 332.2, 680.3)">s</text><text xml:space="preserve" font-family="HelveticaNeue,Helvetica Neue" font-size="61.0" fill="#FEFFFF" transform="matrix(1.00, 0.00, -0.00, -1.00, 362.7, 680.3)">e</text><text xml:space="preserve" font-family="HelveticaNeue,Helvetica Neue" font-size="61.0" fill="#FEFFFF" transform="matrix(1.00, 0.00, -0.00, -1.00, 395.5, 680.3)">r</text><text xml:space="preserve" font-family="HelveticaNeue,Helvetica Neue" font-size="61.0" fill="#FEFFFF" transform="matrix(1.00, 0.00, -0.00, -1.00, 415.8, 680.3)">v</text><text xml:space="preserve" font-family="HelveticaNeue,Helvetica Neue" font-size="61.0" fill="#FEFFFF" transform="matrix(1.00, 0.00, -0.00, -1.00, 446.3, 680.3)">i</text><text xml:space="preserve" font-family="HelveticaNeue,Helvetica Neue" font-size="61.0" fill="#FEFFFF" transform="matrix(1.00, 0.00, -0.00, -1.00, 459.9, 680.3)">c</text><text xml:space="preserve" font-family="HelveticaNeue,Helvetica Neue" font-size="61.0" fill="#FEFFFF" transform="matrix(1.00, 0.00, -0.00, -1.00, 492.6, 680.3)">e</text><text xml:space="preserve" font-family="HelveticaNeue,Helvetica Neue" font-size="61.0" fill="#FEFFFF" transform="matrix(1.00, 0.00, -0.00, -1.00, 525.4, 680.3)">
</text><text xml:space="preserve" font-family="HelveticaNeue,Helvetica Neue" font-size="45.8" fill="#FEFFFF" transform="matrix(1.00, 0.00, -0.00, -1.00, 186.5, 577.2)">•</text><text xml:space="preserve" font-family="HelveticaNeue,Helvetica Neue" font-size="61.0" fill="#FEFFFF" transform="matrix(1.00, 0.00, -0.00, -1.00, 245.2, 571.7)">$</text><text xml:space="preserve" font-family="HelveticaNeue,Helvetica Neue" font-size="61.0" fill="#FEFFFF" transform="matrix(1.00, 0.00, -0.00, -1.00, 279.1, 571.7)">h</text><text xml:space="preserve" font-family="HelveticaNeue,Helvetica Neue" font-size="61.0" fill="#FEFFFF" transform="matrix(1.00, 0.00, -0.00, -1.00, 313.0, 571.7)">t</text><text xml:space="preserve" font-family="HelveticaNeue,Helvetica Neue" font-size="61.0" fill="#FEFFFF" transform="matrix(1.00, 0.00, -0.00, -1.00, 332.2, 571.7)">t</text><text xml:space="preserve" font-family="HelveticaNeue,Helvetica Neue" font-size="61.0" fill="#FEFFFF" transform="matrix(1.00, 0.00, -0.00, -1.00, 351.5, 571.7)">p</text><text xml:space="preserve" font-family="HelveticaNeue,Helvetica Neue" font-size="61.0" fill="#FEFFFF" transform="matrix(1.00, 0.00, -0.00, -1.00, 387.6, 571.7)"> </text><text xml:space="preserve" font-family="HelveticaNeue,Helvetica Neue" font-size="61.0" fill="#FEFFFF" transform="matrix(1.00, 0.00, -0.00, -1.00, 404.6, 571.7)">s</text><text xml:space="preserve" font-family="HelveticaNeue,Helvetica Neue" font-size="61.0" fill="#FEFFFF" transform="matrix(1.00, 0.00, -0.00, -1.00, 435.1, 571.7)">e</text><text xml:space="preserve" font-family="HelveticaNeue,Helvetica Neue" font-size="61.0" fill="#FEFFFF" transform="matrix(1.00, 0.00, -0.00, -1.00, 467.8, 571.7)">r</text><text xml:space="preserve" font-family="HelveticaNeue,Helvetica Neue" font-size="61.0" fill="#FEFFFF" transform="matrix(1.00, 0.00, -0.00, -1.00, 488.2, 571.7)">v</text><text xml:space="preserve" font-family="HelveticaNeue,Helvetica Neue" font-size="61.0" fill="#FEFFFF" transform="matrix(1.00, 0.00, -0.00, -1.00, 518.7, 571.7)">i</text><text xml:space="preserve" font-family="HelveticaNeue,Helvetica Neue" font-size="61.0" fill="#FEFFFF" transform="matrix(1.00, 0.00, -0.00, -1.00, 532.2, 571.7)">c</text><text xml:space="preserve" font-family="HelveticaNeue,Helvetica Neue" font-size="61.0" fill="#FEFFFF" transform="matrix(1.00, 0.00, -0.00, -1.00, 565.0, 571.7)">e</text><text xml:space="preserve" font-family="HelveticaNeue,Helvetica Neue" font-size="61.0" fill="#FEFFFF" transform="matrix(1.00, 0.00, -0.00, -1.00, 597.7, 571.7)">
</text><text xml:space="preserve" font-family="HelveticaNeue,Helvetica Neue" font-size="45.8" fill="#FEFFFF" transform="matrix(1.00, 0.00, -0.00, -1.00, 186.5, 468.6)">•</text><text xml:space="preserve" font-family="HelveticaNeue,Helvetica Neue" font-size="61.0" fill="#FEFFFF" transform="matrix(1.00, 0.00, -0.00, -1.00, 245.2, 463.0)">$</text><text xml:space="preserve" font-family="HelveticaNeue,Helvetica Neue" font-size="61.0" fill="#FEFFFF" transform="matrix(1.00, 0.00, -0.00, -1.00, 279.1, 463.0)">t</text><text xml:space="preserve" font-family="HelveticaNeue,Helvetica Neue" font-size="61.0" fill="#FEFFFF" transform="matrix(1.00, 0.00, -0.00, -1.00, 298.3, 463.0)">i</text><text xml:space="preserve" font-family="HelveticaNeue,Helvetica Neue" font-size="61.0" fill="#FEFFFF" transform="matrix(1.00, 0.00, -0.00, -1.00, 311.9, 463.0)">m</text><text xml:space="preserve" font-family="HelveticaNeue,Helvetica Neue" font-size="61.0" fill="#FEFFFF" transform="matrix(1.00, 0.00, -0.00, -1.00, 363.9, 463.0)">e</text><text xml:space="preserve" font-family="HelveticaNeue,Helvetica Neue" font-size="61.0" fill="#FEFFFF" transform="matrix(1.00, 0.00, -0.00, -1.00, 396.7, 463.0)">o</text><text xml:space="preserve" font-family="HelveticaNeue,Helvetica Neue" font-size="61.0" fill="#FEFFFF" transform="matrix(1.00, 0.00, -0.00, -1.00, 431.7, 463.0)">u</text><text xml:space="preserve" font-family="HelveticaNeue,Helvetica Neue" font-size="61.0" fill="#FEFFFF" transform="matrix(1.00, 0.00, -0.00, -1.00, 465.6, 463.0)">t</text><text xml:space="preserve" font-family="HelveticaNeue,Helvetica Neue" font-size="61.0" fill="#FEFFFF" transform="matrix(1.00, 0.00, -0.00, -1.00, 484.8, 463.0)">
</text><text xml:space="preserve" font-family="HelveticaNeue,Helvetica Neue" font-size="45.8" fill="#FEFFFF" transform="matrix(1.00, 0.00, -0.00, -1.00, 186.5, 359.9)">•</text><text xml:space="preserve" font-family="HelveticaNeue,Helvetica Neue" font-size="61.0" fill="#FEFFFF" transform="matrix(1.00, 0.00, -0.00, -1.00, 245.2, 354.4)">$</text><text xml:space="preserve" font-family="HelveticaNeue,Helvetica Neue" font-size="61.0" fill="#FEFFFF" transform="matrix(1.00, 0.00, -0.00, -1.00, 279.1, 354.4)">e</text><text xml:space="preserve" font-family="HelveticaNeue,Helvetica Neue" font-size="61.0" fill="#FEFFFF" transform="matrix(1.00, 0.00, -0.00, -1.00, 311.9, 354.4)">v</text><text xml:space="preserve" font-family="HelveticaNeue,Helvetica Neue" font-size="61.0" fill="#FEFFFF" transform="matrix(1.00, 0.00, -0.00, -1.00, 342.4, 354.4)">a</text><text xml:space="preserve" font-family="HelveticaNeue,Helvetica Neue" font-size="61.0" fill="#FEFFFF" transform="matrix(1.00, 0.00, -0.00, -1.00, 375.1, 354.4)">l</text><text xml:space="preserve" font-family="HelveticaNeue,Helvetica Neue" font-size="61.0" fill="#FEFFFF" transform="matrix(1.00, 0.00, -0.00, -1.00, 388.7, 354.4)">A</text><text xml:space="preserve" font-family="HelveticaNeue,Helvetica Neue" font-size="61.0" fill="#FEFFFF" transform="matrix(1.00, 0.00, -0.00, -1.00, 428.2, 354.4)">s</text><text xml:space="preserve" font-family="HelveticaNeue,Helvetica Neue" font-size="61.0" fill="#FEFFFF" transform="matrix(1.00, 0.00, -0.00, -1.00, 458.7, 354.4)">y</text><text xml:space="preserve" font-family="HelveticaNeue,Helvetica Neue" font-size="61.0" fill="#FEFFFF" transform="matrix(1.00, 0.00, -0.00, -1.00, 489.2, 354.4)">n</text><text xml:space="preserve" font-family="HelveticaNeue,Helvetica Neue" font-size="61.0" fill="#FEFFFF" transform="matrix(1.00, 0.00, -0.00, -1.00, 523.1, 354.4)">c</text><text xml:space="preserve" font-family="HelveticaNeue,Helvetica Neue" font-size="61.0" fill="#FEFFFF" transform="matrix(1.00, 0.00, -0.00, -1.00, 555.9, 354.4)">
</text><text xml:space="preserve" font-family="HelveticaNeue,Helvetica Neue" font-size="45.8" fill="#FEFFFF" transform="matrix(1.00, 0.00, -0.00, -1.00, 186.5, 251.3)">•</text><text xml:space="preserve" font-family="HelveticaNeue,Helvetica Neue" font-size="61.0" fill="#FEFFFF" transform="matrix(1.00, 0.00, -0.00, -1.00, 245.2, 245.7)">d</text><text xml:space="preserve" font-family="HelveticaNeue,Helvetica Neue" font-size="61.0" fill="#FEFFFF" transform="matrix(1.00, 0.00, -0.00, -1.00, 281.4, 245.7)">u</text><text xml:space="preserve" font-family="HelveticaNeue,Helvetica Neue" font-size="61.0" fill="#FEFFFF" transform="matrix(1.00, 0.00, -0.00, -1.00, 315.3, 245.7)">r</text><text xml:space="preserve" font-family="HelveticaNeue,Helvetica Neue" font-size="61.0" fill="#FEFFFF" transform="matrix(1.00, 0.00, -0.00, -1.00, 335.6, 245.7)">i</text><text xml:space="preserve" font-family="HelveticaNeue,Helvetica Neue" font-size="61.0" fill="#FEFFFF" transform="matrix(1.00, 0.00, -0.00, -1.00, 349.1, 245.7)">n</text><text xml:space="preserve" font-family="HelveticaNeue,Helvetica Neue" font-size="61.0" fill="#FEFFFF" transform="matrix(1.00, 0.00, -0.00, -1.00, 383.1, 245.7)">g</text><text xml:space="preserve" font-family="HelveticaNeue,Helvetica Neue" font-size="61.0" fill="#FEFFFF" transform="matrix(1.00, 0.00, -0.00, -1.00, 418.1, 245.7)"> </text><text xml:space="preserve" font-family="HelveticaNeue,Helvetica Neue" font-size="61.0" fill="#FEFFFF" transform="matrix(1.00, 0.00, -0.00, -1.00, 435.0, 245.7)">a</text><text xml:space="preserve" font-family="HelveticaNeue,Helvetica Neue" font-size="61.0" fill="#FEFFFF" transform="matrix(1.00, 0.00, -0.00, -1.00, 467.8, 245.7)">n</text><text xml:space="preserve" font-family="HelveticaNeue,Helvetica Neue" font-size="61.0" fill="#FEFFFF" transform="matrix(1.00, 0.00, -0.00, -1.00, 501.7, 245.7)">i</text><text xml:space="preserve" font-family="HelveticaNeue,Helvetica Neue" font-size="61.0" fill="#FEFFFF" transform="matrix(1.00, 0.00, -0.00, -1.00, 515.2, 245.7)">m</text><text xml:space="preserve" font-family="HelveticaNeue,Helvetica Neue" font-size="61.0" fill="#FEFFFF" transform="matrix(1.00, 0.00, -0.00, -1.00, 567.3, 245.7)">a</text><text xml:space="preserve" font-family="HelveticaNeue,Helvetica Neue" font-size="61.0" fill="#FEFFFF" transform="matrix(1.00, 0.00, -0.00, -1.00, 600.0, 245.7)">t</text><text xml:space="preserve" font-family="HelveticaNeue,Helvetica Neue" font-size="61.0" fill="#FEFFFF" transform="matrix(1.00, 0.00, -0.00, -1.00, 619.2, 245.7)">i</text><text xml:space="preserve" font-family="HelveticaNeue,Helvetica Neue" font-size="61.0" fill="#FEFFFF" transform="matrix(1.00, 0.00, -0.00, -1.00, 632.8, 245.7)">o</text><text xml:space="preserve" font-family="HelveticaNeue,Helvetica Neue" font-size="61.0" fill="#FEFFFF" transform="matrix(1.00, 0.00, -0.00, -1.00, 667.8, 245.7)">n</text><text xml:space="preserve" font-family="HelveticaNeue,Helvetica Neue" font-size="61.0" fill="#FEFFFF" transform="matrix(1.00, 0.00, -0.00, -1.00, 701.7, 245.7)">s</text><text xml:space="preserve" font-family="HelveticaNeue,Helvetica Neue" font-size="61.0" fill="#FEFFFF" transform="matrix(1.00, 0.00, -0.00, -1.00, 732.2, 245.7)">
</text><text xml:space="preserve" font-family="HelveticaNeue,Helvetica Neue" font-size="45.8" fill="#FEFFFF" transform="matrix(1.00, 0.00, -0.00, -1.00, 186.5, 142.6)">•</text><text xml:space="preserve" font-family="HelveticaNeue,Helvetica Neue" font-size="61.0" fill="#FEFFFF" transform="matrix(1.00, 0.00, -0.00, -1.00, 245.2, 137.1)">a</text><text xml:space="preserve" font-family="HelveticaNeue,Helvetica Neue" font-size="61.0" fill="#FEFFFF" transform="matrix(1.00, 0.00, -0.00, -1.00, 277.9, 137.1)">n</text><text xml:space="preserve" font-family="HelveticaNeue,Helvetica Neue" font-size="61.0" fill="#FEFFFF" transform="matrix(1.00, 0.00, -0.00, -1.00, 311.9, 137.1)">d</text><text xml:space="preserve" font-family="HelveticaNeue,Helvetica Neue" font-size="61.0" fill="#FEFFFF" transform="matrix(1.00, 0.00, -0.00, -1.00, 348.0, 137.1)"> </text><text xml:space="preserve" font-family="HelveticaNeue,Helvetica Neue" font-size="61.0" fill="#FEFFFF" transform="matrix(1.00, 0.00, -0.00, -1.00, 365.0, 137.1)">m</text><text xml:space="preserve" font-family="HelveticaNeue,Helvetica Neue" font-size="61.0" fill="#FEFFFF" transform="matrix(1.00, 0.00, -0.00, -1.00, 417.0, 137.1)">a</text><text xml:space="preserve" font-family="HelveticaNeue,Helvetica Neue" font-size="61.0" fill="#FEFFFF" transform="matrix(1.00, 0.00, -0.00, -1.00, 449.8, 137.1)">n</text><text xml:space="preserve" font-family="HelveticaNeue,Helvetica Neue" font-size="61.0" fill="#FEFFFF" transform="matrix(1.00, 0.00, -0.00, -1.00, 483.7, 137.1)">u</text><text xml:space="preserve" font-family="HelveticaNeue,Helvetica Neue" font-size="61.0" fill="#FEFFFF" transform="matrix(1.00, 0.00, -0.00, -1.00, 517.6, 137.1)">a</text><text xml:space="preserve" font-family="HelveticaNeue,Helvetica Neue" font-size="61.0" fill="#FEFFFF" transform="matrix(1.00, 0.00, -0.00, -1.00, 550.4, 137.1)">l</text><text xml:space="preserve" font-family="HelveticaNeue,Helvetica Neue" font-size="61.0" fill="#FEFFFF" transform="matrix(1.00, 0.00, -0.00, -1.00, 563.9, 137.1)">l</text><text xml:space="preserve" font-family="HelveticaNeue,Helvetica Neue" font-size="61.0" fill="#FEFFFF" transform="matrix(1.00, 0.00, -0.00, -1.00, 577.5, 137.1)">y</text><text xml:space="preserve" font-family="HelveticaNeue,Helvetica Neue" font-size="61.0" fill="#FEFFFF" transform="matrix(1.00, 0.00, -0.00, -1.00, 608.0, 137.1)"> </text><text xml:space="preserve" font-family="HelveticaNeue,Helvetica Neue" font-size="61.0" fill="#FEFFFF" transform="matrix(1.00, 0.00, -0.00, -1.00, 624.9, 137.1)">t</text><text xml:space="preserve" font-family="HelveticaNeue,Helvetica Neue" font-size="61.0" fill="#FEFFFF" transform="matrix(1.00, 0.00, -0.00, -1.00, 644.1, 137.1)">r</text><text xml:space="preserve" font-family="HelveticaNeue,Helvetica Neue" font-size="61.0" fill="#FEFFFF" transform="matrix(1.00, 0.00, -0.00, -1.00, 664.4, 137.1)">i</text><text xml:space="preserve" font-family="HelveticaNeue,Helvetica Neue" font-size="61.0" fill="#FEFFFF" transform="matrix(1.00, 0.00, -0.00, -1.00, 678.0, 137.1)">g</text><text xml:space="preserve" font-family="HelveticaNeue,Helvetica Neue" font-size="61.0" fill="#FEFFFF" transform="matrix(1.00, 0.00, -0.00, -1.00, 713.0, 137.1)">g</text><text xml:space="preserve" font-family="HelveticaNeue,Helvetica Neue" font-size="61.0" fill="#FEFFFF" transform="matrix(1.00, 0.00, -0.00, -1.00, 748.0, 137.1)">e</text><text xml:space="preserve" font-family="HelveticaNeue,Helvetica Neue" font-size="61.0" fill="#FEFFFF" transform="matrix(1.00, 0.00, -0.00, -1.00, 780.8, 137.1)">r</text><text xml:space="preserve" font-family="HelveticaNeue,Helvetica Neue" font-size="61.0" fill="#FEFFFF" transform="matrix(1.00, 0.00, -0.00, -1.00, 800.0, 137.1)">e</text><text xml:space="preserve" font-family="HelveticaNeue,Helvetica Neue" font-size="61.0" fill="#FEFFFF" transform="matrix(1.00, 0.00, -0.00, -1.00, 832.7, 137.1)">d</text><text xml:space="preserve" font-family="HelveticaNeue,Helvetica Neue" font-size="61.0" fill="#FEFFFF" transform="matrix(1.00, 0.00, -0.00, -1.00, 868.9, 137.1)"> </text><text xml:space="preserve" font-family="HelveticaNeue,Helvetica Neue" font-size="61.0" fill="#FEFFFF" transform="matrix(1.00, 0.00, -0.00, -1.00, 885.9, 137.1)">(</text><text xml:space="preserve" font-family="HelveticaNeue,Helvetica Neue" font-size="61.0" fill="#FEFFFF" transform="matrix(1.00, 0.00, -0.00, -1.00, 901.7, 137.1)">$</text><text xml:space="preserve" font-family="HelveticaNeue,Helvetica Neue" font-size="61.0" fill="#FEFFFF" transform="matrix(1.00, 0.00, -0.00, -1.00, 935.6, 137.1)">a</text><text xml:space="preserve" font-family="HelveticaNeue,Helvetica Neue" font-size="61.0" fill="#FEFFFF" transform="matrix(1.00, 0.00, -0.00, -1.00, 968.3, 137.1)">p</text><text xml:space="preserve" font-family="HelveticaNeue,Helvetica Neue" font-size="61.0" fill="#FEFFFF" transform="matrix(1.00, 0.00, -0.00, -1.00, 1004.5, 137.1)">p</text><text xml:space="preserve" font-family="HelveticaNeue,Helvetica Neue" font-size="61.0" fill="#FEFFFF" transform="matrix(1.00, 0.00, -0.00, -1.00, 1040.7, 137.1)">l</text><text xml:space="preserve" font-family="HelveticaNeue,Helvetica Neue" font-size="61.0" fill="#FEFFFF" transform="matrix(1.00, 0.00, -0.00, -1.00, 1054.2, 137.1)">y</text><text xml:space="preserve" font-family="HelveticaNeue,Helvetica Neue" font-size="61.0" fill="#FEFFFF" transform="matrix(1.00, 0.00, -0.00, -1.00, 1080.2, 137.1)">,</text><text xml:space="preserve" font-family="HelveticaNeue,Helvetica Neue" font-size="61.0" fill="#FEFFFF" transform="matrix(1.00, 0.00, -0.00, -1.00, 1097.2, 137.1)"> </text><text xml:space="preserve" font-family="HelveticaNeue,Helvetica Neue" font-size="61.0" fill="#FEFFFF" transform="matrix(1.00, 0.00, -0.00, -1.00, 1114.1, 137.1)">$</text><text xml:space="preserve" font-family="HelveticaNeue,Helvetica Neue" font-size="61.0" fill="#FEFFFF" transform="matrix(1.00, 0.00, -0.00, -1.00, 1148.1, 137.1)">d</text><text xml:space="preserve" font-family="HelveticaNeue,Helvetica Neue" font-size="61.0" fill="#FEFFFF" transform="matrix(1.00, 0.00, -0.00, -1.00, 1184.2, 137.1)">i</text><text xml:space="preserve" font-family="HelveticaNeue,Helvetica Neue" font-size="61.0" fill="#FEFFFF" transform="matrix(1.00, 0.00, -0.00, -1.00, 1197.8, 137.1)">g</text><text xml:space="preserve" font-family="HelveticaNeue,Helvetica Neue" font-size="61.0" fill="#FEFFFF" transform="matrix(1.00, 0.00, -0.00, -1.00, 1232.8, 137.1)">e</text><text xml:space="preserve" font-family="HelveticaNeue,Helvetica Neue" font-size="61.0" fill="#FEFFFF" transform="matrix(1.00, 0.00, -0.00, -1.00, 1265.5, 137.1)">s</text><text xml:space="preserve" font-family="HelveticaNeue,Helvetica Neue" font-size="61.0" fill="#FEFFFF" transform="matrix(1.00, 0.00, -0.00, -1.00, 1296.0, 137.1)">t</text><text xml:space="preserve" font-family="HelveticaNeue,Helvetica Neue" font-size="61.0" fill="#FEFFFF" transform="matrix(1.00, 0.00, -0.00, -1.00, 1315.3, 137.1)">)</text></g></svg>