<?xml version="1.0" encoding="UTF-8" standalone="no"?><svg xmlns="http://www.w3.org/2000/svg" xmlns:xlink="http://www.w3.org/1999/xlink" clip-rule="evenodd" stroke-miterlimit="10" viewBox="0 0 1920 1080"><desc>SVG generated by Keynote</desc><defs></defs><g transform="matrix(1.00, 0.00, -0.00, -1.00, 0.0, 1080.0)"><path d="M 0.0 1080.0 L 1920.0 1080.0 L 1920.0 0.0 L 0.0 0.0 Z M 0.0 1080.0 " fill="#000000"></path><g opacity="0.00"><g><clipPath id="clip0x6000014a3ba0"><path d="M 333.0 488.0 L 1587.0 488.0 L 1587.0 640.0 L 333.0 640.0 Z M 333.0 488.0 "></path></clipPath><g clip-path="url(#clip0x6000014a3ba0)"><text xml:space="preserve" font-family="Menlo-Regular,Menlo" font-size="59.0" fill="#FEFFFF" transform="matrix(1.00, 0.00, -0.00, -1.00, 339.8, 578.3)">s</text><text xml:space="preserve" font-family="Menlo-Regular,Menlo" font-size="59.0" fill="#FEFFFF" transform="matrix(1.00, 0.00, -0.00, -1.00, 375.4, 578.3)">a</text><text xml:space="preserve" font-family="Menlo-Regular,Menlo" font-size="59.0" fill="#FEFFFF" transform="matrix(1.00, 0.00, -0.00, -1.00, 410.9, 578.3)">m</text><text xml:space="preserve" font-family="Menlo-Regular,Menlo" font-size="59.0" fill="#FEFFFF" transform="matrix(1.00, 0.00, -0.00, -1.00, 446.4, 578.3)">p</text><text xml:space="preserve" font-family="Menlo-Regular,Menlo" font-size="59.0" fill="#FEFFFF" transform="matrix(1.00, 0.00, -0.00, -1.00, 482.0, 578.3)">l</text><text xml:space="preserve" font-family="Menlo-Regular,Menlo" font-size="59.0" fill="#FEFFFF" transform="matrix(1.00, 0.00, -0.00, -1.00, 517.5, 578.3)">e</text><text xml:space="preserve" font-family="Menlo-Regular,Menlo" font-size="59.0" fill="#FEFFFF" transform="matrix(1.00, 0.00, -0.00, -1.00, 553.0, 578.3)">F</text><text xml:space="preserve" font-family="Menlo-Regular,Menlo" font-size="59.0" fill="#FEFFFF" transform="matrix(1.00, 0.00, -0.00, -1.00, 588.5, 578.3)">r</text><text xml:space="preserve" font-family="Menlo-Regular,Menlo" font-size="59.0" fill="#FEFFFF" transform="matrix(1.00, 0.00, -0.00, -1.00, 624.1, 578.3)">a</text><text xml:space="preserve" font-family="Menlo-Regular,Menlo" font-size="59.0" fill="#FEFFFF" transform="matrix(1.00, 0.00, -0.00, -1.00, 659.6, 578.3)">m</text><text xml:space="preserve" font-family="Menlo-Regular,Menlo" font-size="59.0" fill="#FEFFFF" transform="matrix(1.00, 0.00, -0.00, -1.00, 695.1, 578.3)">e</text><text xml:space="preserve" font-family="Menlo-Regular,Menlo" font-size="59.0" fill="#FEFFFF" transform="matrix(1.00, 0.00, -0.00, -1.00, 730.6, 578.3)">R</text><text xml:space="preserve" font-family="Menlo-Regular,Menlo" font-size="59.0" fill="#FEFFFF" transform="matrix(1.00, 0.00, -0.00, -1.00, 766.2, 578.3)">a</text><text xml:space="preserve" font-family="Menlo-Regular,Menlo" font-size="59.0" fill="#FEFFFF" transform="matrix(1.00, 0.00, -0.00, -1.00, 801.7, 578.3)">t</text><text xml:space="preserve" font-family="Menlo-Regular,Menlo" font-size="59.0" fill="#FEFFFF" transform="matrix(1.00, 0.00, -0.00, -1.00, 837.2, 578.3)">e</text><text xml:space="preserve" font-family="Menlo-Regular,Menlo" font-size="59.0" fill="#FEFFFF" transform="matrix(1.00, 0.00, -0.00, -1.00, 872.7, 578.3)">(</text><text xml:space="preserve" font-family="Menlo-Regular,Menlo" font-size="59.0" fill="#FEFFFF" transform="matrix(1.00, 0.00, -0.00, -1.00, 908.3, 578.3)">1</text><text xml:space="preserve" font-family="Menlo-Regular,Menlo" font-size="59.0" fill="#FEFFFF" transform="matrix(1.00, 0.00, -0.00, -1.00, 943.8, 578.3)">0</text><text xml:space="preserve" font-family="Menlo-Regular,Menlo" font-size="59.0" fill="#FEFFFF" transform="matrix(1.00, 0.00, -0.00, -1.00, 979.3, 578.3)">0</text><text xml:space="preserve" font-family="Menlo-Regular,Menlo" font-size="59.0" fill="#FEFFFF" transform="matrix(1.00, 0.00, -0.00, -1.00, 1014.9, 578.3)">0</text><text xml:space="preserve" font-family="Menlo-Regular,Menlo" font-size="59.0" fill="#FEFFFF" transform="matrix(1.00, 0.00, -0.00, -1.00, 1050.4, 578.3)">0</text><text xml:space="preserve" font-family="Menlo-Regular,Menlo" font-size="59.0" fill="#FEFFFF" transform="matrix(1.00, 0.00, -0.00, -1.00, 1085.9, 578.3)">)</text><text xml:space="preserve" font-family="Menlo-Regular,Menlo" font-size="59.0" fill="#FEFFFF" transform="matrix(1.00, 0.00, -0.00, -1.00, 1121.3, 578.3)"> </text><text xml:space="preserve" font-family="Menlo-Regular,Menlo" font-size="59.0" fill="#FEFFFF" transform="matrix(1.00, 0.00, -0.00, -1.00, 339.8, 509.3)"> </text><text xml:space="preserve" font-family="Menlo-Regular,Menlo" font-size="59.0" fill="#FEFFFF" transform="matrix(1.00, 0.00, -0.00, -1.00, 375.4, 509.3)"> </text><text xml:space="preserve" font-family="Menlo-Regular,Menlo" font-size="59.0" fill="#FEFFFF" transform="matrix(1.00, 0.00, -0.00, -1.00, 410.9, 509.3)">.</text><text xml:space="preserve" font-family="Menlo-Regular,Menlo" font-size="59.0" fill="#FEFFFF" transform="matrix(1.00, 0.00, -0.00, -1.00, 446.4, 509.3)">t</text><text xml:space="preserve" font-family="Menlo-Regular,Menlo" font-size="59.0" fill="#FEFFFF" transform="matrix(1.00, 0.00, -0.00, -1.00, 481.9, 509.3)">h</text><text xml:space="preserve" font-family="Menlo-Regular,Menlo" font-size="59.0" fill="#FEFFFF" transform="matrix(1.00, 0.00, -0.00, -1.00, 517.5, 509.3)">e</text><text xml:space="preserve" font-family="Menlo-Regular,Menlo" font-size="59.0" fill="#FEFFFF" transform="matrix(1.00, 0.00, -0.00, -1.00, 553.0, 509.3)">n</text><text xml:space="preserve" font-family="Menlo-Regular,Menlo" font-size="59.0" fill="#FEFFFF" transform="matrix(1.00, 0.00, -0.00, -1.00, 588.5, 509.3)">(</text><text xml:space="preserve" font-family="Menlo-Regular,Menlo" font-size="59.0" fill="#FEFFFF" transform="matrix(1.00, 0.00, -0.00, -1.00, 624.0, 509.3)">f</text><text xml:space="preserve" font-family="Menlo-Regular,Menlo" font-size="59.0" fill="#FEFFFF" transform="matrix(1.00, 0.00, -0.00, -1.00, 659.6, 509.3)">p</text><text xml:space="preserve" font-family="Menlo-Regular,Menlo" font-size="59.0" fill="#FEFFFF" transform="matrix(1.00, 0.00, -0.00, -1.00, 695.1, 509.3)">s</text><text xml:space="preserve" font-family="Menlo-Regular,Menlo" font-size="59.0" fill="#FEFFFF" transform="matrix(1.00, 0.00, -0.00, -1.00, 730.6, 509.3)">=</text><text xml:space="preserve" font-family="Menlo-Regular,Menlo" font-size="59.0" fill="#FEFFFF" transform="matrix(1.00, 0.00, -0.00, -1.00, 766.2, 509.3)">&gt;</text><text xml:space="preserve" font-family="Menlo-Regular,Menlo" font-size="59.0" fill="#FEFFFF" transform="matrix(1.00, 0.00, -0.00, -1.00, 801.7, 509.3)"> </text><text xml:space="preserve" font-family="Menlo-Regular,Menlo" font-size="59.0" fill="#FEFFFF" transform="matrix(1.00, 0.00, -0.00, -1.00, 837.2, 509.3)">c</text><text xml:space="preserve" font-family="Menlo-Regular,Menlo" font-size="59.0" fill="#FEFFFF" transform="matrix(1.00, 0.00, -0.00, -1.00, 872.7, 509.3)">o</text><text xml:space="preserve" font-family="Menlo-Regular,Menlo" font-size="59.0" fill="#FEFFFF" transform="matrix(1.00, 0.00, -0.00, -1.00, 908.3, 509.3)">n</text><text xml:space="preserve" font-family="Menlo-Regular,Menlo" font-size="59.0" fill="#FEFFFF" transform="matrix(1.00, 0.00, -0.00, -1.00, 943.8, 509.3)">s</text><text xml:space="preserve" font-family="Menlo-Regular,Menlo" font-size="59.0" fill="#FEFFFF" transform="matrix(1.00, 0.00, -0.00, -1.00, 979.3, 509.3)">o</text><text xml:space="preserve" font-family="Menlo-Regular,Menlo" font-size="59.0" fill="#FEFFFF" transform="matrix(1.00, 0.00, -0.00, -1.00, 1014.8, 509.3)">l</text><text xml:space="preserve" font-family="Menlo-Regular,Menlo" font-size="59.0" fill="#FEFFFF" transform="matrix(1.00, 0.00, -0.00, -1.00, 1050.4, 509.3)">e</text><text xml:space="preserve" font-family="Menlo-Regular,Menlo" font-size="59.0" fill="#FEFFFF" transform="matrix(1.00, 0.00, -0.00, -1.00, 1085.9, 509.3)">.</text><text xml:space="preserve" font-family="Menlo-Regular,Menlo" font-size="59.0" fill="#FEFFFF" transform="matrix(1.00, 0.00, -0.00, -1.00, 1121.4, 509.3)">l</text><text xml:space="preserve" font-family="Menlo-Regular,Menlo" font-size="59.0" fill="#FEFFFF" transform="matrix(1.00, 0.00, -0.00, -1.00, 1156.9, 509.3)">o</text><text xml:space="preserve" font-family="Menlo-Regular,Menlo" font-size="59.0" fill="#FEFFFF" transform="matrix(1.00, 0.00, -0.00, -1.00, 1192.5, 509.3)">g</text><text xml:space="preserve" font-family="Menlo-Regular,Menlo" font-size="59.0" fill="#FEFFFF" transform="matrix(1.00, 0.00, -0.00, -1.00, 1228.0, 509.3)">(</text><text xml:space="preserve" font-family="Menlo-Regular,Menlo" font-size="59.0" fill="#FEFFFF" transform="matrix(1.00, 0.00, -0.00, -1.00, 1263.5, 509.3)">f</text><text xml:space="preserve" font-family="Menlo-Regular,Menlo" font-size="59.0" fill="#FEFFFF" transform="matrix(1.00, 0.00, -0.00, -1.00, 1299.1, 509.3)">p</text><text xml:space="preserve" font-family="Menlo-Regular,Menlo" font-size="59.0" fill="#FEFFFF" transform="matrix(1.00, 0.00, -0.00, -1.00, 1334.6, 509.3)">s</text><text xml:space="preserve" font-family="Menlo-Regular,Menlo" font-size="59.0" fill="#FEFFFF" transform="matrix(1.00, 0.00, -0.00, -1.00, 1370.1, 509.3)">)</text><text xml:space="preserve" font-family="Menlo-Regular,Menlo" font-size="59.0" fill="#FEFFFF" transform="matrix(1.00, 0.00, -0.00, -1.00, 1405.6, 509.3)">)</text><text xml:space="preserve" font-family="Menlo-Regular,Menlo" font-size="59.0" fill="#FEFFFF" transform="matrix(1.00, 0.00, -0.00, -1.00, 1441.2, 509.3)">;</text></g></g></g><g opacity="0.65"><g><clipPath id="clip0x6000014ac3c0"><path d="M 48.0 951.0 L 1217.0 951.0 L 1217.0 1043.0 L 48.0 1043.0 Z M 48.0 951.0 "></path></clipPath><g clip-path="url(#clip0x6000014ac3c0)"><text xml:space="preserve" font-family="HelveticaNeue-Bold,Helvetica Neue" font-weight="bold" font-size="70.0" fill="#FEFFFF" transform="matrix(1.00, 0.00, -0.00, -1.00, 52.5, 971.1)">S</text><text xml:space="preserve" font-family="HelveticaNeue-Bold,Helvetica Neue" font-weight="bold" font-size="70.0" fill="#FEFFFF" transform="matrix(1.00, 0.00, -0.00, -1.00, 97.9, 971.1)">o</text><text xml:space="preserve" font-family="HelveticaNeue-Bold,Helvetica Neue" font-weight="bold" font-size="70.0" fill="#FEFFFF" transform="matrix(1.00, 0.00, -0.00, -1.00, 140.7, 971.1)">l</text><text xml:space="preserve" font-family="HelveticaNeue-Bold,Helvetica Neue" font-weight="bold" font-size="70.0" fill="#FEFFFF" transform="matrix(1.00, 0.00, -0.00, -1.00, 158.8, 971.1)">u</text><text xml:space="preserve" font-family="HelveticaNeue-Bold,Helvetica Neue" font-weight="bold" font-size="70.0" fill="#FEFFFF" transform="matrix(1.00, 0.00, -0.00, -1.00, 200.3, 971.1)">t</text><text xml:space="preserve" font-family="HelveticaNeue-Bold,Helvetica Neue" font-weight="bold" font-size="70.0" fill="#FEFFFF" transform="matrix(1.00, 0.00, -0.00, -1.00, 224.9, 971.1)">i</text><text xml:space="preserve" font-family="HelveticaNeue-Bold,Helvetica Neue" font-weight="bold" font-size="70.0" fill="#FEFFFF" transform="matrix(1.00, 0.00, -0.00, -1.00, 243.0, 971.1)">o</text><text xml:space="preserve" font-family="HelveticaNeue-Bold,Helvetica Neue" font-weight="bold" font-size="70.0" fill="#FEFFFF" transform="matrix(1.00, 0.00, -0.00, -1.00, 285.8, 971.1)">n</text><text xml:space="preserve" font-family="HelveticaNeue-Bold,Helvetica Neue" font-weight="bold" font-size="70.0" fill="#FEFFFF" transform="matrix(1.00, 0.00, -0.00, -1.00, 327.3, 971.1)">s</text></g></g></g></g></svg>