<?xml version="1.0" encoding="UTF-8" standalone="no"?><svg xmlns="http://www.w3.org/2000/svg" xmlns:xlink="http://www.w3.org/1999/xlink" clip-rule="evenodd" stroke-miterlimit="10" viewBox="0 0 1159 69"><desc>SVG generated by Keynote</desc><defs></defs><g transform="matrix(1.00, 0.00, -0.00, -1.00, 0.0, 69.0)"><text xml:space="preserve" font-family="HelveticaNeue-Bold,Helvetica Neue" font-weight="bold" font-size="70.0" fill="#FEFFFF" transform="matrix(1.00, 0.00, -0.00, -1.00, 0.5, 16.1)">S</text><text xml:space="preserve" font-family="HelveticaNeue-Bold,Helvetica Neue" font-weight="bold" font-size="70.0" fill="#FEFFFF" transform="matrix(1.00, 0.00, -0.00, -1.00, 45.9, 16.1)">o</text><text xml:space="preserve" font-family="HelveticaNeue-Bold,Helvetica Neue" font-weight="bold" font-size="70.0" fill="#FEFFFF" transform="matrix(1.00, 0.00, -0.00, -1.00, 88.7, 16.1)">l</text><text xml:space="preserve" font-family="HelveticaNeue-Bold,Helvetica Neue" font-weight="bold" font-size="70.0" fill="#FEFFFF" transform="matrix(1.00, 0.00, -0.00, -1.00, 106.8, 16.1)">u</text><text xml:space="preserve" font-family="HelveticaNeue-Bold,Helvetica Neue" font-weight="bold" font-size="70.0" fill="#FEFFFF" transform="matrix(1.00, 0.00, -0.00, -1.00, 148.3, 16.1)">t</text><text xml:space="preserve" font-family="HelveticaNeue-Bold,Helvetica Neue" font-weight="bold" font-size="70.0" fill="#FEFFFF" transform="matrix(1.00, 0.00, -0.00, -1.00, 172.9, 16.1)">i</text><text xml:space="preserve" font-family="HelveticaNeue-Bold,Helvetica Neue" font-weight="bold" font-size="70.0" fill="#FEFFFF" transform="matrix(1.00, 0.00, -0.00, -1.00, 191.0, 16.1)">o</text><text xml:space="preserve" font-family="HelveticaNeue-Bold,Helvetica Neue" font-weight="bold" font-size="70.0" fill="#FEFFFF" transform="matrix(1.00, 0.00, -0.00, -1.00, 233.8, 16.1)">n</text><text xml:space="preserve" font-family="HelveticaNeue-Bold,Helvetica Neue" font-weight="bold" font-size="70.0" fill="#FEFFFF" transform="matrix(1.00, 0.00, -0.00, -1.00, 275.3, 16.1)">s</text><text xml:space="preserve" font-family="HelveticaNeue-Bold,Helvetica Neue" font-weight="bold" font-size="70.0" fill="#FEFFFF" transform="matrix(1.00, 0.00, -0.00, -1.00, 312.9, 16.1)"> </text><text xml:space="preserve" font-family="HelveticaNeue-Bold,Helvetica Neue" font-weight="bold" font-size="70.0" fill="#FEFFFF" transform="matrix(1.00, 0.00, -0.00, -1.00, 332.3, 16.1)">:</text><text xml:space="preserve" font-family="HelveticaNeue-Bold,Helvetica Neue" font-weight="bold" font-size="70.0" fill="#FEFFFF" transform="matrix(1.00, 0.00, -0.00, -1.00, 351.8, 16.1)"> </text><text xml:space="preserve" font-family="HelveticaNeue-Bold,Helvetica Neue" font-weight="bold" font-size="70.0" fill="#FEFFFF" transform="matrix(1.00, 0.00, -0.00, -1.00, 371.2, 16.1)">Y</text><text xml:space="preserve" font-family="HelveticaNeue-Bold,Helvetica Neue" font-weight="bold" font-size="70.0" fill="#FEFFFF" transform="matrix(1.00, 0.00, -0.00, -1.00, 415.3, 16.1)">i</text><text xml:space="preserve" font-family="HelveticaNeue-Bold,Helvetica Neue" font-weight="bold" font-size="70.0" fill="#FEFFFF" transform="matrix(1.00, 0.00, -0.00, -1.00, 433.4, 16.1)">e</text><text xml:space="preserve" font-family="HelveticaNeue-Bold,Helvetica Neue" font-weight="bold" font-size="70.0" fill="#FEFFFF" transform="matrix(1.00, 0.00, -0.00, -1.00, 473.6, 16.1)">l</text><text xml:space="preserve" font-family="HelveticaNeue-Bold,Helvetica Neue" font-weight="bold" font-size="70.0" fill="#FEFFFF" transform="matrix(1.00, 0.00, -0.00, -1.00, 491.6, 16.1)">d</text><text xml:space="preserve" font-family="HelveticaNeue-Bold,Helvetica Neue" font-weight="bold" font-size="70.0" fill="#FEFFFF" transform="matrix(1.00, 0.00, -0.00, -1.00, 534.4, 16.1)">i</text><text xml:space="preserve" font-family="HelveticaNeue-Bold,Helvetica Neue" font-weight="bold" font-size="70.0" fill="#FEFFFF" transform="matrix(1.00, 0.00, -0.00, -1.00, 552.5, 16.1)">n</text><text xml:space="preserve" font-family="HelveticaNeue-Bold,Helvetica Neue" font-weight="bold" font-size="70.0" fill="#FEFFFF" transform="matrix(1.00, 0.00, -0.00, -1.00, 594.0, 16.1)">g</text><text xml:space="preserve" font-family="HelveticaNeue-Bold,Helvetica Neue" font-weight="bold" font-size="70.0" fill="#FEFFFF" transform="matrix(1.00, 0.00, -0.00, -1.00, 636.7, 16.1)"> </text><text xml:space="preserve" font-family="HelveticaNeue-Bold,Helvetica Neue" font-weight="bold" font-size="70.0" fill="#FEFFFF" transform="matrix(1.00, 0.00, -0.00, -1.00, 656.2, 16.1)">t</text><text xml:space="preserve" font-family="HelveticaNeue-Bold,Helvetica Neue" font-weight="bold" font-size="70.0" fill="#FEFFFF" transform="matrix(1.00, 0.00, -0.00, -1.00, 680.8, 16.1)">h</text><text xml:space="preserve" font-family="HelveticaNeue-Bold,Helvetica Neue" font-weight="bold" font-size="70.0" fill="#FEFFFF" transform="matrix(1.00, 0.00, -0.00, -1.00, 722.4, 16.1)">e</text><text xml:space="preserve" font-family="HelveticaNeue-Bold,Helvetica Neue" font-weight="bold" font-size="70.0" fill="#FEFFFF" transform="matrix(1.00, 0.00, -0.00, -1.00, 762.5, 16.1)"> </text><text xml:space="preserve" font-family="HelveticaNeue-Bold,Helvetica Neue" font-weight="bold" font-size="70.0" fill="#FEFFFF" transform="matrix(1.00, 0.00, -0.00, -1.00, 782.0, 16.1)">E</text><text xml:space="preserve" font-family="HelveticaNeue-Bold,Helvetica Neue" font-weight="bold" font-size="70.0" fill="#FEFFFF" transform="matrix(1.00, 0.00, -0.00, -1.00, 827.4, 16.1)">v</text><text xml:space="preserve" font-family="HelveticaNeue-Bold,Helvetica Neue" font-weight="bold" font-size="70.0" fill="#FEFFFF" transform="matrix(1.00, 0.00, -0.00, -1.00, 863.8, 16.1)">e</text><text xml:space="preserve" font-family="HelveticaNeue-Bold,Helvetica Neue" font-weight="bold" font-size="70.0" fill="#FEFFFF" transform="matrix(1.00, 0.00, -0.00, -1.00, 903.9, 16.1)">n</text><text xml:space="preserve" font-family="HelveticaNeue-Bold,Helvetica Neue" font-weight="bold" font-size="70.0" fill="#FEFFFF" transform="matrix(1.00, 0.00, -0.00, -1.00, 945.4, 16.1)">t</text><text xml:space="preserve" font-family="HelveticaNeue-Bold,Helvetica Neue" font-weight="bold" font-size="70.0" fill="#FEFFFF" transform="matrix(1.00, 0.00, -0.00, -1.00, 970.1, 16.1)"> </text><text xml:space="preserve" font-family="HelveticaNeue-Bold,Helvetica Neue" font-weight="bold" font-size="70.0" fill="#FEFFFF" transform="matrix(1.00, 0.00, -0.00, -1.00, 989.5, 16.1)">L</text><text xml:space="preserve" font-family="HelveticaNeue-Bold,Helvetica Neue" font-weight="bold" font-size="70.0" fill="#FEFFFF" transform="matrix(1.00, 0.00, -0.00, -1.00, 1031.1, 16.1)">o</text><text xml:space="preserve" font-family="HelveticaNeue-Bold,Helvetica Neue" font-weight="bold" font-size="70.0" fill="#FEFFFF" transform="matrix(1.00, 0.00, -0.00, -1.00, 1073.8, 16.1)">o</text><text xml:space="preserve" font-family="HelveticaNeue-Bold,Helvetica Neue" font-weight="bold" font-size="70.0" fill="#FEFFFF" transform="matrix(1.00, 0.00, -0.00, -1.00, 1116.6, 16.1)">p</text></g></svg>