<?xml version="1.0" encoding="UTF-8" standalone="no"?><svg xmlns="http://www.w3.org/2000/svg" xmlns:xlink="http://www.w3.org/1999/xlink" clip-rule="evenodd" stroke-miterlimit="10" viewBox="0 0 1801 816"><desc>SVG generated by Keynote</desc><defs></defs><g transform="matrix(1.00, 0.00, -0.00, -1.00, 0.0, 816.0)"><text xml:space="preserve" font-family="Menlo-Regular,Menlo" font-size="59.0" fill="#FEFFFF" transform="matrix(1.00, 0.00, -0.00, -1.00, 2.1, 766.7)">c</text><text xml:space="preserve" font-family="Menlo-Regular,Menlo" font-size="59.0" fill="#FEFFFF" transform="matrix(1.00, 0.00, -0.00, -1.00, 37.7, 766.7)">o</text><text xml:space="preserve" font-family="Menlo-Regular,Menlo" font-size="59.0" fill="#FEFFFF" transform="matrix(1.00, 0.00, -0.00, -1.00, 73.2, 766.7)">n</text><text xml:space="preserve" font-family="Menlo-Regular,Menlo" font-size="59.0" fill="#FEFFFF" transform="matrix(1.00, 0.00, -0.00, -1.00, 108.7, 766.7)">s</text><text xml:space="preserve" font-family="Menlo-Regular,Menlo" font-size="59.0" fill="#FEFFFF" transform="matrix(1.00, 0.00, -0.00, -1.00, 144.2, 766.7)">t</text><text xml:space="preserve" font-family="Menlo-Regular,Menlo" font-size="59.0" fill="#FEFFFF" transform="matrix(1.00, 0.00, -0.00, -1.00, 179.7, 766.7)"> </text><text xml:space="preserve" font-family="Menlo-Regular,Menlo" font-size="59.0" fill="#FEFFFF" transform="matrix(1.00, 0.00, -0.00, -1.00, 215.3, 766.7)">s</text><text xml:space="preserve" font-family="Menlo-Regular,Menlo" font-size="59.0" fill="#FEFFFF" transform="matrix(1.00, 0.00, -0.00, -1.00, 250.8, 766.7)">t</text><text xml:space="preserve" font-family="Menlo-Regular,Menlo" font-size="59.0" fill="#FEFFFF" transform="matrix(1.00, 0.00, -0.00, -1.00, 286.3, 766.7)">a</text><text xml:space="preserve" font-family="Menlo-Regular,Menlo" font-size="59.0" fill="#FEFFFF" transform="matrix(1.00, 0.00, -0.00, -1.00, 321.8, 766.7)">r</text><text xml:space="preserve" font-family="Menlo-Regular,Menlo" font-size="59.0" fill="#FEFFFF" transform="matrix(1.00, 0.00, -0.00, -1.00, 357.4, 766.7)">t</text><text xml:space="preserve" font-family="Menlo-Regular,Menlo" font-size="59.0" fill="#FEFFFF" transform="matrix(1.00, 0.00, -0.00, -1.00, 392.9, 766.7)"> </text><text xml:space="preserve" font-family="Menlo-Regular,Menlo" font-size="59.0" fill="#FEFFFF" transform="matrix(1.00, 0.00, -0.00, -1.00, 428.4, 766.7)">=</text><text xml:space="preserve" font-family="Menlo-Regular,Menlo" font-size="59.0" fill="#FEFFFF" transform="matrix(1.00, 0.00, -0.00, -1.00, 464.0, 766.7)"> </text><text xml:space="preserve" font-family="Menlo-Regular,Menlo" font-size="59.0" fill="#FEFFFF" transform="matrix(1.00, 0.00, -0.00, -1.00, 499.5, 766.7)">p</text><text xml:space="preserve" font-family="Menlo-Regular,Menlo" font-size="59.0" fill="#FEFFFF" transform="matrix(1.00, 0.00, -0.00, -1.00, 535.0, 766.7)">e</text><text xml:space="preserve" font-family="Menlo-Regular,Menlo" font-size="59.0" fill="#FEFFFF" transform="matrix(1.00, 0.00, -0.00, -1.00, 570.5, 766.7)">r</text><text xml:space="preserve" font-family="Menlo-Regular,Menlo" font-size="59.0" fill="#FEFFFF" transform="matrix(1.00, 0.00, -0.00, -1.00, 606.1, 766.7)">f</text><text xml:space="preserve" font-family="Menlo-Regular,Menlo" font-size="59.0" fill="#FEFFFF" transform="matrix(1.00, 0.00, -0.00, -1.00, 641.6, 766.7)">o</text><text xml:space="preserve" font-family="Menlo-Regular,Menlo" font-size="59.0" fill="#FEFFFF" transform="matrix(1.00, 0.00, -0.00, -1.00, 677.1, 766.7)">r</text><text xml:space="preserve" font-family="Menlo-Regular,Menlo" font-size="59.0" fill="#FEFFFF" transform="matrix(1.00, 0.00, -0.00, -1.00, 712.6, 766.7)">m</text><text xml:space="preserve" font-family="Menlo-Regular,Menlo" font-size="59.0" fill="#FEFFFF" transform="matrix(1.00, 0.00, -0.00, -1.00, 748.2, 766.7)">a</text><text xml:space="preserve" font-family="Menlo-Regular,Menlo" font-size="59.0" fill="#FEFFFF" transform="matrix(1.00, 0.00, -0.00, -1.00, 783.7, 766.7)">n</text><text xml:space="preserve" font-family="Menlo-Regular,Menlo" font-size="59.0" fill="#FEFFFF" transform="matrix(1.00, 0.00, -0.00, -1.00, 819.2, 766.7)">c</text><text xml:space="preserve" font-family="Menlo-Regular,Menlo" font-size="59.0" fill="#FEFFFF" transform="matrix(1.00, 0.00, -0.00, -1.00, 854.8, 766.7)">e</text><text xml:space="preserve" font-family="Menlo-Regular,Menlo" font-size="59.0" fill="#FEFFFF" transform="matrix(1.00, 0.00, -0.00, -1.00, 890.3, 766.7)">.</text><text xml:space="preserve" font-family="Menlo-Regular,Menlo" font-size="59.0" fill="#FEFFFF" transform="matrix(1.00, 0.00, -0.00, -1.00, 925.8, 766.7)">n</text><text xml:space="preserve" font-family="Menlo-Regular,Menlo" font-size="59.0" fill="#FEFFFF" transform="matrix(1.00, 0.00, -0.00, -1.00, 961.3, 766.7)">o</text><text xml:space="preserve" font-family="Menlo-Regular,Menlo" font-size="59.0" fill="#FEFFFF" transform="matrix(1.00, 0.00, -0.00, -1.00, 996.9, 766.7)">w</text><text xml:space="preserve" font-family="Menlo-Regular,Menlo" font-size="59.0" fill="#FEFFFF" transform="matrix(1.00, 0.00, -0.00, -1.00, 1032.4, 766.7)">(</text><text xml:space="preserve" font-family="Menlo-Regular,Menlo" font-size="59.0" fill="#FEFFFF" transform="matrix(1.00, 0.00, -0.00, -1.00, 1067.9, 766.7)">)</text><text xml:space="preserve" font-family="Menlo-Regular,Menlo" font-size="59.0" fill="#FEFFFF" transform="matrix(1.00, 0.00, -0.00, -1.00, 1103.4, 766.7)">;</text><text xml:space="preserve" font-family="Menlo-Regular,Menlo" font-size="59.0" fill="#FEFFFF" transform="matrix(1.00, 0.00, -0.00, -1.00, 1139.0, 766.7)"> </text><text xml:space="preserve" font-family="Menlo-Regular,Menlo" font-size="59.0" fill="#FEFFFF" transform="matrix(1.00, 0.00, -0.00, -1.00, 2.1, 628.7)">f</text><text xml:space="preserve" font-family="Menlo-Regular,Menlo" font-size="59.0" fill="#FEFFFF" transform="matrix(1.00, 0.00, -0.00, -1.00, 37.7, 628.7)">u</text><text xml:space="preserve" font-family="Menlo-Regular,Menlo" font-size="59.0" fill="#FEFFFF" transform="matrix(1.00, 0.00, -0.00, -1.00, 73.2, 628.7)">n</text><text xml:space="preserve" font-family="Menlo-Regular,Menlo" font-size="59.0" fill="#FEFFFF" transform="matrix(1.00, 0.00, -0.00, -1.00, 108.7, 628.7)">c</text><text xml:space="preserve" font-family="Menlo-Regular,Menlo" font-size="59.0" fill="#FEFFFF" transform="matrix(1.00, 0.00, -0.00, -1.00, 144.2, 628.7)">t</text><text xml:space="preserve" font-family="Menlo-Regular,Menlo" font-size="59.0" fill="#FEFFFF" transform="matrix(1.00, 0.00, -0.00, -1.00, 179.8, 628.7)">i</text><text xml:space="preserve" font-family="Menlo-Regular,Menlo" font-size="59.0" fill="#FEFFFF" transform="matrix(1.00, 0.00, -0.00, -1.00, 215.3, 628.7)">o</text><text xml:space="preserve" font-family="Menlo-Regular,Menlo" font-size="59.0" fill="#FEFFFF" transform="matrix(1.00, 0.00, -0.00, -1.00, 250.8, 628.7)">n</text><text xml:space="preserve" font-family="Menlo-Regular,Menlo" font-size="59.0" fill="#FEFFFF" transform="matrix(1.00, 0.00, -0.00, -1.00, 286.4, 628.7)"> </text><text xml:space="preserve" font-family="Menlo-Regular,Menlo" font-size="59.0" fill="#FEFFFF" transform="matrix(1.00, 0.00, -0.00, -1.00, 321.9, 628.7)">s</text><text xml:space="preserve" font-family="Menlo-Regular,Menlo" font-size="59.0" fill="#FEFFFF" transform="matrix(1.00, 0.00, -0.00, -1.00, 357.4, 628.7)">a</text><text xml:space="preserve" font-family="Menlo-Regular,Menlo" font-size="59.0" fill="#FEFFFF" transform="matrix(1.00, 0.00, -0.00, -1.00, 392.9, 628.7)">m</text><text xml:space="preserve" font-family="Menlo-Regular,Menlo" font-size="59.0" fill="#FEFFFF" transform="matrix(1.00, 0.00, -0.00, -1.00, 428.5, 628.7)">p</text><text xml:space="preserve" font-family="Menlo-Regular,Menlo" font-size="59.0" fill="#FEFFFF" transform="matrix(1.00, 0.00, -0.00, -1.00, 464.0, 628.7)">l</text><text xml:space="preserve" font-family="Menlo-Regular,Menlo" font-size="59.0" fill="#FEFFFF" transform="matrix(1.00, 0.00, -0.00, -1.00, 499.5, 628.7)">e</text><text xml:space="preserve" font-family="Menlo-Regular,Menlo" font-size="59.0" fill="#FEFFFF" transform="matrix(1.00, 0.00, -0.00, -1.00, 535.0, 628.7)">F</text><text xml:space="preserve" font-family="Menlo-Regular,Menlo" font-size="59.0" fill="#FEFFFF" transform="matrix(1.00, 0.00, -0.00, -1.00, 570.6, 628.7)">p</text><text xml:space="preserve" font-family="Menlo-Regular,Menlo" font-size="59.0" fill="#FEFFFF" transform="matrix(1.00, 0.00, -0.00, -1.00, 606.1, 628.7)">s</text><text xml:space="preserve" font-family="Menlo-Regular,Menlo" font-size="59.0" fill="#FEFFFF" transform="matrix(1.00, 0.00, -0.00, -1.00, 641.6, 628.7)">(</text><text xml:space="preserve" font-family="Menlo-Regular,Menlo" font-size="59.0" fill="#FEFFFF" transform="matrix(1.00, 0.00, -0.00, -1.00, 677.1, 628.7)">p</text><text xml:space="preserve" font-family="Menlo-Regular,Menlo" font-size="59.0" fill="#FEFFFF" transform="matrix(1.00, 0.00, -0.00, -1.00, 712.7, 628.7)">e</text><text xml:space="preserve" font-family="Menlo-Regular,Menlo" font-size="59.0" fill="#FEFFFF" transform="matrix(1.00, 0.00, -0.00, -1.00, 748.2, 628.7)">r</text><text xml:space="preserve" font-family="Menlo-Regular,Menlo" font-size="59.0" fill="#FEFFFF" transform="matrix(1.00, 0.00, -0.00, -1.00, 783.7, 628.7)">i</text><text xml:space="preserve" font-family="Menlo-Regular,Menlo" font-size="59.0" fill="#FEFFFF" transform="matrix(1.00, 0.00, -0.00, -1.00, 819.3, 628.7)">o</text><text xml:space="preserve" font-family="Menlo-Regular,Menlo" font-size="59.0" fill="#FEFFFF" transform="matrix(1.00, 0.00, -0.00, -1.00, 854.8, 628.7)">d</text><text xml:space="preserve" font-family="Menlo-Regular,Menlo" font-size="59.0" fill="#FEFFFF" transform="matrix(1.00, 0.00, -0.00, -1.00, 890.3, 628.7)">,</text><text xml:space="preserve" font-family="Menlo-Regular,Menlo" font-size="59.0" fill="#FEFFFF" transform="matrix(1.00, 0.00, -0.00, -1.00, 925.8, 628.7)"> </text><text xml:space="preserve" font-family="Menlo-Regular,Menlo" font-size="59.0" fill="#FEFFFF" transform="matrix(1.00, 0.00, -0.00, -1.00, 961.4, 628.7)">d</text><text xml:space="preserve" font-family="Menlo-Regular,Menlo" font-size="59.0" fill="#FEFFFF" transform="matrix(1.00, 0.00, -0.00, -1.00, 996.9, 628.7)">=</text><text xml:space="preserve" font-family="Menlo-Regular,Menlo" font-size="59.0" fill="#FEFFFF" transform="matrix(1.00, 0.00, -0.00, -1.00, 1032.4, 628.7)">Q</text><text xml:space="preserve" font-family="Menlo-Regular,Menlo" font-size="59.0" fill="#FEFFFF" transform="matrix(1.00, 0.00, -0.00, -1.00, 1067.9, 628.7)">.</text><text xml:space="preserve" font-family="Menlo-Regular,Menlo" font-size="59.0" fill="#FEFFFF" transform="matrix(1.00, 0.00, -0.00, -1.00, 1103.5, 628.7)">d</text><text xml:space="preserve" font-family="Menlo-Regular,Menlo" font-size="59.0" fill="#FEFFFF" transform="matrix(1.00, 0.00, -0.00, -1.00, 1139.0, 628.7)">e</text><text xml:space="preserve" font-family="Menlo-Regular,Menlo" font-size="59.0" fill="#FEFFFF" transform="matrix(1.00, 0.00, -0.00, -1.00, 1174.5, 628.7)">f</text><text xml:space="preserve" font-family="Menlo-Regular,Menlo" font-size="59.0" fill="#FEFFFF" transform="matrix(1.00, 0.00, -0.00, -1.00, 1210.0, 628.7)">e</text><text xml:space="preserve" font-family="Menlo-Regular,Menlo" font-size="59.0" fill="#FEFFFF" transform="matrix(1.00, 0.00, -0.00, -1.00, 1245.6, 628.7)">r</text><text xml:space="preserve" font-family="Menlo-Regular,Menlo" font-size="59.0" fill="#FEFFFF" transform="matrix(1.00, 0.00, -0.00, -1.00, 1281.1, 628.7)">(</text><text xml:space="preserve" font-family="Menlo-Regular,Menlo" font-size="59.0" fill="#FEFFFF" transform="matrix(1.00, 0.00, -0.00, -1.00, 1316.6, 628.7)">)</text><text xml:space="preserve" font-family="Menlo-Regular,Menlo" font-size="59.0" fill="#FEFFFF" transform="matrix(1.00, 0.00, -0.00, -1.00, 1352.2, 628.7)">,</text><text xml:space="preserve" font-family="Menlo-Regular,Menlo" font-size="59.0" fill="#FEFFFF" transform="matrix(1.00, 0.00, -0.00, -1.00, 1387.7, 628.7)"> </text><text xml:space="preserve" font-family="Menlo-Regular,Menlo" font-size="59.0" fill="#FEFFFF" transform="matrix(1.00, 0.00, -0.00, -1.00, 1423.2, 628.7)">f</text><text xml:space="preserve" font-family="Menlo-Regular,Menlo" font-size="59.0" fill="#FEFFFF" transform="matrix(1.00, 0.00, -0.00, -1.00, 1458.7, 628.7)">p</text><text xml:space="preserve" font-family="Menlo-Regular,Menlo" font-size="59.0" fill="#FEFFFF" transform="matrix(1.00, 0.00, -0.00, -1.00, 1494.3, 628.7)">s</text><text xml:space="preserve" font-family="Menlo-Regular,Menlo" font-size="59.0" fill="#FEFFFF" transform="matrix(1.00, 0.00, -0.00, -1.00, 1529.5, 628.7)">=</text><text xml:space="preserve" font-family="Menlo-Regular,Menlo" font-size="59.0" fill="#FEFFFF" transform="matrix(1.00, 0.00, -0.00, -1.00, 1565.1, 628.7)">0</text><text xml:space="preserve" font-family="Menlo-Regular,Menlo" font-size="59.0" fill="#FEFFFF" transform="matrix(1.00, 0.00, -0.00, -1.00, 1600.6, 628.7)">)</text><text xml:space="preserve" font-family="Menlo-Regular,Menlo" font-size="59.0" fill="#FEFFFF" transform="matrix(1.00, 0.00, -0.00, -1.00, 1636.1, 628.7)"> </text><text xml:space="preserve" font-family="Menlo-Regular,Menlo" font-size="59.0" fill="#FEFFFF" transform="matrix(1.00, 0.00, -0.00, -1.00, 1671.6, 628.7)">{</text><text xml:space="preserve" font-family="Menlo-Regular,Menlo" font-size="59.0" fill="#FEFFFF" transform="matrix(1.00, 0.00, -0.00, -1.00, 1707.2, 628.7)"> </text><text xml:space="preserve" font-family="Menlo-Regular,Menlo" font-size="59.0" fill="#FEFFFF" transform="matrix(1.00, 0.00, -0.00, -1.00, 2.1, 559.7)"> </text><text xml:space="preserve" font-family="Menlo-Regular,Menlo" font-size="59.0" fill="#FEFFFF" transform="matrix(1.00, 0.00, -0.00, -1.00, 37.7, 559.7)"> </text><text xml:space="preserve" font-family="Menlo-Regular,Menlo" font-size="59.0" fill="#FEFFFF" transform="matrix(1.00, 0.00, -0.00, -1.00, 73.2, 559.7)">r</text><text xml:space="preserve" font-family="Menlo-Regular,Menlo" font-size="59.0" fill="#FEFFFF" transform="matrix(1.00, 0.00, -0.00, -1.00, 108.7, 559.7)">e</text><text xml:space="preserve" font-family="Menlo-Regular,Menlo" font-size="59.0" fill="#FEFFFF" transform="matrix(1.00, 0.00, -0.00, -1.00, 144.2, 559.7)">q</text><text xml:space="preserve" font-family="Menlo-Regular,Menlo" font-size="59.0" fill="#FEFFFF" transform="matrix(1.00, 0.00, -0.00, -1.00, 179.8, 559.7)">u</text><text xml:space="preserve" font-family="Menlo-Regular,Menlo" font-size="59.0" fill="#FEFFFF" transform="matrix(1.00, 0.00, -0.00, -1.00, 215.3, 559.7)">e</text><text xml:space="preserve" font-family="Menlo-Regular,Menlo" font-size="59.0" fill="#FEFFFF" transform="matrix(1.00, 0.00, -0.00, -1.00, 250.8, 559.7)">s</text><text xml:space="preserve" font-family="Menlo-Regular,Menlo" font-size="59.0" fill="#FEFFFF" transform="matrix(1.00, 0.00, -0.00, -1.00, 286.3, 559.7)">t</text><text xml:space="preserve" font-family="Menlo-Regular,Menlo" font-size="59.0" fill="#FEFFFF" transform="matrix(1.00, 0.00, -0.00, -1.00, 321.9, 559.7)">A</text><text xml:space="preserve" font-family="Menlo-Regular,Menlo" font-size="59.0" fill="#FEFFFF" transform="matrix(1.00, 0.00, -0.00, -1.00, 357.4, 559.7)">n</text><text xml:space="preserve" font-family="Menlo-Regular,Menlo" font-size="59.0" fill="#FEFFFF" transform="matrix(1.00, 0.00, -0.00, -1.00, 392.9, 559.7)">i</text><text xml:space="preserve" font-family="Menlo-Regular,Menlo" font-size="59.0" fill="#FEFFFF" transform="matrix(1.00, 0.00, -0.00, -1.00, 428.4, 559.7)">m</text><text xml:space="preserve" font-family="Menlo-Regular,Menlo" font-size="59.0" fill="#FEFFFF" transform="matrix(1.00, 0.00, -0.00, -1.00, 464.0, 559.7)">a</text><text xml:space="preserve" font-family="Menlo-Regular,Menlo" font-size="59.0" fill="#FEFFFF" transform="matrix(1.00, 0.00, -0.00, -1.00, 499.5, 559.7)">t</text><text xml:space="preserve" font-family="Menlo-Regular,Menlo" font-size="59.0" fill="#FEFFFF" transform="matrix(1.00, 0.00, -0.00, -1.00, 535.0, 559.7)">i</text><text xml:space="preserve" font-family="Menlo-Regular,Menlo" font-size="59.0" fill="#FEFFFF" transform="matrix(1.00, 0.00, -0.00, -1.00, 570.6, 559.7)">o</text><text xml:space="preserve" font-family="Menlo-Regular,Menlo" font-size="59.0" fill="#FEFFFF" transform="matrix(1.00, 0.00, -0.00, -1.00, 606.1, 559.7)">n</text><text xml:space="preserve" font-family="Menlo-Regular,Menlo" font-size="59.0" fill="#FEFFFF" transform="matrix(1.00, 0.00, -0.00, -1.00, 641.6, 559.7)">F</text><text xml:space="preserve" font-family="Menlo-Regular,Menlo" font-size="59.0" fill="#FEFFFF" transform="matrix(1.00, 0.00, -0.00, -1.00, 677.1, 559.7)">r</text><text xml:space="preserve" font-family="Menlo-Regular,Menlo" font-size="59.0" fill="#FEFFFF" transform="matrix(1.00, 0.00, -0.00, -1.00, 712.7, 559.7)">a</text><text xml:space="preserve" font-family="Menlo-Regular,Menlo" font-size="59.0" fill="#FEFFFF" transform="matrix(1.00, 0.00, -0.00, -1.00, 748.2, 559.7)">m</text><text xml:space="preserve" font-family="Menlo-Regular,Menlo" font-size="59.0" fill="#FEFFFF" transform="matrix(1.00, 0.00, -0.00, -1.00, 783.7, 559.7)">e</text><text xml:space="preserve" font-family="Menlo-Regular,Menlo" font-size="59.0" fill="#FEFFFF" transform="matrix(1.00, 0.00, -0.00, -1.00, 819.2, 559.7)">(</text><text xml:space="preserve" font-family="Menlo-Regular,Menlo" font-size="59.0" fill="#FEFFFF" transform="matrix(1.00, 0.00, -0.00, -1.00, 854.8, 559.7)">n</text><text xml:space="preserve" font-family="Menlo-Regular,Menlo" font-size="59.0" fill="#FEFFFF" transform="matrix(1.00, 0.00, -0.00, -1.00, 890.3, 559.7)">o</text><text xml:space="preserve" font-family="Menlo-Regular,Menlo" font-size="59.0" fill="#FEFFFF" transform="matrix(1.00, 0.00, -0.00, -1.00, 925.8, 559.7)">w</text><text xml:space="preserve" font-family="Menlo-Regular,Menlo" font-size="59.0" fill="#FEFFFF" transform="matrix(1.00, 0.00, -0.00, -1.00, 961.3, 559.7)"> </text><text xml:space="preserve" font-family="Menlo-Regular,Menlo" font-size="59.0" fill="#FEFFFF" transform="matrix(1.00, 0.00, -0.00, -1.00, 996.9, 559.7)">=</text><text xml:space="preserve" font-family="Menlo-Regular,Menlo" font-size="59.0" fill="#FEFFFF" transform="matrix(1.00, 0.00, -0.00, -1.00, 1032.4, 559.7)">&gt;</text><text xml:space="preserve" font-family="Menlo-Regular,Menlo" font-size="59.0" fill="#FEFFFF" transform="matrix(1.00, 0.00, -0.00, -1.00, 1067.9, 559.7)"> </text><text xml:space="preserve" font-family="Menlo-Regular,Menlo" font-size="59.0" fill="#FEFFFF" transform="matrix(1.00, 0.00, -0.00, -1.00, 1103.5, 559.7)">{</text><text xml:space="preserve" font-family="Menlo-Regular,Menlo" font-size="59.0" fill="#FEFFFF" transform="matrix(1.00, 0.00, -0.00, -1.00, 1139.0, 559.7)"> </text><text xml:space="preserve" font-family="Menlo-Regular,Menlo" font-size="59.0" fill="#FEFFFF" transform="matrix(1.00, 0.00, -0.00, -1.00, 2.1, 490.7)"> </text><text xml:space="preserve" font-family="Menlo-Regular,Menlo" font-size="59.0" fill="#FEFFFF" transform="matrix(1.00, 0.00, -0.00, -1.00, 37.7, 490.7)"> </text><text xml:space="preserve" font-family="Menlo-Regular,Menlo" font-size="59.0" fill="#FEFFFF" transform="matrix(1.00, 0.00, -0.00, -1.00, 73.2, 490.7)"> </text><text xml:space="preserve" font-family="Menlo-Regular,Menlo" font-size="59.0" fill="#FEFFFF" transform="matrix(1.00, 0.00, -0.00, -1.00, 108.7, 490.7)"> </text><text xml:space="preserve" font-family="Menlo-Regular,Menlo" font-size="59.0" fill="#FEFFFF" transform="matrix(1.00, 0.00, -0.00, -1.00, 144.2, 490.7)">i</text><text xml:space="preserve" font-family="Menlo-Regular,Menlo" font-size="59.0" fill="#FEFFFF" transform="matrix(1.00, 0.00, -0.00, -1.00, 179.7, 490.7)">f</text><text xml:space="preserve" font-family="Menlo-Regular,Menlo" font-size="59.0" fill="#FEFFFF" transform="matrix(1.00, 0.00, -0.00, -1.00, 215.3, 490.7)"> </text><text xml:space="preserve" font-family="Menlo-Regular,Menlo" font-size="59.0" fill="#FEFFFF" transform="matrix(1.00, 0.00, -0.00, -1.00, 250.8, 490.7)">(</text><text xml:space="preserve" font-family="Menlo-Regular,Menlo" font-size="59.0" fill="#FEFFFF" transform="matrix(1.00, 0.00, -0.00, -1.00, 286.3, 490.7)">n</text><text xml:space="preserve" font-family="Menlo-Regular,Menlo" font-size="59.0" fill="#FEFFFF" transform="matrix(1.00, 0.00, -0.00, -1.00, 321.9, 490.7)">o</text><text xml:space="preserve" font-family="Menlo-Regular,Menlo" font-size="59.0" fill="#FEFFFF" transform="matrix(1.00, 0.00, -0.00, -1.00, 357.4, 490.7)">w</text><text xml:space="preserve" font-family="Menlo-Regular,Menlo" font-size="59.0" fill="#FEFFFF" transform="matrix(1.00, 0.00, -0.00, -1.00, 392.9, 490.7)">-</text><text xml:space="preserve" font-family="Menlo-Regular,Menlo" font-size="59.0" fill="#FEFFFF" transform="matrix(1.00, 0.00, -0.00, -1.00, 428.4, 490.7)">s</text><text xml:space="preserve" font-family="Menlo-Regular,Menlo" font-size="59.0" fill="#FEFFFF" transform="matrix(1.00, 0.00, -0.00, -1.00, 464.0, 490.7)">t</text><text xml:space="preserve" font-family="Menlo-Regular,Menlo" font-size="59.0" fill="#FEFFFF" transform="matrix(1.00, 0.00, -0.00, -1.00, 499.5, 490.7)">a</text><text xml:space="preserve" font-family="Menlo-Regular,Menlo" font-size="59.0" fill="#FEFFFF" transform="matrix(1.00, 0.00, -0.00, -1.00, 535.0, 490.7)">r</text><text xml:space="preserve" font-family="Menlo-Regular,Menlo" font-size="59.0" fill="#FEFFFF" transform="matrix(1.00, 0.00, -0.00, -1.00, 570.5, 490.7)">t</text><text xml:space="preserve" font-family="Menlo-Regular,Menlo" font-size="59.0" fill="#FEFFFF" transform="matrix(1.00, 0.00, -0.00, -1.00, 606.1, 490.7)"> </text><text xml:space="preserve" font-family="Menlo-Regular,Menlo" font-size="59.0" fill="#FEFFFF" transform="matrix(1.00, 0.00, -0.00, -1.00, 641.6, 490.7)">&gt;</text><text xml:space="preserve" font-family="Menlo-Regular,Menlo" font-size="59.0" fill="#FEFFFF" transform="matrix(1.00, 0.00, -0.00, -1.00, 677.1, 490.7)">=</text><text xml:space="preserve" font-family="Menlo-Regular,Menlo" font-size="59.0" fill="#FEFFFF" transform="matrix(1.00, 0.00, -0.00, -1.00, 712.6, 490.7)"> </text><text xml:space="preserve" font-family="Menlo-Regular,Menlo" font-size="59.0" fill="#FEFFFF" transform="matrix(1.00, 0.00, -0.00, -1.00, 748.2, 490.7)">p</text><text xml:space="preserve" font-family="Menlo-Regular,Menlo" font-size="59.0" fill="#FEFFFF" transform="matrix(1.00, 0.00, -0.00, -1.00, 783.7, 490.7)">e</text><text xml:space="preserve" font-family="Menlo-Regular,Menlo" font-size="59.0" fill="#FEFFFF" transform="matrix(1.00, 0.00, -0.00, -1.00, 819.2, 490.7)">r</text><text xml:space="preserve" font-family="Menlo-Regular,Menlo" font-size="59.0" fill="#FEFFFF" transform="matrix(1.00, 0.00, -0.00, -1.00, 854.8, 490.7)">i</text><text xml:space="preserve" font-family="Menlo-Regular,Menlo" font-size="59.0" fill="#FEFFFF" transform="matrix(1.00, 0.00, -0.00, -1.00, 890.3, 490.7)">o</text><text xml:space="preserve" font-family="Menlo-Regular,Menlo" font-size="59.0" fill="#FEFFFF" transform="matrix(1.00, 0.00, -0.00, -1.00, 925.8, 490.7)">d</text><text xml:space="preserve" font-family="Menlo-Regular,Menlo" font-size="59.0" fill="#FEFFFF" transform="matrix(1.00, 0.00, -0.00, -1.00, 961.3, 490.7)">)</text><text xml:space="preserve" font-family="Menlo-Regular,Menlo" font-size="59.0" fill="#FEFFFF" transform="matrix(1.00, 0.00, -0.00, -1.00, 996.9, 490.7)"> </text><text xml:space="preserve" font-family="Menlo-Regular,Menlo" font-size="59.0" fill="#FEFFFF" transform="matrix(1.00, 0.00, -0.00, -1.00, 1032.4, 490.7)">{</text><text xml:space="preserve" font-family="Menlo-Regular,Menlo" font-size="59.0" fill="#FEFFFF" transform="matrix(1.00, 0.00, -0.00, -1.00, 1067.9, 490.7)"> </text><text xml:space="preserve" font-family="Menlo-Regular,Menlo" font-size="59.0" fill="#FEFFFF" transform="matrix(1.00, 0.00, -0.00, -1.00, 2.1, 421.7)"> </text><text xml:space="preserve" font-family="Menlo-Regular,Menlo" font-size="59.0" fill="#FEFFFF" transform="matrix(1.00, 0.00, -0.00, -1.00, 48.1, 421.7)"> </text><text xml:space="preserve" font-family="Menlo-Regular,Menlo" font-size="59.0" fill="#FEFFFF" transform="matrix(1.00, 0.00, -0.00, -1.00, 94.1, 421.7)"> </text><text xml:space="preserve" font-family="Menlo-Regular,Menlo" font-size="59.0" fill="#FEFFFF" transform="matrix(1.00, 0.00, -0.00, -1.00, 129.6, 421.7)"> </text><text xml:space="preserve" font-family="Menlo-Regular,Menlo" font-size="59.0" fill="#FEFFFF" transform="matrix(1.00, 0.00, -0.00, -1.00, 165.2, 421.7)"> </text><text xml:space="preserve" font-family="Menlo-Regular,Menlo" font-size="59.0" fill="#FEFFFF" transform="matrix(1.00, 0.00, -0.00, -1.00, 200.7, 421.7)">r</text><text xml:space="preserve" font-family="Menlo-Regular,Menlo" font-size="59.0" fill="#FEFFFF" transform="matrix(1.00, 0.00, -0.00, -1.00, 236.2, 421.7)">e</text><text xml:space="preserve" font-family="Menlo-Regular,Menlo" font-size="59.0" fill="#FEFFFF" transform="matrix(1.00, 0.00, -0.00, -1.00, 271.7, 421.7)">t</text><text xml:space="preserve" font-family="Menlo-Regular,Menlo" font-size="59.0" fill="#FEFFFF" transform="matrix(1.00, 0.00, -0.00, -1.00, 307.2, 421.7)">u</text><text xml:space="preserve" font-family="Menlo-Regular,Menlo" font-size="59.0" fill="#FEFFFF" transform="matrix(1.00, 0.00, -0.00, -1.00, 342.7, 421.7)">r</text><text xml:space="preserve" font-family="Menlo-Regular,Menlo" font-size="59.0" fill="#FEFFFF" transform="matrix(1.00, 0.00, -0.00, -1.00, 378.2, 421.7)">n</text><text xml:space="preserve" font-family="Menlo-Regular,Menlo" font-size="59.0" fill="#FEFFFF" transform="matrix(1.00, 0.00, -0.00, -1.00, 413.7, 421.7)"> </text><text xml:space="preserve" font-family="Menlo-Regular,Menlo" font-size="59.0" fill="#FEFFFF" transform="matrix(1.00, 0.00, -0.00, -1.00, 449.2, 421.7)">d</text><text xml:space="preserve" font-family="Menlo-Regular,Menlo" font-size="59.0" fill="#FEFFFF" transform="matrix(1.00, 0.00, -0.00, -1.00, 484.7, 421.7)">.</text><text xml:space="preserve" font-family="Menlo-Regular,Menlo" font-size="59.0" fill="#FEFFFF" transform="matrix(1.00, 0.00, -0.00, -1.00, 520.2, 421.7)">r</text><text xml:space="preserve" font-family="Menlo-Regular,Menlo" font-size="59.0" fill="#FEFFFF" transform="matrix(1.00, 0.00, -0.00, -1.00, 555.7, 421.7)">e</text><text xml:space="preserve" font-family="Menlo-Regular,Menlo" font-size="59.0" fill="#FEFFFF" transform="matrix(1.00, 0.00, -0.00, -1.00, 591.2, 421.7)">s</text><text xml:space="preserve" font-family="Menlo-Regular,Menlo" font-size="59.0" fill="#FEFFFF" transform="matrix(1.00, 0.00, -0.00, -1.00, 626.7, 421.7)">o</text><text xml:space="preserve" font-family="Menlo-Regular,Menlo" font-size="59.0" fill="#FEFFFF" transform="matrix(1.00, 0.00, -0.00, -1.00, 662.2, 421.7)">l</text><text xml:space="preserve" font-family="Menlo-Regular,Menlo" font-size="59.0" fill="#FEFFFF" transform="matrix(1.00, 0.00, -0.00, -1.00, 697.7, 421.7)">v</text><text xml:space="preserve" font-family="Menlo-Regular,Menlo" font-size="59.0" fill="#FEFFFF" transform="matrix(1.00, 0.00, -0.00, -1.00, 733.2, 421.7)">e</text><text xml:space="preserve" font-family="Menlo-Regular,Menlo" font-size="59.0" fill="#FEFFFF" transform="matrix(1.00, 0.00, -0.00, -1.00, 768.7, 421.7)">(</text><text xml:space="preserve" font-family="Menlo-Regular,Menlo" font-size="59.0" fill="#FEFFFF" transform="matrix(1.00, 0.00, -0.00, -1.00, 804.2, 421.7)">(</text><text xml:space="preserve" font-family="Menlo-Regular,Menlo" font-size="59.0" fill="#FEFFFF" transform="matrix(1.00, 0.00, -0.00, -1.00, 839.7, 421.7)">f</text><text xml:space="preserve" font-family="Menlo-Regular,Menlo" font-size="59.0" fill="#FEFFFF" transform="matrix(1.00, 0.00, -0.00, -1.00, 875.2, 421.7)">p</text><text xml:space="preserve" font-family="Menlo-Regular,Menlo" font-size="59.0" fill="#FEFFFF" transform="matrix(1.00, 0.00, -0.00, -1.00, 910.7, 421.7)">s</text><text xml:space="preserve" font-family="Menlo-Regular,Menlo" font-size="59.0" fill="#FEFFFF" transform="matrix(1.00, 0.00, -0.00, -1.00, 946.2, 421.7)">+</text><text xml:space="preserve" font-family="Menlo-Regular,Menlo" font-size="59.0" fill="#FEFFFF" transform="matrix(1.00, 0.00, -0.00, -1.00, 981.7, 421.7)">1</text><text xml:space="preserve" font-family="Menlo-Regular,Menlo" font-size="59.0" fill="#FEFFFF" transform="matrix(1.00, 0.00, -0.00, -1.00, 1017.2, 421.7)">)</text><text xml:space="preserve" font-family="Menlo-Regular,Menlo" font-size="59.0" fill="#FEFFFF" transform="matrix(1.00, 0.00, -0.00, -1.00, 1052.7, 421.7)"> </text><text xml:space="preserve" font-family="Menlo-Regular,Menlo" font-size="59.0" fill="#FEFFFF" transform="matrix(1.00, 0.00, -0.00, -1.00, 1088.2, 421.7)">*</text><text xml:space="preserve" font-family="Menlo-Regular,Menlo" font-size="59.0" fill="#FEFFFF" transform="matrix(1.00, 0.00, -0.00, -1.00, 1123.7, 421.7)"> </text><text xml:space="preserve" font-family="Menlo-Regular,Menlo" font-size="59.0" fill="#FEFFFF" transform="matrix(1.00, 0.00, -0.00, -1.00, 1159.2, 421.7)">1</text><text xml:space="preserve" font-family="Menlo-Regular,Menlo" font-size="59.0" fill="#FEFFFF" transform="matrix(1.00, 0.00, -0.00, -1.00, 1194.7, 421.7)">0</text><text xml:space="preserve" font-family="Menlo-Regular,Menlo" font-size="59.0" fill="#FEFFFF" transform="matrix(1.00, 0.00, -0.00, -1.00, 1230.3, 421.7)">0</text><text xml:space="preserve" font-family="Menlo-Regular,Menlo" font-size="59.0" fill="#FEFFFF" transform="matrix(1.00, 0.00, -0.00, -1.00, 1265.8, 421.7)">0</text><text xml:space="preserve" font-family="Menlo-Regular,Menlo" font-size="59.0" fill="#FEFFFF" transform="matrix(1.00, 0.00, -0.00, -1.00, 1301.8, 421.7)">/</text><text xml:space="preserve" font-family="Menlo-Regular,Menlo" font-size="59.0" fill="#FEFFFF" transform="matrix(1.00, 0.00, -0.00, -1.00, 1337.4, 421.7)">(</text><text xml:space="preserve" font-family="Menlo-Regular,Menlo" font-size="59.0" fill="#FEFFFF" transform="matrix(1.00, 0.00, -0.00, -1.00, 1372.9, 421.7)">n</text><text xml:space="preserve" font-family="Menlo-Regular,Menlo" font-size="59.0" fill="#FEFFFF" transform="matrix(1.00, 0.00, -0.00, -1.00, 1408.4, 421.7)">o</text><text xml:space="preserve" font-family="Menlo-Regular,Menlo" font-size="59.0" fill="#FEFFFF" transform="matrix(1.00, 0.00, -0.00, -1.00, 1444.0, 421.7)">w</text><text xml:space="preserve" font-family="Menlo-Regular,Menlo" font-size="59.0" fill="#FEFFFF" transform="matrix(1.00, 0.00, -0.00, -1.00, 1479.5, 421.7)">-</text><text xml:space="preserve" font-family="Menlo-Regular,Menlo" font-size="59.0" fill="#FEFFFF" transform="matrix(1.00, 0.00, -0.00, -1.00, 1515.0, 421.7)">s</text><text xml:space="preserve" font-family="Menlo-Regular,Menlo" font-size="59.0" fill="#FEFFFF" transform="matrix(1.00, 0.00, -0.00, -1.00, 1550.5, 421.7)">t</text><text xml:space="preserve" font-family="Menlo-Regular,Menlo" font-size="59.0" fill="#FEFFFF" transform="matrix(1.00, 0.00, -0.00, -1.00, 1586.1, 421.7)">a</text><text xml:space="preserve" font-family="Menlo-Regular,Menlo" font-size="59.0" fill="#FEFFFF" transform="matrix(1.00, 0.00, -0.00, -1.00, 1621.6, 421.7)">r</text><text xml:space="preserve" font-family="Menlo-Regular,Menlo" font-size="59.0" fill="#FEFFFF" transform="matrix(1.00, 0.00, -0.00, -1.00, 1657.1, 421.7)">t</text><text xml:space="preserve" font-family="Menlo-Regular,Menlo" font-size="59.0" fill="#FEFFFF" transform="matrix(1.00, 0.00, -0.00, -1.00, 1692.6, 421.7)">)</text><text xml:space="preserve" font-family="Menlo-Regular,Menlo" font-size="59.0" fill="#FEFFFF" transform="matrix(1.00, 0.00, -0.00, -1.00, 1728.2, 421.7)">)</text><text xml:space="preserve" font-family="Menlo-Regular,Menlo" font-size="59.0" fill="#FEFFFF" transform="matrix(1.00, 0.00, -0.00, -1.00, 1763.7, 421.7)">;</text><text xml:space="preserve" font-family="Menlo-Regular,Menlo" font-size="59.0" fill="#FEFFFF" transform="matrix(1.00, 0.00, -0.00, -1.00, 1799.2, 421.7)"> </text><text xml:space="preserve" font-family="Menlo-Regular,Menlo" font-size="59.0" fill="#FEFFFF" transform="matrix(1.00, 0.00, -0.00, -1.00, 2.1, 352.7)"> </text><text xml:space="preserve" font-family="Menlo-Regular,Menlo" font-size="59.0" fill="#FEFFFF" transform="matrix(1.00, 0.00, -0.00, -1.00, 37.7, 352.7)"> </text><text xml:space="preserve" font-family="Menlo-Regular,Menlo" font-size="59.0" fill="#FEFFFF" transform="matrix(1.00, 0.00, -0.00, -1.00, 73.2, 352.7)"> </text><text xml:space="preserve" font-family="Menlo-Regular,Menlo" font-size="59.0" fill="#FEFFFF" transform="matrix(1.00, 0.00, -0.00, -1.00, 108.7, 352.7)"> </text><text xml:space="preserve" font-family="Menlo-Regular,Menlo" font-size="59.0" fill="#FEFFFF" transform="matrix(1.00, 0.00, -0.00, -1.00, 144.2, 352.7)">}</text><text xml:space="preserve" font-family="Menlo-Regular,Menlo" font-size="59.0" fill="#FEFFFF" transform="matrix(1.00, 0.00, -0.00, -1.00, 179.7, 352.7)"> </text><text xml:space="preserve" font-family="Menlo-Regular,Menlo" font-size="59.0" fill="#FEFFFF" transform="matrix(1.00, 0.00, -0.00, -1.00, 2.1, 283.7)"> </text><text xml:space="preserve" font-family="Menlo-Regular,Menlo" font-size="59.0" fill="#FEFFFF" transform="matrix(1.00, 0.00, -0.00, -1.00, 48.1, 283.7)"> </text><text xml:space="preserve" font-family="Menlo-Regular,Menlo" font-size="59.0" fill="#FEFFFF" transform="matrix(1.00, 0.00, -0.00, -1.00, 94.1, 283.7)"> </text><text xml:space="preserve" font-family="Menlo-Regular,Menlo" font-size="59.0" fill="#FEFFFF" transform="matrix(1.00, 0.00, -0.00, -1.00, 129.6, 283.7)">s</text><text xml:space="preserve" font-family="Menlo-Regular,Menlo" font-size="59.0" fill="#FEFFFF" transform="matrix(1.00, 0.00, -0.00, -1.00, 165.2, 283.7)">a</text><text xml:space="preserve" font-family="Menlo-Regular,Menlo" font-size="59.0" fill="#FEFFFF" transform="matrix(1.00, 0.00, -0.00, -1.00, 200.7, 283.7)">m</text><text xml:space="preserve" font-family="Menlo-Regular,Menlo" font-size="59.0" fill="#FEFFFF" transform="matrix(1.00, 0.00, -0.00, -1.00, 236.2, 283.7)">p</text><text xml:space="preserve" font-family="Menlo-Regular,Menlo" font-size="59.0" fill="#FEFFFF" transform="matrix(1.00, 0.00, -0.00, -1.00, 271.7, 283.7)">l</text><text xml:space="preserve" font-family="Menlo-Regular,Menlo" font-size="59.0" fill="#FEFFFF" transform="matrix(1.00, 0.00, -0.00, -1.00, 307.2, 283.7)">e</text><text xml:space="preserve" font-family="Menlo-Regular,Menlo" font-size="59.0" fill="#FEFFFF" transform="matrix(1.00, 0.00, -0.00, -1.00, 342.7, 283.7)">F</text><text xml:space="preserve" font-family="Menlo-Regular,Menlo" font-size="59.0" fill="#FEFFFF" transform="matrix(1.00, 0.00, -0.00, -1.00, 378.2, 283.7)">p</text><text xml:space="preserve" font-family="Menlo-Regular,Menlo" font-size="59.0" fill="#FEFFFF" transform="matrix(1.00, 0.00, -0.00, -1.00, 413.7, 283.7)">s</text><text xml:space="preserve" font-family="Menlo-Regular,Menlo" font-size="59.0" fill="#FEFFFF" transform="matrix(1.00, 0.00, -0.00, -1.00, 449.2, 283.7)">(</text><text xml:space="preserve" font-family="Menlo-Regular,Menlo" font-size="59.0" fill="#FEFFFF" transform="matrix(1.00, 0.00, -0.00, -1.00, 484.7, 283.7)">p</text><text xml:space="preserve" font-family="Menlo-Regular,Menlo" font-size="59.0" fill="#FEFFFF" transform="matrix(1.00, 0.00, -0.00, -1.00, 520.2, 283.7)">e</text><text xml:space="preserve" font-family="Menlo-Regular,Menlo" font-size="59.0" fill="#FEFFFF" transform="matrix(1.00, 0.00, -0.00, -1.00, 555.7, 283.7)">r</text><text xml:space="preserve" font-family="Menlo-Regular,Menlo" font-size="59.0" fill="#FEFFFF" transform="matrix(1.00, 0.00, -0.00, -1.00, 591.2, 283.7)">i</text><text xml:space="preserve" font-family="Menlo-Regular,Menlo" font-size="59.0" fill="#FEFFFF" transform="matrix(1.00, 0.00, -0.00, -1.00, 626.7, 283.7)">o</text><text xml:space="preserve" font-family="Menlo-Regular,Menlo" font-size="59.0" fill="#FEFFFF" transform="matrix(1.00, 0.00, -0.00, -1.00, 662.2, 283.7)">d</text><text xml:space="preserve" font-family="Menlo-Regular,Menlo" font-size="59.0" fill="#FEFFFF" transform="matrix(1.00, 0.00, -0.00, -1.00, 697.7, 283.7)">,</text><text xml:space="preserve" font-family="Menlo-Regular,Menlo" font-size="59.0" fill="#FEFFFF" transform="matrix(1.00, 0.00, -0.00, -1.00, 733.2, 283.7)"> </text><text xml:space="preserve" font-family="Menlo-Regular,Menlo" font-size="59.0" fill="#FEFFFF" transform="matrix(1.00, 0.00, -0.00, -1.00, 768.7, 283.7)">d</text><text xml:space="preserve" font-family="Menlo-Regular,Menlo" font-size="59.0" fill="#FEFFFF" transform="matrix(1.00, 0.00, -0.00, -1.00, 804.2, 283.7)">,</text><text xml:space="preserve" font-family="Menlo-Regular,Menlo" font-size="59.0" fill="#FEFFFF" transform="matrix(1.00, 0.00, -0.00, -1.00, 839.7, 283.7)"> </text><text xml:space="preserve" font-family="Menlo-Regular,Menlo" font-size="59.0" fill="#FEFFFF" transform="matrix(1.00, 0.00, -0.00, -1.00, 875.2, 283.7)">+</text><text xml:space="preserve" font-family="Menlo-Regular,Menlo" font-size="59.0" fill="#FEFFFF" transform="matrix(1.00, 0.00, -0.00, -1.00, 910.7, 283.7)">+</text><text xml:space="preserve" font-family="Menlo-Regular,Menlo" font-size="59.0" fill="#FEFFFF" transform="matrix(1.00, 0.00, -0.00, -1.00, 946.2, 283.7)">f</text><text xml:space="preserve" font-family="Menlo-Regular,Menlo" font-size="59.0" fill="#FEFFFF" transform="matrix(1.00, 0.00, -0.00, -1.00, 981.7, 283.7)">p</text><text xml:space="preserve" font-family="Menlo-Regular,Menlo" font-size="59.0" fill="#FEFFFF" transform="matrix(1.00, 0.00, -0.00, -1.00, 1017.2, 283.7)">s</text><text xml:space="preserve" font-family="Menlo-Regular,Menlo" font-size="59.0" fill="#FEFFFF" transform="matrix(1.00, 0.00, -0.00, -1.00, 1053.2, 283.7)">)</text><text xml:space="preserve" font-family="Menlo-Regular,Menlo" font-size="59.0" fill="#FEFFFF" transform="matrix(1.00, 0.00, -0.00, -1.00, 1088.7, 283.7)">;</text><text xml:space="preserve" font-family="Menlo-Regular,Menlo" font-size="59.0" fill="#FEFFFF" transform="matrix(1.00, 0.00, -0.00, -1.00, 1124.3, 283.7)"> </text><text xml:space="preserve" font-family="Menlo-Regular,Menlo" font-size="59.0" fill="#FEFFFF" transform="matrix(1.00, 0.00, -0.00, -1.00, 2.1, 214.7)"> </text><text xml:space="preserve" font-family="Menlo-Regular,Menlo" font-size="59.0" fill="#FEFFFF" transform="matrix(1.00, 0.00, -0.00, -1.00, 37.7, 214.7)"> </text><text xml:space="preserve" font-family="Menlo-Regular,Menlo" font-size="59.0" fill="#FEFFFF" transform="matrix(1.00, 0.00, -0.00, -1.00, 73.2, 214.7)">}</text><text xml:space="preserve" font-family="Menlo-Regular,Menlo" font-size="59.0" fill="#FEFFFF" transform="matrix(1.00, 0.00, -0.00, -1.00, 108.7, 214.7)">)</text><text xml:space="preserve" font-family="Menlo-Regular,Menlo" font-size="59.0" fill="#FEFFFF" transform="matrix(1.00, 0.00, -0.00, -1.00, 144.2, 214.7)">;</text><text xml:space="preserve" font-family="Menlo-Regular,Menlo" font-size="59.0" fill="#FEFFFF" transform="matrix(1.00, 0.00, -0.00, -1.00, 179.8, 214.7)"> </text><text xml:space="preserve" font-family="Menlo-Regular,Menlo" font-size="59.0" fill="#FEFFFF" transform="matrix(1.00, 0.00, -0.00, -1.00, 2.1, 76.7)"> </text><text xml:space="preserve" font-family="Menlo-Regular,Menlo" font-size="59.0" fill="#FEFFFF" transform="matrix(1.00, 0.00, -0.00, -1.00, 48.1, 76.7)">r</text><text xml:space="preserve" font-family="Menlo-Regular,Menlo" font-size="59.0" fill="#FEFFFF" transform="matrix(1.00, 0.00, -0.00, -1.00, 83.6, 76.7)">e</text><text xml:space="preserve" font-family="Menlo-Regular,Menlo" font-size="59.0" fill="#FEFFFF" transform="matrix(1.00, 0.00, -0.00, -1.00, 119.1, 76.7)">t</text><text xml:space="preserve" font-family="Menlo-Regular,Menlo" font-size="59.0" fill="#FEFFFF" transform="matrix(1.00, 0.00, -0.00, -1.00, 154.7, 76.7)">u</text><text xml:space="preserve" font-family="Menlo-Regular,Menlo" font-size="59.0" fill="#FEFFFF" transform="matrix(1.00, 0.00, -0.00, -1.00, 190.2, 76.7)">r</text><text xml:space="preserve" font-family="Menlo-Regular,Menlo" font-size="59.0" fill="#FEFFFF" transform="matrix(1.00, 0.00, -0.00, -1.00, 225.7, 76.7)">n</text><text xml:space="preserve" font-family="Menlo-Regular,Menlo" font-size="59.0" fill="#FEFFFF" transform="matrix(1.00, 0.00, -0.00, -1.00, 261.2, 76.7)"> </text><text xml:space="preserve" font-family="Menlo-Regular,Menlo" font-size="59.0" fill="#FEFFFF" transform="matrix(1.00, 0.00, -0.00, -1.00, 296.7, 76.7)">d</text><text xml:space="preserve" font-family="Menlo-Regular,Menlo" font-size="59.0" fill="#FEFFFF" transform="matrix(1.00, 0.00, -0.00, -1.00, 332.2, 76.7)">.</text><text xml:space="preserve" font-family="Menlo-Regular,Menlo" font-size="59.0" fill="#FEFFFF" transform="matrix(1.00, 0.00, -0.00, -1.00, 367.7, 76.7)">p</text><text xml:space="preserve" font-family="Menlo-Regular,Menlo" font-size="59.0" fill="#FEFFFF" transform="matrix(1.00, 0.00, -0.00, -1.00, 403.2, 76.7)">r</text><text xml:space="preserve" font-family="Menlo-Regular,Menlo" font-size="59.0" fill="#FEFFFF" transform="matrix(1.00, 0.00, -0.00, -1.00, 438.7, 76.7)">o</text><text xml:space="preserve" font-family="Menlo-Regular,Menlo" font-size="59.0" fill="#FEFFFF" transform="matrix(1.00, 0.00, -0.00, -1.00, 474.2, 76.7)">m</text><text xml:space="preserve" font-family="Menlo-Regular,Menlo" font-size="59.0" fill="#FEFFFF" transform="matrix(1.00, 0.00, -0.00, -1.00, 509.7, 76.7)">i</text><text xml:space="preserve" font-family="Menlo-Regular,Menlo" font-size="59.0" fill="#FEFFFF" transform="matrix(1.00, 0.00, -0.00, -1.00, 545.2, 76.7)">s</text><text xml:space="preserve" font-family="Menlo-Regular,Menlo" font-size="59.0" fill="#FEFFFF" transform="matrix(1.00, 0.00, -0.00, -1.00, 580.7, 76.7)">e</text><text xml:space="preserve" font-family="Menlo-Regular,Menlo" font-size="59.0" fill="#FEFFFF" transform="matrix(1.00, 0.00, -0.00, -1.00, 616.5, 76.7)">;</text><text xml:space="preserve" font-family="Menlo-Regular,Menlo" font-size="59.0" fill="#FEFFFF" transform="matrix(1.00, 0.00, -0.00, -1.00, 652.0, 76.7)"> </text><text xml:space="preserve" font-family="Menlo-Regular,Menlo" font-size="59.0" fill="#FEFFFF" transform="matrix(1.00, 0.00, -0.00, -1.00, 2.1, 7.7)">}</text></g></svg>