<?xml version="1.0" encoding="UTF-8" standalone="no"?><svg xmlns="http://www.w3.org/2000/svg" xmlns:xlink="http://www.w3.org/1999/xlink" clip-rule="evenodd" stroke-miterlimit="10" viewBox="0 0 1920 1080"><desc>SVG generated by Keynote</desc><defs></defs><g transform="matrix(1.00, 0.00, -0.00, -1.00, 0.0, 1080.0)"><path d="M 0.0 1080.0 L 1920.0 1080.0 L 1920.0 0.0 L 0.0 0.0 Z M 0.0 1080.0 " fill="#000000"></path><g opacity="0.00"><g><clipPath id="clip0x6080010a5580"><path d="M 144.0 395.0 L 1776.0 395.0 L 1776.0 685.0 L 144.0 685.0 Z M 144.0 395.0 "></path></clipPath><g clip-path="url(#clip0x6080010a5580)"><text xml:space="preserve" font-family="Menlo-Regular,Menlo" font-size="59.0" fill="#FEFFFF" transform="matrix(1.00, 0.00, -0.00, -1.00, 150.7, 622.9)">f</text><text xml:space="preserve" font-family="Menlo-Regular,Menlo" font-size="59.0" fill="#FEFFFF" transform="matrix(1.00, 0.00, -0.00, -1.00, 186.2, 622.9)">u</text><text xml:space="preserve" font-family="Menlo-Regular,Menlo" font-size="59.0" fill="#FEFFFF" transform="matrix(1.00, 0.00, -0.00, -1.00, 221.7, 622.9)">n</text><text xml:space="preserve" font-family="Menlo-Regular,Menlo" font-size="59.0" fill="#FEFFFF" transform="matrix(1.00, 0.00, -0.00, -1.00, 257.2, 622.9)">c</text><text xml:space="preserve" font-family="Menlo-Regular,Menlo" font-size="59.0" fill="#FEFFFF" transform="matrix(1.00, 0.00, -0.00, -1.00, 292.8, 622.9)">t</text><text xml:space="preserve" font-family="Menlo-Regular,Menlo" font-size="59.0" fill="#FEFFFF" transform="matrix(1.00, 0.00, -0.00, -1.00, 328.3, 622.9)">i</text><text xml:space="preserve" font-family="Menlo-Regular,Menlo" font-size="59.0" fill="#FEFFFF" transform="matrix(1.00, 0.00, -0.00, -1.00, 363.8, 622.9)">o</text><text xml:space="preserve" font-family="Menlo-Regular,Menlo" font-size="59.0" fill="#FEFFFF" transform="matrix(1.00, 0.00, -0.00, -1.00, 399.3, 622.9)">n</text><text xml:space="preserve" font-family="Menlo-Regular,Menlo" font-size="59.0" fill="#FEFFFF" transform="matrix(1.00, 0.00, -0.00, -1.00, 434.9, 622.9)"> </text><text xml:space="preserve" font-family="Menlo-Regular,Menlo" font-size="59.0" fill="#FEFFFF" transform="matrix(1.00, 0.00, -0.00, -1.00, 470.4, 622.9)">o</text><text xml:space="preserve" font-family="Menlo-Regular,Menlo" font-size="59.0" fill="#FEFFFF" transform="matrix(1.00, 0.00, -0.00, -1.00, 505.9, 622.9)">p</text><text xml:space="preserve" font-family="Menlo-Regular,Menlo" font-size="59.0" fill="#FEFFFF" transform="matrix(1.00, 0.00, -0.00, -1.00, 541.4, 622.9)">e</text><text xml:space="preserve" font-family="Menlo-Regular,Menlo" font-size="59.0" fill="#FEFFFF" transform="matrix(1.00, 0.00, -0.00, -1.00, 577.0, 622.9)">n</text><text xml:space="preserve" font-family="Menlo-Regular,Menlo" font-size="59.0" fill="#FEFFFF" transform="matrix(1.00, 0.00, -0.00, -1.00, 612.5, 622.9)">L</text><text xml:space="preserve" font-family="Menlo-Regular,Menlo" font-size="59.0" fill="#FEFFFF" transform="matrix(1.00, 0.00, -0.00, -1.00, 648.0, 622.9)">a</text><text xml:space="preserve" font-family="Menlo-Regular,Menlo" font-size="59.0" fill="#FEFFFF" transform="matrix(1.00, 0.00, -0.00, -1.00, 683.6, 622.9)">t</text><text xml:space="preserve" font-family="Menlo-Regular,Menlo" font-size="59.0" fill="#FEFFFF" transform="matrix(1.00, 0.00, -0.00, -1.00, 719.1, 622.9)">c</text><text xml:space="preserve" font-family="Menlo-Regular,Menlo" font-size="59.0" fill="#FEFFFF" transform="matrix(1.00, 0.00, -0.00, -1.00, 754.6, 622.9)">h</text><text xml:space="preserve" font-family="Menlo-Regular,Menlo" font-size="59.0" fill="#FEFFFF" transform="matrix(1.00, 0.00, -0.00, -1.00, 790.1, 622.9)">A</text><text xml:space="preserve" font-family="Menlo-Regular,Menlo" font-size="59.0" fill="#FEFFFF" transform="matrix(1.00, 0.00, -0.00, -1.00, 825.7, 622.9)">n</text><text xml:space="preserve" font-family="Menlo-Regular,Menlo" font-size="59.0" fill="#FEFFFF" transform="matrix(1.00, 0.00, -0.00, -1.00, 861.2, 622.9)">d</text><text xml:space="preserve" font-family="Menlo-Regular,Menlo" font-size="59.0" fill="#FEFFFF" transform="matrix(1.00, 0.00, -0.00, -1.00, 896.7, 622.9)">D</text><text xml:space="preserve" font-family="Menlo-Regular,Menlo" font-size="59.0" fill="#FEFFFF" transform="matrix(1.00, 0.00, -0.00, -1.00, 932.2, 622.9)">r</text><text xml:space="preserve" font-family="Menlo-Regular,Menlo" font-size="59.0" fill="#FEFFFF" transform="matrix(1.00, 0.00, -0.00, -1.00, 967.8, 622.9)">a</text><text xml:space="preserve" font-family="Menlo-Regular,Menlo" font-size="59.0" fill="#FEFFFF" transform="matrix(1.00, 0.00, -0.00, -1.00, 1003.3, 622.9)">i</text><text xml:space="preserve" font-family="Menlo-Regular,Menlo" font-size="59.0" fill="#FEFFFF" transform="matrix(1.00, 0.00, -0.00, -1.00, 1038.8, 622.9)">n</text><text xml:space="preserve" font-family="Menlo-Regular,Menlo" font-size="59.0" fill="#FEFFFF" transform="matrix(1.00, 0.00, -0.00, -1.00, 1074.4, 622.9)">O</text><text xml:space="preserve" font-family="Menlo-Regular,Menlo" font-size="59.0" fill="#FEFFFF" transform="matrix(1.00, 0.00, -0.00, -1.00, 1109.9, 622.9)">n</text><text xml:space="preserve" font-family="Menlo-Regular,Menlo" font-size="59.0" fill="#FEFFFF" transform="matrix(1.00, 0.00, -0.00, -1.00, 1145.4, 622.9)">e</text><text xml:space="preserve" font-family="Menlo-Regular,Menlo" font-size="59.0" fill="#FEFFFF" transform="matrix(1.00, 0.00, -0.00, -1.00, 1180.9, 622.9)">(</text><text xml:space="preserve" font-family="Menlo-Regular,Menlo" font-size="59.0" fill="#FEFFFF" transform="matrix(1.00, 0.00, -0.00, -1.00, 1216.5, 622.9)">)</text><text xml:space="preserve" font-family="Menlo-Regular,Menlo" font-size="59.0" fill="#FEFFFF" transform="matrix(1.00, 0.00, -0.00, -1.00, 1252.0, 622.9)"> </text><text xml:space="preserve" font-family="Menlo-Regular,Menlo" font-size="59.0" fill="#FEFFFF" transform="matrix(1.00, 0.00, -0.00, -1.00, 1287.5, 622.9)">{</text><text xml:space="preserve" font-family="Menlo-Regular,Menlo" font-size="59.0" fill="#FEFFFF" transform="matrix(1.00, 0.00, -0.00, -1.00, 1323.0, 622.9)"> </text><text xml:space="preserve" font-family="Menlo-Regular,Menlo" font-size="59.0" fill="#FEFFFF" transform="matrix(1.00, 0.00, -0.00, -1.00, 150.7, 553.9)"> </text><text xml:space="preserve" font-family="Menlo-Regular,Menlo" font-size="59.0" fill="#FEFFFF" transform="matrix(1.00, 0.00, -0.00, -1.00, 196.7, 553.9)"> </text><text xml:space="preserve" font-family="Menlo-Regular,Menlo" font-size="59.0" fill="#FEFFFF" transform="matrix(1.00, 0.00, -0.00, -1.00, 242.7, 553.9)">l</text><text xml:space="preserve" font-family="Menlo-Regular,Menlo" font-size="59.0" fill="#FEFFFF" transform="matrix(1.00, 0.00, -0.00, -1.00, 278.2, 553.9)">a</text><text xml:space="preserve" font-family="Menlo-Regular,Menlo" font-size="59.0" fill="#FEFFFF" transform="matrix(1.00, 0.00, -0.00, -1.00, 313.7, 553.9)">t</text><text xml:space="preserve" font-family="Menlo-Regular,Menlo" font-size="59.0" fill="#FEFFFF" transform="matrix(1.00, 0.00, -0.00, -1.00, 349.2, 553.9)">c</text><text xml:space="preserve" font-family="Menlo-Regular,Menlo" font-size="59.0" fill="#FEFFFF" transform="matrix(1.00, 0.00, -0.00, -1.00, 384.7, 553.9)">h</text><text xml:space="preserve" font-family="Menlo-Regular,Menlo" font-size="59.0" fill="#FEFFFF" transform="matrix(1.00, 0.00, -0.00, -1.00, 420.2, 553.9)"> </text><text xml:space="preserve" font-family="Menlo-Regular,Menlo" font-size="59.0" fill="#FEFFFF" transform="matrix(1.00, 0.00, -0.00, -1.00, 455.7, 553.9)">=</text><text xml:space="preserve" font-family="Menlo-Regular,Menlo" font-size="59.0" fill="#FEFFFF" transform="matrix(1.00, 0.00, -0.00, -1.00, 491.2, 553.9)"> </text><text xml:space="preserve" font-family="Menlo-Regular,Menlo" font-size="59.0" fill="#FEFFFF" transform="matrix(1.00, 0.00, -0.00, -1.00, 526.7, 553.9)">f</text><text xml:space="preserve" font-family="Menlo-Regular,Menlo" font-size="59.0" fill="#FEFFFF" transform="matrix(1.00, 0.00, -0.00, -1.00, 562.2, 553.9)">a</text><text xml:space="preserve" font-family="Menlo-Regular,Menlo" font-size="59.0" fill="#FEFFFF" transform="matrix(1.00, 0.00, -0.00, -1.00, 597.7, 553.9)">l</text><text xml:space="preserve" font-family="Menlo-Regular,Menlo" font-size="59.0" fill="#FEFFFF" transform="matrix(1.00, 0.00, -0.00, -1.00, 633.2, 553.9)">s</text><text xml:space="preserve" font-family="Menlo-Regular,Menlo" font-size="59.0" fill="#FEFFFF" transform="matrix(1.00, 0.00, -0.00, -1.00, 668.7, 553.9)">e</text><text xml:space="preserve" font-family="Menlo-Regular,Menlo" font-size="59.0" fill="#FEFFFF" transform="matrix(1.00, 0.00, -0.00, -1.00, 704.2, 553.9)">;</text><text xml:space="preserve" font-family="Menlo-Regular,Menlo" font-size="59.0" fill="#FEFFFF" transform="matrix(1.00, 0.00, -0.00, -1.00, 739.7, 553.9)"> </text><text xml:space="preserve" font-family="Menlo-Regular,Menlo" font-size="59.0" fill="#FEFFFF" transform="matrix(1.00, 0.00, -0.00, -1.00, 150.7, 484.9)"> </text><text xml:space="preserve" font-family="Menlo-Regular,Menlo" font-size="59.0" fill="#FEFFFF" transform="matrix(1.00, 0.00, -0.00, -1.00, 196.7, 484.9)"> </text><text xml:space="preserve" font-family="Menlo-Regular,Menlo" font-size="59.0" fill="#FEFFFF" transform="matrix(1.00, 0.00, -0.00, -1.00, 242.7, 484.9)">(</text><text xml:space="preserve" font-family="Menlo-Regular,Menlo" font-size="59.0" fill="#FEFFFF" transform="matrix(1.00, 0.00, -0.00, -1.00, 278.2, 484.9)">c</text><text xml:space="preserve" font-family="Menlo-Regular,Menlo" font-size="59.0" fill="#FEFFFF" transform="matrix(1.00, 0.00, -0.00, -1.00, 313.7, 484.9)">a</text><text xml:space="preserve" font-family="Menlo-Regular,Menlo" font-size="59.0" fill="#FEFFFF" transform="matrix(1.00, 0.00, -0.00, -1.00, 349.2, 484.9)">l</text><text xml:space="preserve" font-family="Menlo-Regular,Menlo" font-size="59.0" fill="#FEFFFF" transform="matrix(1.00, 0.00, -0.00, -1.00, 384.7, 484.9)">l</text><text xml:space="preserve" font-family="Menlo-Regular,Menlo" font-size="59.0" fill="#FEFFFF" transform="matrix(1.00, 0.00, -0.00, -1.00, 420.2, 484.9)">Q</text><text xml:space="preserve" font-family="Menlo-Regular,Menlo" font-size="59.0" fill="#FEFFFF" transform="matrix(1.00, 0.00, -0.00, -1.00, 455.7, 484.9)">u</text><text xml:space="preserve" font-family="Menlo-Regular,Menlo" font-size="59.0" fill="#FEFFFF" transform="matrix(1.00, 0.00, -0.00, -1.00, 491.2, 484.9)">e</text><text xml:space="preserve" font-family="Menlo-Regular,Menlo" font-size="59.0" fill="#FEFFFF" transform="matrix(1.00, 0.00, -0.00, -1.00, 526.7, 484.9)">u</text><text xml:space="preserve" font-family="Menlo-Regular,Menlo" font-size="59.0" fill="#FEFFFF" transform="matrix(1.00, 0.00, -0.00, -1.00, 562.2, 484.9)">e</text><text xml:space="preserve" font-family="Menlo-Regular,Menlo" font-size="59.0" fill="#FEFFFF" transform="matrix(1.00, 0.00, -0.00, -1.00, 597.7, 484.9)">.</text><text xml:space="preserve" font-family="Menlo-Regular,Menlo" font-size="59.0" fill="#FEFFFF" transform="matrix(1.00, 0.00, -0.00, -1.00, 633.2, 484.9)">l</text><text xml:space="preserve" font-family="Menlo-Regular,Menlo" font-size="59.0" fill="#FEFFFF" transform="matrix(1.00, 0.00, -0.00, -1.00, 668.7, 484.9)">e</text><text xml:space="preserve" font-family="Menlo-Regular,Menlo" font-size="59.0" fill="#FEFFFF" transform="matrix(1.00, 0.00, -0.00, -1.00, 704.2, 484.9)">n</text><text xml:space="preserve" font-family="Menlo-Regular,Menlo" font-size="59.0" fill="#FEFFFF" transform="matrix(1.00, 0.00, -0.00, -1.00, 739.7, 484.9)">g</text><text xml:space="preserve" font-family="Menlo-Regular,Menlo" font-size="59.0" fill="#FEFFFF" transform="matrix(1.00, 0.00, -0.00, -1.00, 775.2, 484.9)">t</text><text xml:space="preserve" font-family="Menlo-Regular,Menlo" font-size="59.0" fill="#FEFFFF" transform="matrix(1.00, 0.00, -0.00, -1.00, 810.7, 484.9)">h</text><text xml:space="preserve" font-family="Menlo-Regular,Menlo" font-size="59.0" fill="#FEFFFF" transform="matrix(1.00, 0.00, -0.00, -1.00, 846.2, 484.9)"> </text><text xml:space="preserve" font-family="Menlo-Regular,Menlo" font-size="59.0" fill="#FEFFFF" transform="matrix(1.00, 0.00, -0.00, -1.00, 881.7, 484.9)">&amp;</text><text xml:space="preserve" font-family="Menlo-Regular,Menlo" font-size="59.0" fill="#FEFFFF" transform="matrix(1.00, 0.00, -0.00, -1.00, 917.2, 484.9)">&amp;</text><text xml:space="preserve" font-family="Menlo-Regular,Menlo" font-size="59.0" fill="#FEFFFF" transform="matrix(1.00, 0.00, -0.00, -1.00, 952.7, 484.9)"> </text><text xml:space="preserve" font-family="Menlo-Regular,Menlo" font-size="59.0" fill="#FEFFFF" transform="matrix(1.00, 0.00, -0.00, -1.00, 988.2, 484.9)">c</text><text xml:space="preserve" font-family="Menlo-Regular,Menlo" font-size="59.0" fill="#FEFFFF" transform="matrix(1.00, 0.00, -0.00, -1.00, 1023.7, 484.9)">a</text><text xml:space="preserve" font-family="Menlo-Regular,Menlo" font-size="59.0" fill="#FEFFFF" transform="matrix(1.00, 0.00, -0.00, -1.00, 1059.2, 484.9)">l</text><text xml:space="preserve" font-family="Menlo-Regular,Menlo" font-size="59.0" fill="#FEFFFF" transform="matrix(1.00, 0.00, -0.00, -1.00, 1094.7, 484.9)">l</text><text xml:space="preserve" font-family="Menlo-Regular,Menlo" font-size="59.0" fill="#FEFFFF" transform="matrix(1.00, 0.00, -0.00, -1.00, 1130.2, 484.9)">Q</text><text xml:space="preserve" font-family="Menlo-Regular,Menlo" font-size="59.0" fill="#FEFFFF" transform="matrix(1.00, 0.00, -0.00, -1.00, 1165.7, 484.9)">u</text><text xml:space="preserve" font-family="Menlo-Regular,Menlo" font-size="59.0" fill="#FEFFFF" transform="matrix(1.00, 0.00, -0.00, -1.00, 1201.3, 484.9)">e</text><text xml:space="preserve" font-family="Menlo-Regular,Menlo" font-size="59.0" fill="#FEFFFF" transform="matrix(1.00, 0.00, -0.00, -1.00, 1236.8, 484.9)">u</text><text xml:space="preserve" font-family="Menlo-Regular,Menlo" font-size="59.0" fill="#FEFFFF" transform="matrix(1.00, 0.00, -0.00, -1.00, 1272.3, 484.9)">e</text><text xml:space="preserve" font-family="Menlo-Regular,Menlo" font-size="59.0" fill="#FEFFFF" transform="matrix(1.00, 0.00, -0.00, -1.00, 1307.8, 484.9)">.</text><text xml:space="preserve" font-family="Menlo-Regular,Menlo" font-size="59.0" fill="#FEFFFF" transform="matrix(1.00, 0.00, -0.00, -1.00, 1343.3, 484.9)">s</text><text xml:space="preserve" font-family="Menlo-Regular,Menlo" font-size="59.0" fill="#FEFFFF" transform="matrix(1.00, 0.00, -0.00, -1.00, 1378.8, 484.9)">h</text><text xml:space="preserve" font-family="Menlo-Regular,Menlo" font-size="59.0" fill="#FEFFFF" transform="matrix(1.00, 0.00, -0.00, -1.00, 1414.3, 484.9)">i</text><text xml:space="preserve" font-family="Menlo-Regular,Menlo" font-size="59.0" fill="#FEFFFF" transform="matrix(1.00, 0.00, -0.00, -1.00, 1449.8, 484.9)">f</text><text xml:space="preserve" font-family="Menlo-Regular,Menlo" font-size="59.0" fill="#FEFFFF" transform="matrix(1.00, 0.00, -0.00, -1.00, 1485.3, 484.9)">t</text><text xml:space="preserve" font-family="Menlo-Regular,Menlo" font-size="59.0" fill="#FEFFFF" transform="matrix(1.00, 0.00, -0.00, -1.00, 1520.8, 484.9)">(</text><text xml:space="preserve" font-family="Menlo-Regular,Menlo" font-size="59.0" fill="#FEFFFF" transform="matrix(1.00, 0.00, -0.00, -1.00, 1556.3, 484.9)">)</text><text xml:space="preserve" font-family="Menlo-Regular,Menlo" font-size="59.0" fill="#FEFFFF" transform="matrix(1.00, 0.00, -0.00, -1.00, 1591.8, 484.9)">(</text><text xml:space="preserve" font-family="Menlo-Regular,Menlo" font-size="59.0" fill="#FEFFFF" transform="matrix(1.00, 0.00, -0.00, -1.00, 1627.3, 484.9)">)</text><text xml:space="preserve" font-family="Menlo-Regular,Menlo" font-size="59.0" fill="#FEFFFF" transform="matrix(1.00, 0.00, -0.00, -1.00, 1662.8, 484.9)">)</text><text xml:space="preserve" font-family="Menlo-Regular,Menlo" font-size="59.0" fill="#FEFFFF" transform="matrix(1.00, 0.00, -0.00, -1.00, 1698.3, 484.9)">;</text><text xml:space="preserve" font-family="Menlo-Regular,Menlo" font-size="59.0" fill="#FEFFFF" transform="matrix(1.00, 0.00, -0.00, -1.00, 1733.8, 484.9)"> </text><text xml:space="preserve" font-family="Menlo-Regular,Menlo" font-size="59.0" fill="#FEFFFF" transform="matrix(1.00, 0.00, -0.00, -1.00, 150.7, 415.9)"> </text><text xml:space="preserve" font-family="Menlo-Regular,Menlo" font-size="59.0" fill="#FEFFFF" transform="matrix(1.00, 0.00, -0.00, -1.00, 196.7, 415.9)">}</text></g></g></g><g opacity="0.65"><g><clipPath id="clip0x6080010a2e20"><path d="M 48.0 951.0 L 1317.0 951.0 L 1317.0 1043.0 L 48.0 1043.0 Z M 48.0 951.0 "></path></clipPath><g clip-path="url(#clip0x6080010a2e20)"><text xml:space="preserve" font-family="HelveticaNeue-Bold,Helvetica Neue" font-weight="bold" font-size="70.0" fill="#FEFFFF" transform="matrix(1.00, 0.00, -0.00, -1.00, 52.5, 971.1)">S</text><text xml:space="preserve" font-family="HelveticaNeue-Bold,Helvetica Neue" font-weight="bold" font-size="70.0" fill="#FEFFFF" transform="matrix(1.00, 0.00, -0.00, -1.00, 97.9, 971.1)">o</text><text xml:space="preserve" font-family="HelveticaNeue-Bold,Helvetica Neue" font-weight="bold" font-size="70.0" fill="#FEFFFF" transform="matrix(1.00, 0.00, -0.00, -1.00, 140.7, 971.1)">l</text><text xml:space="preserve" font-family="HelveticaNeue-Bold,Helvetica Neue" font-weight="bold" font-size="70.0" fill="#FEFFFF" transform="matrix(1.00, 0.00, -0.00, -1.00, 158.8, 971.1)">u</text><text xml:space="preserve" font-family="HelveticaNeue-Bold,Helvetica Neue" font-weight="bold" font-size="70.0" fill="#FEFFFF" transform="matrix(1.00, 0.00, -0.00, -1.00, 200.3, 971.1)">t</text><text xml:space="preserve" font-family="HelveticaNeue-Bold,Helvetica Neue" font-weight="bold" font-size="70.0" fill="#FEFFFF" transform="matrix(1.00, 0.00, -0.00, -1.00, 224.9, 971.1)">i</text><text xml:space="preserve" font-family="HelveticaNeue-Bold,Helvetica Neue" font-weight="bold" font-size="70.0" fill="#FEFFFF" transform="matrix(1.00, 0.00, -0.00, -1.00, 243.0, 971.1)">o</text><text xml:space="preserve" font-family="HelveticaNeue-Bold,Helvetica Neue" font-weight="bold" font-size="70.0" fill="#FEFFFF" transform="matrix(1.00, 0.00, -0.00, -1.00, 285.8, 971.1)">n</text><text xml:space="preserve" font-family="HelveticaNeue-Bold,Helvetica Neue" font-weight="bold" font-size="70.0" fill="#FEFFFF" transform="matrix(1.00, 0.00, -0.00, -1.00, 327.3, 971.1)">s</text><text xml:space="preserve" font-family="HelveticaNeue-Bold,Helvetica Neue" font-weight="bold" font-size="70.0" fill="#FEFFFF" transform="matrix(1.00, 0.00, -0.00, -1.00, 364.9, 971.1)"> </text><text xml:space="preserve" font-family="HelveticaNeue-Bold,Helvetica Neue" font-weight="bold" font-size="70.0" fill="#FEFFFF" transform="matrix(1.00, 0.00, -0.00, -1.00, 384.3, 971.1)">:</text><text xml:space="preserve" font-family="HelveticaNeue-Bold,Helvetica Neue" font-weight="bold" font-size="70.0" fill="#FEFFFF" transform="matrix(1.00, 0.00, -0.00, -1.00, 403.8, 971.1)"> </text></g></g></g></g></svg>