<?xml version="1.0" encoding="UTF-8" standalone="no"?><svg xmlns="http://www.w3.org/2000/svg" xmlns:xlink="http://www.w3.org/1999/xlink" clip-rule="evenodd" stroke-miterlimit="10" viewBox="0 0 1460 748"><desc>SVG generated by Keynote</desc><defs></defs><g transform="matrix(1.00, 0.00, -0.00, -1.00, 0.0, 748.0)"><text xml:space="preserve" font-family="Menlo-Regular,Menlo" font-size="59.0" fill="#FEFFFF" transform="matrix(1.00, 0.00, -0.00, -1.00, 1.9, 697.8)">c</text><text xml:space="preserve" font-family="Menlo-Regular,Menlo" font-size="59.0" fill="#FEFFFF" transform="matrix(1.00, 0.00, -0.00, -1.00, 37.5, 697.8)">o</text><text xml:space="preserve" font-family="Menlo-Regular,Menlo" font-size="59.0" fill="#FEFFFF" transform="matrix(1.00, 0.00, -0.00, -1.00, 73.0, 697.8)">n</text><text xml:space="preserve" font-family="Menlo-Regular,Menlo" font-size="59.0" fill="#FEFFFF" transform="matrix(1.00, 0.00, -0.00, -1.00, 108.5, 697.8)">s</text><text xml:space="preserve" font-family="Menlo-Regular,Menlo" font-size="59.0" fill="#FEFFFF" transform="matrix(1.00, 0.00, -0.00, -1.00, 144.0, 697.8)">t</text><text xml:space="preserve" font-family="Menlo-Regular,Menlo" font-size="59.0" fill="#FEFFFF" transform="matrix(1.00, 0.00, -0.00, -1.00, 179.5, 697.8)"> </text><text xml:space="preserve" font-family="Menlo-Regular,Menlo" font-size="59.0" fill="#FEFFFF" transform="matrix(1.00, 0.00, -0.00, -1.00, 215.1, 697.8)">s</text><text xml:space="preserve" font-family="Menlo-Regular,Menlo" font-size="59.0" fill="#FEFFFF" transform="matrix(1.00, 0.00, -0.00, -1.00, 250.6, 697.8)">c</text><text xml:space="preserve" font-family="Menlo-Regular,Menlo" font-size="59.0" fill="#FEFFFF" transform="matrix(1.00, 0.00, -0.00, -1.00, 286.1, 697.8)">h</text><text xml:space="preserve" font-family="Menlo-Regular,Menlo" font-size="59.0" fill="#FEFFFF" transform="matrix(1.00, 0.00, -0.00, -1.00, 321.7, 697.8)">e</text><text xml:space="preserve" font-family="Menlo-Regular,Menlo" font-size="59.0" fill="#FEFFFF" transform="matrix(1.00, 0.00, -0.00, -1.00, 357.2, 697.8)">d</text><text xml:space="preserve" font-family="Menlo-Regular,Menlo" font-size="59.0" fill="#FEFFFF" transform="matrix(1.00, 0.00, -0.00, -1.00, 392.7, 697.8)">u</text><text xml:space="preserve" font-family="Menlo-Regular,Menlo" font-size="59.0" fill="#FEFFFF" transform="matrix(1.00, 0.00, -0.00, -1.00, 428.2, 697.8)">l</text><text xml:space="preserve" font-family="Menlo-Regular,Menlo" font-size="59.0" fill="#FEFFFF" transform="matrix(1.00, 0.00, -0.00, -1.00, 463.8, 697.8)">e</text><text xml:space="preserve" font-family="Menlo-Regular,Menlo" font-size="59.0" fill="#FEFFFF" transform="matrix(1.00, 0.00, -0.00, -1.00, 499.3, 697.8)">r</text><text xml:space="preserve" font-family="Menlo-Regular,Menlo" font-size="59.0" fill="#FEFFFF" transform="matrix(1.00, 0.00, -0.00, -1.00, 534.8, 697.8)"> </text><text xml:space="preserve" font-family="Menlo-Regular,Menlo" font-size="59.0" fill="#FEFFFF" transform="matrix(1.00, 0.00, -0.00, -1.00, 570.3, 697.8)">=</text><text xml:space="preserve" font-family="Menlo-Regular,Menlo" font-size="59.0" fill="#FEFFFF" transform="matrix(1.00, 0.00, -0.00, -1.00, 605.9, 697.8)"> </text><text xml:space="preserve" font-family="Menlo-Regular,Menlo" font-size="59.0" fill="#FEFFFF" transform="matrix(1.00, 0.00, -0.00, -1.00, 641.4, 697.8)">{</text><text xml:space="preserve" font-family="Menlo-Regular,Menlo" font-size="59.0" fill="#FEFFFF" transform="matrix(1.00, 0.00, -0.00, -1.00, 676.9, 697.8)">}</text><text xml:space="preserve" font-family="Menlo-Regular,Menlo" font-size="59.0" fill="#FEFFFF" transform="matrix(1.00, 0.00, -0.00, -1.00, 712.4, 697.8)">;</text><text xml:space="preserve" font-family="Menlo-Regular,Menlo" font-size="59.0" fill="#FEFFFF" transform="matrix(1.00, 0.00, -0.00, -1.00, 748.0, 697.8)"> </text><text xml:space="preserve" font-family="Menlo-Regular,Menlo" font-size="59.0" fill="#FEFFFF" transform="matrix(1.00, 0.00, -0.00, -1.00, 1.9, 628.8)">l</text><text xml:space="preserve" font-family="Menlo-Regular,Menlo" font-size="59.0" fill="#FEFFFF" transform="matrix(1.00, 0.00, -0.00, -1.00, 37.5, 628.8)">e</text><text xml:space="preserve" font-family="Menlo-Regular,Menlo" font-size="59.0" fill="#FEFFFF" transform="matrix(1.00, 0.00, -0.00, -1.00, 73.0, 628.8)">t</text><text xml:space="preserve" font-family="Menlo-Regular,Menlo" font-size="59.0" fill="#FEFFFF" transform="matrix(1.00, 0.00, -0.00, -1.00, 108.5, 628.8)"> </text><text xml:space="preserve" font-family="Menlo-Regular,Menlo" font-size="59.0" fill="#FEFFFF" transform="matrix(1.00, 0.00, -0.00, -1.00, 144.0, 628.8)">l</text><text xml:space="preserve" font-family="Menlo-Regular,Menlo" font-size="59.0" fill="#FEFFFF" transform="matrix(1.00, 0.00, -0.00, -1.00, 179.6, 628.8)">a</text><text xml:space="preserve" font-family="Menlo-Regular,Menlo" font-size="59.0" fill="#FEFFFF" transform="matrix(1.00, 0.00, -0.00, -1.00, 215.1, 628.8)">t</text><text xml:space="preserve" font-family="Menlo-Regular,Menlo" font-size="59.0" fill="#FEFFFF" transform="matrix(1.00, 0.00, -0.00, -1.00, 250.6, 628.8)">c</text><text xml:space="preserve" font-family="Menlo-Regular,Menlo" font-size="59.0" fill="#FEFFFF" transform="matrix(1.00, 0.00, -0.00, -1.00, 286.1, 628.8)">h</text><text xml:space="preserve" font-family="Menlo-Regular,Menlo" font-size="59.0" fill="#FEFFFF" transform="matrix(1.00, 0.00, -0.00, -1.00, 321.7, 628.8)"> </text><text xml:space="preserve" font-family="Menlo-Regular,Menlo" font-size="59.0" fill="#FEFFFF" transform="matrix(1.00, 0.00, -0.00, -1.00, 357.2, 628.8)">=</text><text xml:space="preserve" font-family="Menlo-Regular,Menlo" font-size="59.0" fill="#FEFFFF" transform="matrix(1.00, 0.00, -0.00, -1.00, 392.7, 628.8)"> </text><text xml:space="preserve" font-family="Menlo-Regular,Menlo" font-size="59.0" fill="#FEFFFF" transform="matrix(1.00, 0.00, -0.00, -1.00, 428.2, 628.8)">f</text><text xml:space="preserve" font-family="Menlo-Regular,Menlo" font-size="59.0" fill="#FEFFFF" transform="matrix(1.00, 0.00, -0.00, -1.00, 463.8, 628.8)">a</text><text xml:space="preserve" font-family="Menlo-Regular,Menlo" font-size="59.0" fill="#FEFFFF" transform="matrix(1.00, 0.00, -0.00, -1.00, 499.3, 628.8)">l</text><text xml:space="preserve" font-family="Menlo-Regular,Menlo" font-size="59.0" fill="#FEFFFF" transform="matrix(1.00, 0.00, -0.00, -1.00, 534.8, 628.8)">s</text><text xml:space="preserve" font-family="Menlo-Regular,Menlo" font-size="59.0" fill="#FEFFFF" transform="matrix(1.00, 0.00, -0.00, -1.00, 570.4, 628.8)">e</text><text xml:space="preserve" font-family="Menlo-Regular,Menlo" font-size="59.0" fill="#FEFFFF" transform="matrix(1.00, 0.00, -0.00, -1.00, 605.9, 628.8)">;</text><text xml:space="preserve" font-family="Menlo-Regular,Menlo" font-size="59.0" fill="#FEFFFF" transform="matrix(1.00, 0.00, -0.00, -1.00, 641.4, 628.8)"> </text><text xml:space="preserve" font-family="Menlo-Regular,Menlo" font-size="59.0" fill="#FEFFFF" transform="matrix(1.00, 0.00, -0.00, -1.00, 1.9, 559.8)">c</text><text xml:space="preserve" font-family="Menlo-Regular,Menlo" font-size="59.0" fill="#FEFFFF" transform="matrix(1.00, 0.00, -0.00, -1.00, 37.5, 559.8)">o</text><text xml:space="preserve" font-family="Menlo-Regular,Menlo" font-size="59.0" fill="#FEFFFF" transform="matrix(1.00, 0.00, -0.00, -1.00, 73.0, 559.8)">n</text><text xml:space="preserve" font-family="Menlo-Regular,Menlo" font-size="59.0" fill="#FEFFFF" transform="matrix(1.00, 0.00, -0.00, -1.00, 108.5, 559.8)">s</text><text xml:space="preserve" font-family="Menlo-Regular,Menlo" font-size="59.0" fill="#FEFFFF" transform="matrix(1.00, 0.00, -0.00, -1.00, 144.0, 559.8)">t</text><text xml:space="preserve" font-family="Menlo-Regular,Menlo" font-size="59.0" fill="#FEFFFF" transform="matrix(1.00, 0.00, -0.00, -1.00, 179.5, 559.8)"> </text><text xml:space="preserve" font-family="Menlo-Regular,Menlo" font-size="59.0" fill="#FEFFFF" transform="matrix(1.00, 0.00, -0.00, -1.00, 215.1, 559.8)">c</text><text xml:space="preserve" font-family="Menlo-Regular,Menlo" font-size="59.0" fill="#FEFFFF" transform="matrix(1.00, 0.00, -0.00, -1.00, 250.6, 559.8)">a</text><text xml:space="preserve" font-family="Menlo-Regular,Menlo" font-size="59.0" fill="#FEFFFF" transform="matrix(1.00, 0.00, -0.00, -1.00, 286.1, 559.8)">l</text><text xml:space="preserve" font-family="Menlo-Regular,Menlo" font-size="59.0" fill="#FEFFFF" transform="matrix(1.00, 0.00, -0.00, -1.00, 321.7, 559.8)">l</text><text xml:space="preserve" font-family="Menlo-Regular,Menlo" font-size="59.0" fill="#FEFFFF" transform="matrix(1.00, 0.00, -0.00, -1.00, 357.2, 559.8)">Q</text><text xml:space="preserve" font-family="Menlo-Regular,Menlo" font-size="59.0" fill="#FEFFFF" transform="matrix(1.00, 0.00, -0.00, -1.00, 392.7, 559.8)">u</text><text xml:space="preserve" font-family="Menlo-Regular,Menlo" font-size="59.0" fill="#FEFFFF" transform="matrix(1.00, 0.00, -0.00, -1.00, 428.2, 559.8)">e</text><text xml:space="preserve" font-family="Menlo-Regular,Menlo" font-size="59.0" fill="#FEFFFF" transform="matrix(1.00, 0.00, -0.00, -1.00, 463.8, 559.8)">u</text><text xml:space="preserve" font-family="Menlo-Regular,Menlo" font-size="59.0" fill="#FEFFFF" transform="matrix(1.00, 0.00, -0.00, -1.00, 499.3, 559.8)">e</text><text xml:space="preserve" font-family="Menlo-Regular,Menlo" font-size="59.0" fill="#FEFFFF" transform="matrix(1.00, 0.00, -0.00, -1.00, 534.8, 559.8)"> </text><text xml:space="preserve" font-family="Menlo-Regular,Menlo" font-size="59.0" fill="#FEFFFF" transform="matrix(1.00, 0.00, -0.00, -1.00, 570.3, 559.8)">=</text><text xml:space="preserve" font-family="Menlo-Regular,Menlo" font-size="59.0" fill="#FEFFFF" transform="matrix(1.00, 0.00, -0.00, -1.00, 605.9, 559.8)"> </text><text xml:space="preserve" font-family="Menlo-Regular,Menlo" font-size="59.0" fill="#FEFFFF" transform="matrix(1.00, 0.00, -0.00, -1.00, 641.4, 559.8)">[</text><text xml:space="preserve" font-family="Menlo-Regular,Menlo" font-size="59.0" fill="#FEFFFF" transform="matrix(1.00, 0.00, -0.00, -1.00, 676.9, 559.8)">]</text><text xml:space="preserve" font-family="Menlo-Regular,Menlo" font-size="59.0" fill="#FEFFFF" transform="matrix(1.00, 0.00, -0.00, -1.00, 712.4, 559.8)">;</text><text xml:space="preserve" font-family="Menlo-Regular,Menlo" font-size="59.0" fill="#FEFFFF" transform="matrix(1.00, 0.00, -0.00, -1.00, 748.0, 559.8)"> </text><text xml:space="preserve" font-family="Menlo-Regular,Menlo" font-size="59.0" fill="#FEFFFF" transform="matrix(1.00, 0.00, -0.00, -1.00, 1.9, 421.8)">s</text><text xml:space="preserve" font-family="Menlo-Regular,Menlo" font-size="59.0" fill="#FEFFFF" transform="matrix(1.00, 0.00, -0.00, -1.00, 37.5, 421.8)">c</text><text xml:space="preserve" font-family="Menlo-Regular,Menlo" font-size="59.0" fill="#FEFFFF" transform="matrix(1.00, 0.00, -0.00, -1.00, 73.0, 421.8)">h</text><text xml:space="preserve" font-family="Menlo-Regular,Menlo" font-size="59.0" fill="#FEFFFF" transform="matrix(1.00, 0.00, -0.00, -1.00, 108.5, 421.8)">e</text><text xml:space="preserve" font-family="Menlo-Regular,Menlo" font-size="59.0" fill="#FEFFFF" transform="matrix(1.00, 0.00, -0.00, -1.00, 144.0, 421.8)">d</text><text xml:space="preserve" font-family="Menlo-Regular,Menlo" font-size="59.0" fill="#FEFFFF" transform="matrix(1.00, 0.00, -0.00, -1.00, 179.6, 421.8)">u</text><text xml:space="preserve" font-family="Menlo-Regular,Menlo" font-size="59.0" fill="#FEFFFF" transform="matrix(1.00, 0.00, -0.00, -1.00, 215.1, 421.8)">l</text><text xml:space="preserve" font-family="Menlo-Regular,Menlo" font-size="59.0" fill="#FEFFFF" transform="matrix(1.00, 0.00, -0.00, -1.00, 250.6, 421.8)">e</text><text xml:space="preserve" font-family="Menlo-Regular,Menlo" font-size="59.0" fill="#FEFFFF" transform="matrix(1.00, 0.00, -0.00, -1.00, 286.2, 421.8)">r</text><text xml:space="preserve" font-family="Menlo-Regular,Menlo" font-size="59.0" fill="#FEFFFF" transform="matrix(1.00, 0.00, -0.00, -1.00, 321.7, 421.8)">.</text><text xml:space="preserve" font-family="Menlo-Regular,Menlo" font-size="59.0" fill="#FEFFFF" transform="matrix(1.00, 0.00, -0.00, -1.00, 357.2, 421.8)">s</text><text xml:space="preserve" font-family="Menlo-Regular,Menlo" font-size="59.0" fill="#FEFFFF" transform="matrix(1.00, 0.00, -0.00, -1.00, 392.7, 421.8)">c</text><text xml:space="preserve" font-family="Menlo-Regular,Menlo" font-size="59.0" fill="#FEFFFF" transform="matrix(1.00, 0.00, -0.00, -1.00, 428.3, 421.8)">h</text><text xml:space="preserve" font-family="Menlo-Regular,Menlo" font-size="59.0" fill="#FEFFFF" transform="matrix(1.00, 0.00, -0.00, -1.00, 463.8, 421.8)">e</text><text xml:space="preserve" font-family="Menlo-Regular,Menlo" font-size="59.0" fill="#FEFFFF" transform="matrix(1.00, 0.00, -0.00, -1.00, 499.3, 421.8)">d</text><text xml:space="preserve" font-family="Menlo-Regular,Menlo" font-size="59.0" fill="#FEFFFF" transform="matrix(1.00, 0.00, -0.00, -1.00, 534.8, 421.8)">u</text><text xml:space="preserve" font-family="Menlo-Regular,Menlo" font-size="59.0" fill="#FEFFFF" transform="matrix(1.00, 0.00, -0.00, -1.00, 570.4, 421.8)">l</text><text xml:space="preserve" font-family="Menlo-Regular,Menlo" font-size="59.0" fill="#FEFFFF" transform="matrix(1.00, 0.00, -0.00, -1.00, 605.9, 421.8)">e</text><text xml:space="preserve" font-family="Menlo-Regular,Menlo" font-size="59.0" fill="#FEFFFF" transform="matrix(1.00, 0.00, -0.00, -1.00, 641.4, 421.8)"> </text><text xml:space="preserve" font-family="Menlo-Regular,Menlo" font-size="59.0" fill="#FEFFFF" transform="matrix(1.00, 0.00, -0.00, -1.00, 677.0, 421.8)">=</text><text xml:space="preserve" font-family="Menlo-Regular,Menlo" font-size="59.0" fill="#FEFFFF" transform="matrix(1.00, 0.00, -0.00, -1.00, 712.5, 421.8)"> </text><text xml:space="preserve" font-family="Menlo-Regular,Menlo" font-size="59.0" fill="#FEFFFF" transform="matrix(1.00, 0.00, -0.00, -1.00, 748.0, 421.8)">f</text><text xml:space="preserve" font-family="Menlo-Regular,Menlo" font-size="59.0" fill="#FEFFFF" transform="matrix(1.00, 0.00, -0.00, -1.00, 783.5, 421.8)">u</text><text xml:space="preserve" font-family="Menlo-Regular,Menlo" font-size="59.0" fill="#FEFFFF" transform="matrix(1.00, 0.00, -0.00, -1.00, 819.1, 421.8)">n</text><text xml:space="preserve" font-family="Menlo-Regular,Menlo" font-size="59.0" fill="#FEFFFF" transform="matrix(1.00, 0.00, -0.00, -1.00, 854.6, 421.8)">c</text><text xml:space="preserve" font-family="Menlo-Regular,Menlo" font-size="59.0" fill="#FEFFFF" transform="matrix(1.00, 0.00, -0.00, -1.00, 890.1, 421.8)">t</text><text xml:space="preserve" font-family="Menlo-Regular,Menlo" font-size="59.0" fill="#FEFFFF" transform="matrix(1.00, 0.00, -0.00, -1.00, 925.6, 421.8)">i</text><text xml:space="preserve" font-family="Menlo-Regular,Menlo" font-size="59.0" fill="#FEFFFF" transform="matrix(1.00, 0.00, -0.00, -1.00, 961.2, 421.8)">o</text><text xml:space="preserve" font-family="Menlo-Regular,Menlo" font-size="59.0" fill="#FEFFFF" transform="matrix(1.00, 0.00, -0.00, -1.00, 996.7, 421.8)">n</text><text xml:space="preserve" font-family="Menlo-Regular,Menlo" font-size="59.0" fill="#FEFFFF" transform="matrix(1.00, 0.00, -0.00, -1.00, 1032.2, 421.8)">(</text><text xml:space="preserve" font-family="Menlo-Regular,Menlo" font-size="59.0" fill="#FEFFFF" transform="matrix(1.00, 0.00, -0.00, -1.00, 1067.7, 421.8)">o</text><text xml:space="preserve" font-family="Menlo-Regular,Menlo" font-size="59.0" fill="#FEFFFF" transform="matrix(1.00, 0.00, -0.00, -1.00, 1103.3, 421.8)">p</text><text xml:space="preserve" font-family="Menlo-Regular,Menlo" font-size="59.0" fill="#FEFFFF" transform="matrix(1.00, 0.00, -0.00, -1.00, 1138.8, 421.8)">t</text><text xml:space="preserve" font-family="Menlo-Regular,Menlo" font-size="59.0" fill="#FEFFFF" transform="matrix(1.00, 0.00, -0.00, -1.00, 1174.3, 421.8)">i</text><text xml:space="preserve" font-family="Menlo-Regular,Menlo" font-size="59.0" fill="#FEFFFF" transform="matrix(1.00, 0.00, -0.00, -1.00, 1209.9, 421.8)">o</text><text xml:space="preserve" font-family="Menlo-Regular,Menlo" font-size="59.0" fill="#FEFFFF" transform="matrix(1.00, 0.00, -0.00, -1.00, 1245.4, 421.8)">n</text><text xml:space="preserve" font-family="Menlo-Regular,Menlo" font-size="59.0" fill="#FEFFFF" transform="matrix(1.00, 0.00, -0.00, -1.00, 1280.9, 421.8)">s</text><text xml:space="preserve" font-family="Menlo-Regular,Menlo" font-size="59.0" fill="#FEFFFF" transform="matrix(1.00, 0.00, -0.00, -1.00, 1316.4, 421.8)">)</text><text xml:space="preserve" font-family="Menlo-Regular,Menlo" font-size="59.0" fill="#FEFFFF" transform="matrix(1.00, 0.00, -0.00, -1.00, 1352.0, 421.8)"> </text><text xml:space="preserve" font-family="Menlo-Regular,Menlo" font-size="59.0" fill="#FEFFFF" transform="matrix(1.00, 0.00, -0.00, -1.00, 1387.5, 421.8)">{</text><text xml:space="preserve" font-family="Menlo-Regular,Menlo" font-size="59.0" fill="#FEFFFF" transform="matrix(1.00, 0.00, -0.00, -1.00, 1423.0, 421.8)"> </text><text xml:space="preserve" font-family="Menlo-Regular,Menlo" font-size="59.0" fill="#FEFFFF" transform="matrix(1.00, 0.00, -0.00, -1.00, 1.9, 352.8)"> </text><text xml:space="preserve" font-family="Menlo-Regular,Menlo" font-size="59.0" fill="#FEFFFF" transform="matrix(1.00, 0.00, -0.00, -1.00, 37.5, 352.8)"> </text><text xml:space="preserve" font-family="Menlo-Regular,Menlo" font-size="59.0" fill="#FEFFFF" transform="matrix(1.00, 0.00, -0.00, -1.00, 73.0, 352.8)">c</text><text xml:space="preserve" font-family="Menlo-Regular,Menlo" font-size="59.0" fill="#FEFFFF" transform="matrix(1.00, 0.00, -0.00, -1.00, 108.5, 352.8)">a</text><text xml:space="preserve" font-family="Menlo-Regular,Menlo" font-size="59.0" fill="#FEFFFF" transform="matrix(1.00, 0.00, -0.00, -1.00, 144.0, 352.8)">l</text><text xml:space="preserve" font-family="Menlo-Regular,Menlo" font-size="59.0" fill="#FEFFFF" transform="matrix(1.00, 0.00, -0.00, -1.00, 179.6, 352.8)">l</text><text xml:space="preserve" font-family="Menlo-Regular,Menlo" font-size="59.0" fill="#FEFFFF" transform="matrix(1.00, 0.00, -0.00, -1.00, 215.1, 352.8)">Q</text><text xml:space="preserve" font-family="Menlo-Regular,Menlo" font-size="59.0" fill="#FEFFFF" transform="matrix(1.00, 0.00, -0.00, -1.00, 250.6, 352.8)">u</text><text xml:space="preserve" font-family="Menlo-Regular,Menlo" font-size="59.0" fill="#FEFFFF" transform="matrix(1.00, 0.00, -0.00, -1.00, 286.1, 352.8)">e</text><text xml:space="preserve" font-family="Menlo-Regular,Menlo" font-size="59.0" fill="#FEFFFF" transform="matrix(1.00, 0.00, -0.00, -1.00, 321.7, 352.8)">u</text><text xml:space="preserve" font-family="Menlo-Regular,Menlo" font-size="59.0" fill="#FEFFFF" transform="matrix(1.00, 0.00, -0.00, -1.00, 357.2, 352.8)">e</text><text xml:space="preserve" font-family="Menlo-Regular,Menlo" font-size="59.0" fill="#FEFFFF" transform="matrix(1.00, 0.00, -0.00, -1.00, 392.7, 352.8)">.</text><text xml:space="preserve" font-family="Menlo-Regular,Menlo" font-size="59.0" fill="#FEFFFF" transform="matrix(1.00, 0.00, -0.00, -1.00, 428.2, 352.8)">p</text><text xml:space="preserve" font-family="Menlo-Regular,Menlo" font-size="59.0" fill="#FEFFFF" transform="matrix(1.00, 0.00, -0.00, -1.00, 463.8, 352.8)">u</text><text xml:space="preserve" font-family="Menlo-Regular,Menlo" font-size="59.0" fill="#FEFFFF" transform="matrix(1.00, 0.00, -0.00, -1.00, 499.3, 352.8)">s</text><text xml:space="preserve" font-family="Menlo-Regular,Menlo" font-size="59.0" fill="#FEFFFF" transform="matrix(1.00, 0.00, -0.00, -1.00, 534.8, 352.8)">h</text><text xml:space="preserve" font-family="Menlo-Regular,Menlo" font-size="59.0" fill="#FEFFFF" transform="matrix(1.00, 0.00, -0.00, -1.00, 570.4, 352.8)">(</text><text xml:space="preserve" font-family="Menlo-Regular,Menlo" font-size="59.0" fill="#FEFFFF" transform="matrix(1.00, 0.00, -0.00, -1.00, 605.9, 352.8)">g</text><text xml:space="preserve" font-family="Menlo-Regular,Menlo" font-size="59.0" fill="#FEFFFF" transform="matrix(1.00, 0.00, -0.00, -1.00, 641.4, 352.8)">e</text><text xml:space="preserve" font-family="Menlo-Regular,Menlo" font-size="59.0" fill="#FEFFFF" transform="matrix(1.00, 0.00, -0.00, -1.00, 676.9, 352.8)">t</text><text xml:space="preserve" font-family="Menlo-Regular,Menlo" font-size="59.0" fill="#FEFFFF" transform="matrix(1.00, 0.00, -0.00, -1.00, 712.5, 352.8)">F</text><text xml:space="preserve" font-family="Menlo-Regular,Menlo" font-size="59.0" fill="#FEFFFF" transform="matrix(1.00, 0.00, -0.00, -1.00, 748.0, 352.8)">n</text><text xml:space="preserve" font-family="Menlo-Regular,Menlo" font-size="59.0" fill="#FEFFFF" transform="matrix(1.00, 0.00, -0.00, -1.00, 783.5, 352.8)">F</text><text xml:space="preserve" font-family="Menlo-Regular,Menlo" font-size="59.0" fill="#FEFFFF" transform="matrix(1.00, 0.00, -0.00, -1.00, 819.0, 352.8)">o</text><text xml:space="preserve" font-family="Menlo-Regular,Menlo" font-size="59.0" fill="#FEFFFF" transform="matrix(1.00, 0.00, -0.00, -1.00, 854.6, 352.8)">r</text><text xml:space="preserve" font-family="Menlo-Regular,Menlo" font-size="59.0" fill="#FEFFFF" transform="matrix(1.00, 0.00, -0.00, -1.00, 890.1, 352.8)">Q</text><text xml:space="preserve" font-family="Menlo-Regular,Menlo" font-size="59.0" fill="#FEFFFF" transform="matrix(1.00, 0.00, -0.00, -1.00, 925.6, 352.8)">u</text><text xml:space="preserve" font-family="Menlo-Regular,Menlo" font-size="59.0" fill="#FEFFFF" transform="matrix(1.00, 0.00, -0.00, -1.00, 961.2, 352.8)">e</text><text xml:space="preserve" font-family="Menlo-Regular,Menlo" font-size="59.0" fill="#FEFFFF" transform="matrix(1.00, 0.00, -0.00, -1.00, 996.7, 352.8)">u</text><text xml:space="preserve" font-family="Menlo-Regular,Menlo" font-size="59.0" fill="#FEFFFF" transform="matrix(1.00, 0.00, -0.00, -1.00, 1032.2, 352.8)">e</text><text xml:space="preserve" font-family="Menlo-Regular,Menlo" font-size="59.0" fill="#FEFFFF" transform="matrix(1.00, 0.00, -0.00, -1.00, 1067.7, 352.8)">(</text><text xml:space="preserve" font-family="Menlo-Regular,Menlo" font-size="59.0" fill="#FEFFFF" transform="matrix(1.00, 0.00, -0.00, -1.00, 1103.3, 352.8)">o</text><text xml:space="preserve" font-family="Menlo-Regular,Menlo" font-size="59.0" fill="#FEFFFF" transform="matrix(1.00, 0.00, -0.00, -1.00, 1138.8, 352.8)">p</text><text xml:space="preserve" font-family="Menlo-Regular,Menlo" font-size="59.0" fill="#FEFFFF" transform="matrix(1.00, 0.00, -0.00, -1.00, 1174.3, 352.8)">t</text><text xml:space="preserve" font-family="Menlo-Regular,Menlo" font-size="59.0" fill="#FEFFFF" transform="matrix(1.00, 0.00, -0.00, -1.00, 1209.8, 352.8)">i</text><text xml:space="preserve" font-family="Menlo-Regular,Menlo" font-size="59.0" fill="#FEFFFF" transform="matrix(1.00, 0.00, -0.00, -1.00, 1245.4, 352.8)">o</text><text xml:space="preserve" font-family="Menlo-Regular,Menlo" font-size="59.0" fill="#FEFFFF" transform="matrix(1.00, 0.00, -0.00, -1.00, 1280.9, 352.8)">n</text><text xml:space="preserve" font-family="Menlo-Regular,Menlo" font-size="59.0" fill="#FEFFFF" transform="matrix(1.00, 0.00, -0.00, -1.00, 1316.4, 352.8)">s</text><text xml:space="preserve" font-family="Menlo-Regular,Menlo" font-size="59.0" fill="#FEFFFF" transform="matrix(1.00, 0.00, -0.00, -1.00, 1351.9, 352.8)">)</text><text xml:space="preserve" font-family="Menlo-Regular,Menlo" font-size="59.0" fill="#FEFFFF" transform="matrix(1.00, 0.00, -0.00, -1.00, 1387.5, 352.8)">)</text><text xml:space="preserve" font-family="Menlo-Regular,Menlo" font-size="59.0" fill="#FEFFFF" transform="matrix(1.00, 0.00, -0.00, -1.00, 1423.0, 352.8)">;</text><text xml:space="preserve" font-family="Menlo-Regular,Menlo" font-size="59.0" fill="#FEFFFF" transform="matrix(1.00, 0.00, -0.00, -1.00, 1458.5, 352.8)"> </text><text xml:space="preserve" font-family="Menlo-Regular,Menlo" font-size="59.0" fill="#FEFFFF" transform="matrix(1.00, 0.00, -0.00, -1.00, 1.9, 214.8)"> </text><text xml:space="preserve" font-family="Menlo-Regular,Menlo" font-size="59.0" fill="#FEFFFF" transform="matrix(1.00, 0.00, -0.00, -1.00, 37.5, 214.8)"> </text><text xml:space="preserve" font-family="Menlo-Regular,Menlo" font-size="59.0" fill="#FEFFFF" transform="matrix(1.00, 0.00, -0.00, -1.00, 73.0, 214.8)">i</text><text xml:space="preserve" font-family="Menlo-Regular,Menlo" font-size="59.0" fill="#FEFFFF" transform="matrix(1.00, 0.00, -0.00, -1.00, 108.5, 214.8)">f</text><text xml:space="preserve" font-family="Menlo-Regular,Menlo" font-size="59.0" fill="#FEFFFF" transform="matrix(1.00, 0.00, -0.00, -1.00, 144.0, 214.8)">(</text><text xml:space="preserve" font-family="Menlo-Regular,Menlo" font-size="59.0" fill="#FEFFFF" transform="matrix(1.00, 0.00, -0.00, -1.00, 179.6, 214.8)">!</text><text xml:space="preserve" font-family="Menlo-Regular,Menlo" font-size="59.0" fill="#FEFFFF" transform="matrix(1.00, 0.00, -0.00, -1.00, 215.1, 214.8)">l</text><text xml:space="preserve" font-family="Menlo-Regular,Menlo" font-size="59.0" fill="#FEFFFF" transform="matrix(1.00, 0.00, -0.00, -1.00, 250.6, 214.8)">a</text><text xml:space="preserve" font-family="Menlo-Regular,Menlo" font-size="59.0" fill="#FEFFFF" transform="matrix(1.00, 0.00, -0.00, -1.00, 286.1, 214.8)">t</text><text xml:space="preserve" font-family="Menlo-Regular,Menlo" font-size="59.0" fill="#FEFFFF" transform="matrix(1.00, 0.00, -0.00, -1.00, 321.7, 214.8)">c</text><text xml:space="preserve" font-family="Menlo-Regular,Menlo" font-size="59.0" fill="#FEFFFF" transform="matrix(1.00, 0.00, -0.00, -1.00, 357.2, 214.8)">h</text><text xml:space="preserve" font-family="Menlo-Regular,Menlo" font-size="59.0" fill="#FEFFFF" transform="matrix(1.00, 0.00, -0.00, -1.00, 392.7, 214.8)">)</text><text xml:space="preserve" font-family="Menlo-Regular,Menlo" font-size="59.0" fill="#FEFFFF" transform="matrix(1.00, 0.00, -0.00, -1.00, 428.2, 214.8)"> </text><text xml:space="preserve" font-family="Menlo-Regular,Menlo" font-size="59.0" fill="#FEFFFF" transform="matrix(1.00, 0.00, -0.00, -1.00, 463.8, 214.8)">{</text><text xml:space="preserve" font-family="Menlo-Regular,Menlo" font-size="59.0" fill="#FEFFFF" transform="matrix(1.00, 0.00, -0.00, -1.00, 499.3, 214.8)"> </text><text xml:space="preserve" font-family="Menlo-Regular,Menlo" font-size="59.0" fill="#FEFFFF" transform="matrix(1.00, 0.00, -0.00, -1.00, 1.9, 145.8)"> </text><text xml:space="preserve" font-family="Menlo-Regular,Menlo" font-size="59.0" fill="#FEFFFF" transform="matrix(1.00, 0.00, -0.00, -1.00, 47.9, 145.8)"> </text><text xml:space="preserve" font-family="Menlo-Regular,Menlo" font-size="59.0" fill="#FEFFFF" transform="matrix(1.00, 0.00, -0.00, -1.00, 93.9, 145.8)"> </text><text xml:space="preserve" font-family="Menlo-Regular,Menlo" font-size="59.0" fill="#FEFFFF" transform="matrix(1.00, 0.00, -0.00, -1.00, 140.0, 145.8)">r</text><text xml:space="preserve" font-family="Menlo-Regular,Menlo" font-size="59.0" fill="#FEFFFF" transform="matrix(1.00, 0.00, -0.00, -1.00, 175.5, 145.8)">e</text><text xml:space="preserve" font-family="Menlo-Regular,Menlo" font-size="59.0" fill="#FEFFFF" transform="matrix(1.00, 0.00, -0.00, -1.00, 211.0, 145.8)">t</text><text xml:space="preserve" font-family="Menlo-Regular,Menlo" font-size="59.0" fill="#FEFFFF" transform="matrix(1.00, 0.00, -0.00, -1.00, 246.5, 145.8)">u</text><text xml:space="preserve" font-family="Menlo-Regular,Menlo" font-size="59.0" fill="#FEFFFF" transform="matrix(1.00, 0.00, -0.00, -1.00, 282.0, 145.8)">r</text><text xml:space="preserve" font-family="Menlo-Regular,Menlo" font-size="59.0" fill="#FEFFFF" transform="matrix(1.00, 0.00, -0.00, -1.00, 317.5, 145.8)">n</text><text xml:space="preserve" font-family="Menlo-Regular,Menlo" font-size="59.0" fill="#FEFFFF" transform="matrix(1.00, 0.00, -0.00, -1.00, 353.0, 145.8)"> </text><text xml:space="preserve" font-family="Menlo-Regular,Menlo" font-size="59.0" fill="#FEFFFF" transform="matrix(1.00, 0.00, -0.00, -1.00, 388.5, 145.8)">c</text><text xml:space="preserve" font-family="Menlo-Regular,Menlo" font-size="59.0" fill="#FEFFFF" transform="matrix(1.00, 0.00, -0.00, -1.00, 424.0, 145.8)">a</text><text xml:space="preserve" font-family="Menlo-Regular,Menlo" font-size="59.0" fill="#FEFFFF" transform="matrix(1.00, 0.00, -0.00, -1.00, 459.5, 145.8)">l</text><text xml:space="preserve" font-family="Menlo-Regular,Menlo" font-size="59.0" fill="#FEFFFF" transform="matrix(1.00, 0.00, -0.00, -1.00, 495.0, 145.8)">l</text><text xml:space="preserve" font-family="Menlo-Regular,Menlo" font-size="59.0" fill="#FEFFFF" transform="matrix(1.00, 0.00, -0.00, -1.00, 530.5, 145.8)">Q</text><text xml:space="preserve" font-family="Menlo-Regular,Menlo" font-size="59.0" fill="#FEFFFF" transform="matrix(1.00, 0.00, -0.00, -1.00, 566.0, 145.8)">u</text><text xml:space="preserve" font-family="Menlo-Regular,Menlo" font-size="59.0" fill="#FEFFFF" transform="matrix(1.00, 0.00, -0.00, -1.00, 601.5, 145.8)">e</text><text xml:space="preserve" font-family="Menlo-Regular,Menlo" font-size="59.0" fill="#FEFFFF" transform="matrix(1.00, 0.00, -0.00, -1.00, 637.0, 145.8)">u</text><text xml:space="preserve" font-family="Menlo-Regular,Menlo" font-size="59.0" fill="#FEFFFF" transform="matrix(1.00, 0.00, -0.00, -1.00, 672.5, 145.8)">e</text><text xml:space="preserve" font-family="Menlo-Regular,Menlo" font-size="59.0" fill="#FEFFFF" transform="matrix(1.00, 0.00, -0.00, -1.00, 708.0, 145.8)">.</text><text xml:space="preserve" font-family="Menlo-Regular,Menlo" font-size="59.0" fill="#FEFFFF" transform="matrix(1.00, 0.00, -0.00, -1.00, 743.5, 145.8)">s</text><text xml:space="preserve" font-family="Menlo-Regular,Menlo" font-size="59.0" fill="#FEFFFF" transform="matrix(1.00, 0.00, -0.00, -1.00, 779.0, 145.8)">h</text><text xml:space="preserve" font-family="Menlo-Regular,Menlo" font-size="59.0" fill="#FEFFFF" transform="matrix(1.00, 0.00, -0.00, -1.00, 814.5, 145.8)">i</text><text xml:space="preserve" font-family="Menlo-Regular,Menlo" font-size="59.0" fill="#FEFFFF" transform="matrix(1.00, 0.00, -0.00, -1.00, 850.0, 145.8)">f</text><text xml:space="preserve" font-family="Menlo-Regular,Menlo" font-size="59.0" fill="#FEFFFF" transform="matrix(1.00, 0.00, -0.00, -1.00, 885.5, 145.8)">t</text><text xml:space="preserve" font-family="Menlo-Regular,Menlo" font-size="59.0" fill="#FEFFFF" transform="matrix(1.00, 0.00, -0.00, -1.00, 921.0, 145.8)">(</text><text xml:space="preserve" font-family="Menlo-Regular,Menlo" font-size="59.0" fill="#FEFFFF" transform="matrix(1.00, 0.00, -0.00, -1.00, 956.5, 145.8)">)</text><text xml:space="preserve" font-family="Menlo-Regular,Menlo" font-size="59.0" fill="#FEFFFF" transform="matrix(1.00, 0.00, -0.00, -1.00, 992.0, 145.8)">(</text><text xml:space="preserve" font-family="Menlo-Regular,Menlo" font-size="59.0" fill="#FEFFFF" transform="matrix(1.00, 0.00, -0.00, -1.00, 1027.5, 145.8)">)</text><text xml:space="preserve" font-family="Menlo-Regular,Menlo" font-size="59.0" fill="#FEFFFF" transform="matrix(1.00, 0.00, -0.00, -1.00, 1063.0, 145.8)">;</text><text xml:space="preserve" font-family="Menlo-Regular,Menlo" font-size="59.0" fill="#FEFFFF" transform="matrix(1.00, 0.00, -0.00, -1.00, 1098.5, 145.8)"> </text><text xml:space="preserve" font-family="Menlo-Regular,Menlo" font-size="59.0" fill="#FEFFFF" transform="matrix(1.00, 0.00, -0.00, -1.00, 1.9, 76.8)"> </text><text xml:space="preserve" font-family="Menlo-Regular,Menlo" font-size="59.0" fill="#FEFFFF" transform="matrix(1.00, 0.00, -0.00, -1.00, 37.5, 76.8)"> </text><text xml:space="preserve" font-family="Menlo-Regular,Menlo" font-size="59.0" fill="#FEFFFF" transform="matrix(1.00, 0.00, -0.00, -1.00, 73.0, 76.8)">}</text><text xml:space="preserve" font-family="Menlo-Regular,Menlo" font-size="59.0" fill="#FEFFFF" transform="matrix(1.00, 0.00, -0.00, -1.00, 108.5, 76.8)"> </text><text xml:space="preserve" font-family="Menlo-Regular,Menlo" font-size="59.0" fill="#FEFFFF" transform="matrix(1.00, 0.00, -0.00, -1.00, 1.9, 7.8)">}</text></g></svg>